<svg xmlns="http://www.w3.org/2000/svg" xmlns:svg="http://www.w3.org/2000/svg" xmlns:xlink="http://www.w3.org/1999/xlink" id="svg2" width="400" height="300" version="1.1" style="display:inline"><defs id="defs4"><marker id="Arrow1Send" orient="auto" refX="0" refY="0" style="overflow:visible"><path id="path3781" d="M 0,0 5,-5 -12.5,0 5,5 0,0 z" transform="matrix(-0.2,0,0,-0.2,-1.2,0)" style="fill-rule:evenodd;stroke:#000;stroke-width:1pt;marker-start:none"/></marker><marker id="Arrow1Mend" orient="auto" refX="0" refY="0" style="overflow:visible"><path id="path3775" d="M 0,0 5,-5 -12.5,0 5,5 0,0 z" transform="matrix(-0.4,0,0,-0.4,-4,0)" style="fill-rule:evenodd;stroke:#000;stroke-width:1pt;marker-start:none"/></marker><marker id="Arrow1Lend" orient="auto" refX="0" refY="0" style="overflow:visible"><path id="path3769" d="M 0,0 5,-5 -12.5,0 5,5 0,0 z" transform="matrix(-0.8,0,0,-0.8,-10,0)" style="fill-rule:evenodd;stroke:#000;stroke-width:1pt;marker-start:none"/></marker><linearGradient id="linearGradient3800"><stop id="stop4603" offset="0" style="stop-color:#4881cf;stop-opacity:1"/><stop style="stop-color:#2b4b9c;stop-opacity:1" id="stop4609" offset=".8"/><stop style="stop-color:#2d3995;stop-opacity:1" id="stop3804" offset="1"/></linearGradient><radialGradient id="radialGradient4611" cx="200" cy="902.362" r="200" fx="200" fy="902.362" gradientTransform="matrix(1.7489429,0,0,0.75,-149.78858,225.59055)" gradientUnits="userSpaceOnUse" xlink:href="#linearGradient3800"/><filter id="filter4654" width="1.408" height="1.322" x="-.204" y="-.161" color-interpolation-filters="sRGB"><feGaussianBlur id="feGaussianBlur4656" stdDeviation="3.209"/></filter><filter id="filter4727" color-interpolation-filters="sRGB"><feGaussianBlur id="feGaussianBlur4729" stdDeviation="1.077"/></filter><mask id="mask4741" maskUnits="userSpaceOnUse"><rect id="rect4743" width="350.018" height="80.812" x="24.991" y="-163.407" rx="13.637" ry="13.723" style="fill:#156db4;fill-opacity:1;stroke:none;display:inline"/></mask><filter id="filter4766" color-interpolation-filters="sRGB"><feGaussianBlur id="feGaussianBlur4768" stdDeviation=".539"/></filter><radialGradient id="radialGradient4770" cx="200" cy="925.417" r="200" fx="200" fy="925.417" gradientTransform="matrix(1.7489429,0,0,0.83105781,-149.78858,150.57829)" gradientUnits="userSpaceOnUse" xlink:href="#linearGradient3800"/><filter id="filter4778" color-interpolation-filters="sRGB"><feGaussianBlur id="feGaussianBlur4780" stdDeviation=".448"/></filter></defs><metadata id="metadata7"/><g id="layer1" transform="translate(0,-752.36217)" style="display:inline"><rect style="fill:url(#radialGradient4770);fill-opacity:1;stroke:none;display:inline" id="rect3798" width="400" height="300" x="0" y="752.362" rx=".668" ry=".674"/><text style="font-size:38.86662674px;font-style:normal;font-variant:normal;font-weight:400;font-stretch:normal;line-height:125%;letter-spacing:0;word-spacing:0;fill:#eeeeec;fill-opacity:1;stroke:none;font-family:FreeSans;-inkscape-font-specification:FreeSans" id="text3794" x="16.05" y="815.901" xml:space="preserve"><tspan id="tspan3796" x="16.05" y="815.901" dx="0 0 -2.461 -4.376 -1.698 0 -1.308" dy="0 0 -1.313" style="font-style:normal;font-variant:normal;font-weight:400;font-stretch:normal;fill:#eeeeec;font-family:cmbx12;-inkscape-font-specification:cmbx12">T<tspan style="font-size:34.65908051px;baseline-shift:sub" id="tspan4621" dx="-6.565" dy="1.313">E</tspan>Xworks</tspan></text><rect style="fill:#156cb4;fill-opacity:1;stroke:none" id="rect4627" width="350.018" height="80.812" x="24.991" y="869.777" rx="13.637" ry="13.723"/><path id="path4636" d="m 181.19611,170.22538 0,-25.98911 13.0427,0 0,-10.53263 24.68691,24.02942 -24.68691,23.82655 0,-11.33423 z" transform="matrix(1,0,0,1.0823056,0,739.3882)" style="fill:#2e3436;fill-opacity:1;stroke:none;filter:url(#filter4654)"/><path style="fill:#1e8dcd;fill-opacity:1;stroke:#1e8dcd;stroke-linejoin:round;stroke-opacity:1" id="path4634" d="m 181.19611,923.62409 0,-28.12816 13.0427,0 0,-11.39953 24.68691,26.00718 -24.68691,25.78761 0,-12.2671 z"/><rect id="rect4666" width="350.018" height="80.812" x="24.991" y="869.777" rx="13.637" ry="13.723" style="fill:none;stroke:none"/><rect style="fill:none;stroke:#000;stroke-width:6;stroke-miterlimit:4;stroke-opacity:1;stroke-dasharray:none;display:inline;filter:url(#filter4727)" id="rect4725" width="350.018" height="80.812" x="24.991" y="-163.407" mask="url(#mask4741)" rx="13.637" ry="13.723" transform="translate(0,1033.1846)"/><rect id="rect4752" width="350.018" height="80.812" x="24.991" y="869.777" rx="13.637" ry="13.723" style="fill:none;stroke:#6387d1;stroke-width:1;stroke-miterlimit:4;stroke-opacity:1;stroke-dasharray:none;filter:url(#filter4766)"/><path id="path4772" d="m 194.59595,934.95369 0,-11.68674 -13.08734,0 0,-27.27995 13.08734,0 0,-10.99588" style="fill:none;stroke:#2097db;stroke-width:2;stroke-linecap:round;stroke-miterlimit:4;stroke-opacity:1;stroke-dasharray:none;filter:url(#filter4778)"/></g><g id="layer5" style="display:inline"><text style="font-size:20px;font-style:normal;font-variant:normal;font-weight:400;font-stretch:normal;line-height:125%;letter-spacing:0;word-spacing:0;fill:#eeeeec;fill-opacity:1;stroke:none;display:inline;font-family:FreeSans;-inkscape-font-specification:FreeSans" id="text3808" x="16.784" y="1039.23" transform="translate(0,-752.36217)" xml:space="preserve"><tspan id="tspan3810" x="16.784" y="1039.23">0.5</tspan></text></g></svg>