<svg xmlns="http://www.w3.org/2000/svg" xmlns:svg="http://www.w3.org/2000/svg" xmlns:xlink="http://www.w3.org/1999/xlink" id="svg2993" width="64" height="64" version="1.1"><defs id="defs2995"><linearGradient id="linearGradient3787-715" x1="12.36" x2="7.454" y1="10.967" y2="3.385" gradientTransform="matrix(2.375,0,0,2.4949459,10.78366,9.917563)" gradientUnits="userSpaceOnUse" xlink:href="#linearGradient3777-608"/><linearGradient id="linearGradient3777-608"><stop style="stop-color:#404040;stop-opacity:1" id="stop3167" offset="0"/><stop id="stop3169" offset=".5" style="stop-color:#7d7d7d;stop-opacity:1"/><stop style="stop-color:#404040;stop-opacity:1" id="stop3171" offset="1"/></linearGradient><linearGradient id="linearGradient3799" x1="5.793" x2="5.798" y1="9.021" y2="14.28" gradientTransform="matrix(4.0575253,0,0,2.5695463,8.3469404,20.307283)" gradientUnits="userSpaceOnUse" xlink:href="#linearGradient3793"/><linearGradient id="linearGradient3793"><stop style="stop-color:#fff;stop-opacity:1" id="stop3795" offset="0"/><stop style="stop-color:#fff;stop-opacity:0" id="stop3797" offset="1"/></linearGradient></defs><metadata id="metadata2998"/><g id="layer1"><rect style="fill:#fff;stroke:#333;stroke-width:3;stroke-linecap:butt;stroke-linejoin:miter;stroke-miterlimit:4;stroke-opacity:1;stroke-dasharray:none" id="rect3055" width="62" height="62" x="1" y="1"/><path style="fill:#151515;fill-opacity:1;stroke:none" id="path3805" d="m 28.973793,19 c 0.302622,-1.589523 3.934071,-5.881227 3.934071,-5.881227 L 35.026207,19"/><rect style="color:#000;fill:url(#linearGradient3799);fill-opacity:1;fill-rule:nonzero;stroke:none;stroke-width:4;marker:none;visibility:visible;display:inline;overflow:visible;enable-background:accumulate" id="rect3791" width="38" height="28.485" x="13" y="28.515"/><path style="fill:#999;stroke:#999;stroke-width:2.43423414px;stroke-linecap:butt;stroke-linejoin:miter;stroke-opacity:1" id="path3803" d="m 12.991251,19.12673 c 40.941924,0 38.017498,0 38.017498,0"/><path style="fill:url(#linearGradient3787-715);fill-opacity:1;stroke:#2a2a2a;stroke-width:2.43423438px;stroke-linecap:butt;stroke-linejoin:miter;stroke-opacity:1" id="path3763" d="m 20.770143,13.659982 c 0,0 16.478324,-0.06522 17.566991,0 1.5181,0.09094 5.088288,-0.177416 6.430094,4.863161 1.341809,5.040579 0.756552,29.454416 0.756552,29.454416 L 34.53366,41.14463 c 0,0 -10.08226,6.679744 -10.08226,6.673978 0,-0.0057 0.899348,-28.269241 -1.260292,-32.633458 -2.472581,-4.996608 -4.841931,3.337993 -4.841931,3.337993"/><path id="path3306" d="m 14,18.854541 c 8.615385,0 8,0 8,0" style="fill:#999;stroke:#999;stroke-width:1.87339926px;stroke-linecap:butt;stroke-linejoin:miter;stroke-opacity:1"/></g></svg>