<svg xmlns="http://www.w3.org/2000/svg" xmlns:svg="http://www.w3.org/2000/svg" xmlns:xlink="http://www.w3.org/1999/xlink" id="svg3827" width="16" height="16" enable-background="new" version="1.1"><defs id="defs3829"><linearGradient id="linearGradient3853"><stop style="stop-color:#fff;stop-opacity:0" id="stop3855" offset="0"/><stop id="stop3861" offset=".5" style="stop-color:#e3e3e3;stop-opacity:.39664805"/><stop style="stop-color:#fff;stop-opacity:0" id="stop3857" offset="1"/></linearGradient><linearGradient id="linearGradient3859" x1="8.83" x2="3.199" y1="9.828" y2="2.71" gradientUnits="userSpaceOnUse" xlink:href="#linearGradient3853"/><filter id="filter3863"><feBlend id="feBlend3865" in2="BackgroundImage" mode="multiply"/></filter><linearGradient id="linearGradient3763" x1="8.83" x2="3.199" y1="9.828" y2="2.71" gradientUnits="userSpaceOnUse" xlink:href="#linearGradient3853"/><linearGradient id="linearGradient3784" x1="8.83" x2="3.199" y1="9.828" y2="2.71" gradientUnits="userSpaceOnUse" xlink:href="#linearGradient3853"/><linearGradient id="linearGradient3787" x1="8.83" x2="3.199" y1="9.828" y2="2.71" gradientUnits="userSpaceOnUse" xlink:href="#linearGradient3853"/><linearGradient id="linearGradient3793" x1="8.83" x2="3.199" y1="9.828" y2="2.71" gradientTransform="translate(17.137624,4.0356436)" gradientUnits="userSpaceOnUse" xlink:href="#linearGradient3853"/><linearGradient id="linearGradient3814" x1="8.83" x2="3.199" y1="9.828" y2="2.71" gradientTransform="translate(0.0126241,0.00439366)" gradientUnits="userSpaceOnUse" xlink:href="#linearGradient3853"/></defs><metadata id="metadata3832"/><g id="layer1" style="filter:url(#filter3863)"><path style="color:#000;fill:#4d4d4d;fill-opacity:1;fill-rule:nonzero;stroke:none;stroke-width:4;marker:none;visibility:visible;display:inline;overflow:visible;enable-background:accumulate" id="path3837" d="m 16.037624,7.9811878 a 8.0188122,8.0188122 0 1 1 -16.037624,0 8.0188122,8.0188122 0 1 1 16.037624,0 z" transform="matrix(0.93530062,0,0,0.93530062,0.5,0.53519008)"/><g style="font-size:15.3165617px;font-style:normal;font-variant:normal;font-weight:700;font-stretch:normal;text-align:start;line-height:125%;letter-spacing:0;word-spacing:0;writing-mode:lr-tb;text-anchor:start;fill:#ececec;fill-opacity:1;stroke:none;font-family:Aharoni;-inkscape-font-specification:Aharoni Bold" id="text3839"><path id="path3001" d="m 12.749031,12.962177 c -0.52851,0.274222 -1.079447,0.481135 -1.652812,0.620739 -0.573382,0.139604 -1.1716846,0.209406 -1.7949096,0.209406 -1.8597308,0 -3.3330509,-0.518529 -4.4199649,-1.555588 C 3.7944258,11.194692 3.2509676,9.7836949 3.2509683,8.0037391 3.2509676,6.2188086 3.7944258,4.8078116 4.8813445,3.770744 5.9682585,2.7287101 7.4415786,2.2076883 9.3013094,2.2076769 c 0.623225,1.14e-5 1.2215276,0.069813 1.7949096,0.2094061 0.573365,0.1396151 1.124302,0.3465281 1.652812,0.6207396 l 0,2.3109461 C 12.215535,4.9848095 11.689527,4.7180662 11.171007,4.5485381 10.652469,4.3790281 10.106518,4.2942686 9.5331518,4.2942593 8.5060587,4.2942686 7.6983502,4.623335 7.1100239,5.2814596 6.5216884,5.9396007 6.227523,6.8470263 6.2275267,8.0037391 c -3.7e-6,1.151738 0.2941617,2.0566709 0.8824972,2.7148009 0.5883263,0.658136 1.3960348,0.987202 2.4231279,0.9872 0.5733662,2e-6 1.1193172,-0.08476 1.6378552,-0.254279 0.51852,-0.169517 1.044528,-0.43626 1.578024,-0.80023 l 0,2.310946"/></g><path style="color:#000;fill:url(#linearGradient3814);fill-opacity:1;fill-rule:nonzero;stroke:none;stroke-width:4;marker:none;visibility:visible;display:inline;overflow:visible;enable-background:accumulate" id="rect3851" d="m 8.0000001,0.50000005 c -4.142136,0 -7.5,3.35786435 -7.5,7.49999995 0,4.142136 3.357864,7.5 7.5,7.5 C 12.142136,15.5 15.5,12.142136 15.5,8.0000001 15.5,3.8578645 12.142136,0.50000005 8.0000001,0.50000005 z"/></g></svg>