<svg xmlns="http://www.w3.org/2000/svg" xmlns:svg="http://www.w3.org/2000/svg" id="svg2" width="48" height="48" version="1.1"><metadata id="metadata7"/><g id="layer1" transform="translate(0,-1004.3622)"><rect style="fill:#fff;fill-opacity:1;stroke:#000;stroke-width:1;stroke-linecap:butt;stroke-linejoin:miter;stroke-miterlimit:4;stroke-opacity:1;stroke-dasharray:none" id="rect2991" width="46" height="46" x="1" y="1" transform="translate(0,1004.3622)"/><g style="font-style:normal;font-variant:normal;font-weight:400;font-stretch:normal;font-size:48px;line-height:125%;font-family:Serif;-inkscape-font-specification:Serif;letter-spacing:0;word-spacing:0;fill:#000;fill-opacity:1;stroke:none" id="text2985"><path id="path3338" d="m 18.363281,1043.3739 7.007813,0 q 4.21875,0 6.164062,-1.8281 1.945313,-1.8281 1.945313,-5.8125 0,-3.961 -1.945313,-5.7656 -1.921875,-1.8282 -6.164062,-1.8282 l -7.007813,0 0,15.2344 z m 0,-17.7187 5.953125,0 q 3.84375,0 5.601563,-1.4766 1.78125,-1.4766 1.78125,-4.6641 0,-3.2109 -1.78125,-4.664 -1.757813,-1.4766 -5.601563,-1.4766 l -5.953125,0 0,12.2813 z m -9.2109372,20.2031 0,-2.4844 4.4531252,0 0,-30 -4.4531252,0 0,-2.5078 17.2734372,0 q 5.296875,0 7.96875,2.1797 2.695313,2.1562 2.695313,6.4687 0,3.1172 -1.875,4.9688 -1.851563,1.8515 -5.4375,2.2734 4.453125,0.5625 6.75,2.8594 2.320312,2.2734 2.320312,6.1172 0,5.2031 -3.28125,7.664 -3.28125,2.461 -10.242187,2.461 l -16.1718752,0 z"/></g></g></svg>