<svg xmlns="http://www.w3.org/2000/svg" xmlns:svg="http://www.w3.org/2000/svg" id="svg2" width="48" height="48" version="1.1"><metadata id="metadata7"/><g id="layer1" transform="translate(0,-1004.3622)"><rect style="fill:#fff;fill-opacity:1;stroke:#000;stroke-width:1;stroke-linecap:butt;stroke-linejoin:miter;stroke-miterlimit:4;stroke-opacity:1;stroke-dasharray:none" id="rect2991" width="46" height="46" x="1" y="1" transform="translate(0,1004.3622)"/><g style="font-style:normal;font-variant:normal;font-weight:400;font-stretch:normal;font-size:40px;line-height:125%;font-family:Sans;-inkscape-font-specification:Sans;text-align:start;letter-spacing:0;word-spacing:0;writing-mode:lr-tb;text-anchor:start;fill:#000;fill-opacity:1;stroke:none" id="text2985"><path id="path3339" d="m 12.837891,1013.4989 3.964843,0 0,17.7148 q 0,4.6875 1.699219,6.7579 1.699219,2.0507 5.507813,2.0507 3.789062,0 5.488281,-2.0507 1.699219,-2.0704 1.699219,-6.7579 l 0,-17.7148 3.964843,0 0,18.2031 q 0,5.7032 -2.832031,8.6133 -2.8125,2.9102 -8.320312,2.9102 -5.527344,0 -8.359375,-2.9102 -2.8125,-2.9101 -2.8125,-8.6133 l 0,-18.2031 z"/></g><path style="fill:none;stroke:#000;stroke-width:2;stroke-linecap:butt;stroke-linejoin:miter;stroke-opacity:1;stroke-miterlimit:4;stroke-dasharray:none" id="path3887" d="m 13,43 22,0 0,0" transform="translate(0,1004.3622)"/></g></svg>