<svg xmlns="http://www.w3.org/2000/svg" xmlns:osb="http://www.openswatchbook.org/uri/2009/osb" xmlns:svg="http://www.w3.org/2000/svg" xmlns:xlink="http://www.w3.org/1999/xlink" id="svg2" width="100" height="100" version="1.1"><defs id="defs4"><linearGradient id="linearGradient3787" osb:paint="solid"><stop style="stop-color:#000;stop-opacity:1" id="stop3789" offset="0"/></linearGradient><linearGradient id="linearGradient3781" osb:paint="solid"><stop style="stop-color:#fff;stop-opacity:1" id="stop3783" offset="0"/></linearGradient><linearGradient id="linearGradient3152"><stop id="stop3154" offset="0" style="stop-color:#d5d5d5;stop-opacity:1"/><stop style="stop-color:#d5d5d5;stop-opacity:1" id="stop7048" offset=".5"/><stop id="stop3156" offset="1" style="stop-color:#fff;stop-opacity:1"/></linearGradient><linearGradient id="linearGradient7046" x1="56.25" x2="57" y1="48" y2="64.008" gradientTransform="translate(2.7519978,2.7519988)" gradientUnits="userSpaceOnUse" xlink:href="#linearGradient3152"/><linearGradient id="linearGradient8190"><stop id="stop8192" offset="0" style="stop-color:#fff;stop-opacity:1"/><stop id="stop8194" offset="1" style="stop-color:#fff;stop-opacity:0"/></linearGradient><linearGradient id="linearGradient8196" x1="71.35" x2="71.35" y1="12.866" y2="70.948" gradientUnits="userSpaceOnUse" xlink:href="#linearGradient8190"/><linearGradient id="linearGradient6238"><stop id="stop6240" offset="0" style="stop-color:#ff8181;stop-opacity:1"/><stop id="stop6242" offset="1" style="stop-color:#d40000;stop-opacity:1"/></linearGradient><radialGradient id="radialGradient6244" cx="69.83" cy="61.52" r="39.414" fx="69.83" fy="61.52" gradientTransform="matrix(0.9999998,0,0,0.9615384,2.4039175e-5,3.5788906)" gradientUnits="userSpaceOnUse" xlink:href="#linearGradient6238"/><radialGradient id="radialGradient8668" cx="24.837" cy="36.421" r="15.645" fx="24.837" fy="36.421" gradientTransform="matrix(1,0,0,0.536723,0,16.87306)" gradientUnits="userSpaceOnUse" xlink:href="#linearGradient8662"/><linearGradient id="linearGradient8662"><stop style="stop-color:#000;stop-opacity:1" id="stop8664" offset="0"/><stop style="stop-color:#000;stop-opacity:0" id="stop8666" offset="1"/></linearGradient><linearGradient id="linearGradient2591"><stop id="stop2593" offset="0" style="stop-color:#73d216"/><stop id="stop2595" offset="1" style="stop-color:#4e9a06"/></linearGradient></defs><metadata id="metadata7"/><g id="layer1" transform="translate(0,-952.36218)"><path style="fill:#ccc;fill-opacity:1;stroke:#ccc;stroke-width:1px;stroke-linecap:butt;stroke-linejoin:miter;stroke-opacity:1;fill-rule:nonzero" id="path3769" d="M 50 15 L 10 85 L 80 85 L 50 15 z M 48 21 L 75 83 L 13 83 L 48 21 z" transform="translate(0,952.36218)"/></g><g id="layer2"><g id="layer1-5" transform="matrix(-1.183365,0,0,1.183365,94.107086,36.800238)"><path style="opacity:.29946522;color:#000;fill:url(#radialGradient8668);fill-opacity:1;fill-rule:evenodd;stroke:none;stroke-width:1;marker:none;visibility:visible;display:inline;overflow:visible" id="path8660" d="m 40.481863,36.421127 a 15.644737,8.3968935 0 1 1 -31.2894745,0 15.644737,8.3968935 0 1 1 31.2894745,0 z" transform="matrix(-1.271186,0,0,1.271186,55.025837,-15.10179)"/><path style="color:#000;fill:#fc0;fill-opacity:1;fill-rule:evenodd;stroke:#a80;stroke-width:1.00000036;stroke-linecap:round;stroke-linejoin:round;stroke-miterlimit:10;stroke-opacity:1;stroke-dasharray:none;stroke-dashoffset:0;marker:none;visibility:visible;display:inline;overflow:visible" id="path8643" d="m 38.352274,15.517348 0,16.99442 -12.983813,0 0,8.545038 L 5.4086259,24.150365 25.487271,7.1251168 l 0,8.3975352 12.865003,-0.0053 z"/><path style="opacity:.5080214;color:#000;fill:#a80;fill-opacity:1;fill-rule:evenodd;stroke:none;stroke-width:1;marker:none;visibility:visible;display:inline;overflow:visible" id="path8645" d="m 24.944076,8.2485033 0,7.8064747 12.81717,0 0,9.040713 c -17.75,2 -16.633537,-7.455288 -31.3835371,-0.955288 L 24.944076,8.2485033 z"/><path id="path8658" d="m 37.368759,16.561892 0,14.98444 -12.985367,0 0,7.395166 L 6.9053779,24.145807 24.399353,9.3654066 l 0,7.2013824 12.969406,-0.0049 z" style="opacity:.48128339;color:#000;fill:#fea;fill-opacity:1;fill-rule:evenodd;stroke:#fff;stroke-width:1.00000036;stroke-linecap:butt;stroke-linejoin:miter;stroke-miterlimit:10;stroke-opacity:1;stroke-dasharray:none;stroke-dashoffset:0;marker:none;visibility:visible;display:inline;overflow:visible"/></g></g></svg>