<svg xmlns="http://www.w3.org/2000/svg" xmlns:svg="http://www.w3.org/2000/svg" xmlns:xlink="http://www.w3.org/1999/xlink" id="svg11300" width="48" height="48" version="1.0"><defs id="defs3"><linearGradient id="linearGradient2591"><stop style="stop-color:#73d216" id="stop2593" offset="0"/><stop style="stop-color:#4e9a06" id="stop2595" offset="1"/></linearGradient><linearGradient id="linearGradient8662"><stop id="stop8664" offset="0" style="stop-color:#000;stop-opacity:1"/><stop id="stop8666" offset="1" style="stop-color:#000;stop-opacity:0"/></linearGradient><radialGradient id="radialGradient8668" cx="24.837" cy="36.421" r="15.645" fx="24.837" fy="36.421" gradientTransform="matrix(1,0,0,0.536723,0,16.87306)" gradientUnits="userSpaceOnUse" xlink:href="#linearGradient8662"/><radialGradient id="radialGradient6244" cx="69.83" cy="61.52" r="39.414" fx="69.83" fy="61.52" gradientTransform="matrix(0.9999998,0,0,0.9615384,2.4039175e-5,3.5788906)" gradientUnits="userSpaceOnUse" xlink:href="#linearGradient6238"/><linearGradient id="linearGradient6238"><stop style="stop-color:#ff8181;stop-opacity:1" id="stop6240" offset="0"/><stop style="stop-color:#d40000;stop-opacity:1" id="stop6242" offset="1"/></linearGradient><linearGradient id="linearGradient8196" x1="71.35" x2="71.35" y1="12.866" y2="70.948" gradientUnits="userSpaceOnUse" xlink:href="#linearGradient8190"/><linearGradient id="linearGradient8190"><stop style="stop-color:#fff;stop-opacity:1" id="stop8192" offset="0"/><stop style="stop-color:#fff;stop-opacity:0" id="stop8194" offset="1"/></linearGradient><linearGradient id="linearGradient7046" x1="56.25" x2="57" y1="48" y2="64.008" gradientTransform="translate(2.7519978,2.7519988)" gradientUnits="userSpaceOnUse" xlink:href="#linearGradient3152"/><linearGradient id="linearGradient3152"><stop style="stop-color:#d5d5d5;stop-opacity:1" id="stop3154" offset="0"/><stop id="stop7048" offset=".5" style="stop-color:#d5d5d5;stop-opacity:1"/><stop style="stop-color:#fff;stop-opacity:1" id="stop3156" offset="1"/></linearGradient></defs><metadata id="metadata4"/><g id="layer2"><rect style="fill:#000;stroke:#000;stroke-width:.80000001;stroke-opacity:1" id="rect3161" width="36.129" height="1.935" x="4.042" y="9.373"/><use id="use3177" width="48" height="48" x="0" y="0" transform="translate(-2.8387101e-8,7.7419358)" xlink:href="#rect3161"/><use id="use3179" width="48" height="48" x="0" y="0" transform="translate(-2.8387101e-8,15.483871)" xlink:href="#rect3161"/><use id="use3181" width="48" height="48" x="0" y="0" transform="translate(-2.8387101e-8,23.225807)" xlink:href="#rect3161"/></g><g id="layer1"><path id="path8660" d="m 40.481863,36.421127 a 15.644737,8.3968935 0 1 1 -31.2894745,0 15.644737,8.3968935 0 1 1 31.2894745,0 z" transform="matrix(1.0169488,0,0,1.0169488,5.2885592,-6.1081169)" style="opacity:.29946522;color:#000;fill:url(#radialGradient8668);fill-opacity:1;fill-rule:evenodd;stroke:none;stroke-width:1;marker:none;visibility:visible;display:inline;overflow:visible"/><path id="path8643" d="m 18.62741,18.387194 0,13.595536 10.38705,0 0,6.83603 15.967868,-13.525153 -16.062916,-13.620198 0,6.718028 -10.292002,-0.0042 z" style="color:#000;fill:#fc0;fill-opacity:1;fill-rule:evenodd;stroke:#a80;stroke-width:.80000031;stroke-linecap:round;stroke-linejoin:round;stroke-miterlimit:10;stroke-opacity:1;stroke-dasharray:none;stroke-dashoffset:0;marker:none;visibility:visible;display:inline;overflow:visible"/><path id="path8645" d="m 29.353968,12.572118 0,6.24518 -10.253736,0 0,7.23257 c 14.2,1.6 13.30683,-5.96423 25.10683,-0.76423 L 29.353968,12.572118 z" style="opacity:.5080214;color:#000;fill:#a80;fill-opacity:1;fill-rule:evenodd;stroke:none;stroke-width:1;marker:none;visibility:visible;display:inline;overflow:visible"/><path style="opacity:.48128339;color:#000;fill:#fea;fill-opacity:1;fill-rule:evenodd;stroke:#fff;stroke-width:.80000031;stroke-linecap:butt;stroke-linejoin:miter;stroke-miterlimit:10;stroke-opacity:1;stroke-dasharray:none;stroke-dashoffset:0;marker:none;visibility:visible;display:inline;overflow:visible" id="path8658" d="m 19.414222,19.222829 0,11.987552 10.388293,0 0,5.916133 13.982412,-11.836553 -13.99518,-11.82432 0,5.761105 -10.375525,-0.0039 z"/></g></svg>