<svg xmlns="http://www.w3.org/2000/svg" xmlns:svg="http://www.w3.org/2000/svg" id="svg3018" width="100" height="100" version="1.1"><defs id="defs3020"><marker style="overflow:visible" id="DotS" orient="auto" refX="0" refY="0"><path style="fill-rule:evenodd;stroke:red;stroke-width:1pt;stroke-opacity:1;fill:red;fill-opacity:1" id="path4603" d="M -2.5,-1.0 C -2.5,1.7600000 -4.7400000,4.0 -7.5,4.0 C -10.260000,4.0 -12.5,1.7600000 -12.5,-1.0 C -12.5,-3.7600000 -10.260000,-6.0 -7.5,-6.0 C -4.7400000,-6.0 -2.5,-3.7600000 -2.5,-1.0 z" transform="scale(0.2) translate(7.4, 1)"/></marker><marker style="overflow:visible" id="DotL" orient="auto" refX="0" refY="0"><path style="fill-rule:evenodd;stroke:red;stroke-width:1pt;stroke-opacity:1;fill:red;fill-opacity:1" id="path4597" d="M -2.5,-1.0 C -2.5,1.7600000 -4.7400000,4.0 -7.5,4.0 C -10.260000,4.0 -12.5,1.7600000 -12.5,-1.0 C -12.5,-3.7600000 -10.260000,-6.0 -7.5,-6.0 C -4.7400000,-6.0 -2.5,-3.7600000 -2.5,-1.0 z" transform="scale(0.8) translate(7.4, 1)"/></marker><clipPath id="presentation_clip_path" clipPathUnits="userSpaceOnUse"><rect id="rect7" width="21000" height="29700" x="0" y="0"/></clipPath></defs><metadata id="metadata3023"/><g id="layer1" transform="translate(0,-952.36218)"><g id="g15" class="com.sun.star.drawing.PolyPolygonShape" transform="matrix(0.08033005,0,0,0.08033005,-434.86051,486.09299)" style="visibility:visible;fill-rule:evenodd;stroke-width:12.44864178;stroke-linejoin:round;stroke-miterlimit:4;stroke-dasharray:none"><g id="flowRoot3779" transform="matrix(25.767073,0,0,31.330184,4729.6384,4000.8872)" style="font-style:normal;font-weight:400;font-size:40px;line-height:125%;font-family:Sans;letter-spacing:0;word-spacing:0;fill:#000;fill-opacity:1;stroke:#000;stroke-width:.99999994;stroke-miterlimit:4;stroke-dasharray:none;stroke-opacity:1"><text id="text3767" x="34.725" y="76.449" transform="scale(0.91421225,1.0938379)" xml:space="preserve" style="font-style:normal;font-weight:400;line-height:0%;font-family:sans-serif;letter-spacing:0;word-spacing:0;fill:#585858;fill-opacity:1;stroke:none"><tspan style="font-size:21.72788811px;line-height:1.25;font-family:sans-serif;fill:#585858;fill-opacity:1" id="tspan3769" x="34.725" y="76.449">%...</tspan></text><path id="path26" d="M 35.477033,63.860226 62.970292,86.572392" style="fill:none;fill-rule:evenodd;stroke:red;stroke-width:2.6288094;stroke-linecap:round;stroke-linejoin:miter;stroke-opacity:1;fill-opacity:1;stroke-miterlimit:4;stroke-dasharray:none"/></g></g></g></svg>