<svg xmlns="http://www.w3.org/2000/svg" xmlns:osb="http://www.openswatchbook.org/uri/2009/osb" xmlns:svg="http://www.w3.org/2000/svg" id="svg2" width="32" height="32" version="1.1"><defs id="defs4"><linearGradient id="linearGradient3757" osb:paint="solid"><stop style="stop-color:#000;stop-opacity:1" id="stop3759" offset="0"/></linearGradient></defs><metadata id="metadata7"/><g id="layer1" transform="translate(0,-1020.3622)"><g id="g3763" transform="translate(-8.2762213,6.31251)"><g id="text2985" style="font-size:40px;font-style:normal;font-variant:normal;font-weight:400;font-stretch:normal;text-align:start;line-height:125%;letter-spacing:0;word-spacing:0;writing-mode:lr-tb;text-anchor:start;fill:#fff;fill-opacity:1;stroke:gray;stroke-opacity:1;font-family:FreeSerif;-inkscape-font-specification:FreeSerif"><path style="fill:#fff;fill-opacity:1" id="path3816" d="m 24.02,1024.5423 c 2.559988,0 4.666652,0.8533 6.32,2.56 1.653316,1.7066 2.479982,3.8666 2.48,6.48 -1.8e-5,2.7733 -0.853351,5.0933 -2.56,6.96 -1.706681,1.8666 -3.813345,2.8 -6.32,2.8 -2.506674,0 -4.600005,-0.8934 -6.28,-2.68 -1.653335,-1.8134 -2.480001,-4.0667 -2.48,-6.76 -10e-7,-2.7467 0.813332,-4.9867 2.44,-6.72 1.653329,-1.76 3.78666,-2.64 6.4,-2.64 m -5.24,7.4 c -4e-6,2.8533 0.519995,5.28 1.56,7.28 1.039993,2 2.399992,3 4.08,3 1.493322,0 2.666654,-0.64 3.52,-1.92 0.853319,-1.28 1.279985,-3.0534 1.28,-5.32 -1.5e-5,-2.7467 -0.533348,-4.9867 -1.6,-6.72 -1.066679,-1.7334 -2.440011,-2.6 -4.12,-2.6 -1.413341,0 -2.560006,0.5733 -3.44,1.72 -0.853338,1.1466 -1.280004,2.6666 -1.28,4.56"/></g><rect id="rect5299" width="19.016" height="3.035" x="14.768" y="1016.757" style="fill:#fff;fill-opacity:1;stroke:gray;stroke-width:1;stroke-linecap:butt;stroke-linejoin:miter;stroke-miterlimit:2;stroke-opacity:1;stroke-dasharray:none"/></g></g></svg>