<svg xmlns="http://www.w3.org/2000/svg" xmlns:svg="http://www.w3.org/2000/svg" xmlns:xlink="http://www.w3.org/1999/xlink" id="svg3827" width="16" height="16" enable-background="new" version="1.1"><defs id="defs3829"><linearGradient id="linearGradient3853"><stop style="stop-color:#fff;stop-opacity:0" id="stop3855" offset="0"/><stop id="stop3861" offset=".5" style="stop-color:#e3e3e3;stop-opacity:.39664805"/><stop style="stop-color:#fff;stop-opacity:0" id="stop3857" offset="1"/></linearGradient><linearGradient id="linearGradient3859" x1="8.83" x2="3.199" y1="9.828" y2="2.71" gradientUnits="userSpaceOnUse" xlink:href="#linearGradient3853"/><filter id="filter3863"><feBlend id="feBlend3865" in2="BackgroundImage" mode="multiply"/></filter><linearGradient id="linearGradient3763" x1="8.83" x2="3.199" y1="9.828" y2="2.71" gradientUnits="userSpaceOnUse" xlink:href="#linearGradient3853"/><linearGradient id="linearGradient3784" x1="8.83" x2="3.199" y1="9.828" y2="2.71" gradientUnits="userSpaceOnUse" xlink:href="#linearGradient3853"/><linearGradient id="linearGradient3787" x1="8.83" x2="3.199" y1="9.828" y2="2.71" gradientUnits="userSpaceOnUse" xlink:href="#linearGradient3853"/><linearGradient id="linearGradient3793" x1="8.83" x2="3.199" y1="9.828" y2="2.71" gradientTransform="translate(17.137624,4.0356436)" gradientUnits="userSpaceOnUse" xlink:href="#linearGradient3853"/><linearGradient id="linearGradient3814" x1="8.83" x2="3.199" y1="9.828" y2="2.71" gradientTransform="translate(0.0126241,0.00439366)" gradientUnits="userSpaceOnUse" xlink:href="#linearGradient3853"/></defs><metadata id="metadata3832"/><g id="layer1" style="filter:url(#filter3863)"><path style="color:#000;fill:#4d4d4d;fill-opacity:1;fill-rule:nonzero;stroke:none;stroke-width:4;marker:none;visibility:visible;display:inline;overflow:visible;enable-background:accumulate" id="path3837" d="m 16.037624,7.9811878 a 8.0188122,8.0188122 0 1 1 -16.037624,0 8.0188122,8.0188122 0 1 1 16.037624,0 z" transform="matrix(0.93530062,0,0,0.93530062,0.5,0.53519008)"/><g style="font-size:15.3165617px;font-style:normal;font-variant:normal;font-weight:700;font-stretch:normal;text-align:start;line-height:125%;letter-spacing:0;word-spacing:0;writing-mode:lr-tb;text-anchor:start;fill:#ececec;fill-opacity:1;stroke:none;font-family:Aharoni;-inkscape-font-specification:Aharoni Bold" id="text3839"><path id="path3204" d="m 3.4042836,2.417083 4.7789467,0 c 1.4209625,1.11e-5 2.5103717,0.3166129 3.2682317,0.9498063 0.762826,0.6282279 1.144244,1.5256818 1.144254,2.6923643 -10e-6,1.1716835 -0.381428,2.0741232 -1.144254,2.707322 -0.75786,0.6282225 -1.8472692,0.9423314 -3.2682317,0.9423275 l -1.8996126,0 0,3.8740129 -2.8793341,0 0,-11.165833 m 2.8793341,2.0865823 0,3.1186554 1.5929823,0 c 0.5584098,6e-6 0.9896863,-0.1346121 1.2938306,-0.4038546 C 9.4745606,6.9442504 9.6266292,6.5578466 9.6266368,6.0592536 9.6266292,5.5606757 9.4745606,5.1767648 9.1704306,4.90752 8.8662863,4.6382925 8.4350098,4.5036744 7.8766,4.5036653 l -1.5929823,0"/></g><path style="color:#000;fill:url(#linearGradient3814);fill-opacity:1;fill-rule:nonzero;stroke:none;stroke-width:4;marker:none;visibility:visible;display:inline;overflow:visible;enable-background:accumulate" id="rect3851" d="m 8.0000001,0.50000005 c -4.142136,0 -7.5,3.35786435 -7.5,7.49999995 0,4.142136 3.357864,7.5 7.5,7.5 C 12.142136,15.5 15.5,12.142136 15.5,8.0000001 15.5,3.8578645 12.142136,0.50000005 8.0000001,0.50000005 z"/></g></svg>