<svg xmlns="http://www.w3.org/2000/svg" xmlns:svg="http://www.w3.org/2000/svg" xmlns:xlink="http://www.w3.org/1999/xlink" id="svg2" width="48" height="48" version="1.1"><defs id="defs4"><filter id="filter4787" color-interpolation-filters="sRGB"><feGaussianBlur id="feGaussianBlur4789" stdDeviation="2.268"/></filter><linearGradient id="linearGradient4215" x1="73.616" x2="73.944" y1="97.608" y2="138.208" gradientTransform="translate(-81.000004,-47.999997)" gradientUnits="userSpaceOnUse" xlink:href="#linearGradient3638"/><linearGradient id="linearGradient3638"><stop style="stop-color:#fff;stop-opacity:0" id="stop3640" offset="0"/><stop id="stop3661" offset=".069" style="stop-color:#fff;stop-opacity:1"/><stop id="stop3659" offset=".5" style="stop-color:#fff;stop-opacity:1"/><stop style="stop-color:#fff;stop-opacity:0" id="stop3642" offset="1"/></linearGradient><filter id="filter4253" width="1.047" height="1.936" x="-.024" y="-.468" color-interpolation-filters="sRGB"><feGaussianBlur id="feGaussianBlur4255" stdDeviation=".944"/></filter><linearGradient id="linearGradient3816" x1="28.365" x2="77.329" y1="12" y2="122.484" gradientTransform="matrix(0.2,0,0,0.2,10.199998,16.2)" gradientUnits="userSpaceOnUse" xlink:href="#linearGradient3368"/><linearGradient id="linearGradient3368" x1="28" x2="28" y1="57.5" y2="0" gradientUnits="userSpaceOnUse"><stop id="stop3370" offset="0" style="stop-color:#595959;stop-opacity:1"/><stop id="stop3372" offset="1" style="stop-color:#222;stop-opacity:1"/></linearGradient><linearGradient id="linearGradient3891" x1="-34.5" x2="-34.5" y1="-1.355" y2="-11.967" gradientTransform="matrix(0.2455636,0,0,0.2572864,31.471919,18.885428)" gradientUnits="userSpaceOnUse" xlink:href="#linearGradient3149"/><linearGradient id="linearGradient3149"><stop id="stop3151" offset="0" style="stop-color:#454545;stop-opacity:1"/><stop style="stop-color:#cacaca;stop-opacity:1" id="stop3920" offset=".483"/><stop id="stop3153" offset="1" style="stop-color:#f8f8f8;stop-opacity:1"/></linearGradient><linearGradient id="linearGradient4190" x1="79.587" x2="110.833" y1="-25.96" y2="90.65" gradientTransform="matrix(0.2,0,0,0.2,10.200475,16.2)" gradientUnits="userSpaceOnUse" xlink:href="#linearGradient2575"/><linearGradient id="linearGradient2575" x1="28" x2="28" y1="57.5" y2="0" gradientUnits="userSpaceOnUse"><stop style="stop-color:#474747;stop-opacity:1" id="stop2577" offset="0"/><stop style="stop-color:#000;stop-opacity:1" id="stop2579" offset="1"/></linearGradient><linearGradient id="linearGradient4648" x1="63.086" x2="63.086" y1="19.992" y2="13.937" gradientTransform="translate(-81,-41.4)" gradientUnits="userSpaceOnUse" xlink:href="#linearGradient4005"/><linearGradient id="linearGradient4005"><stop style="stop-color:#000;stop-opacity:1" id="stop4007" offset="0"/><stop style="stop-color:#000;stop-opacity:0" id="stop4009" offset="1"/></linearGradient><filter id="filter4033" width="1.072" height="1.503" x="-.036" y="-.252" color-interpolation-filters="sRGB"><feGaussianBlur id="feGaussianBlur4035" stdDeviation=".635"/></filter><linearGradient id="linearGradient4590" x1="56.828" x2="76.486" y1="-34.582" y2="38.821" gradientUnits="userSpaceOnUse" xlink:href="#linearGradient4077"/><linearGradient id="linearGradient4077"><stop style="stop-color:#000;stop-opacity:1" id="stop4079" offset="0"/><stop style="stop-color:#000;stop-opacity:0" id="stop4081" offset="1"/></linearGradient><mask id="mask4131" maskUnits="userSpaceOnUse"><rect style="fill:url(#linearGradient4135);fill-opacity:1;stroke:none" id="rect4133" width="65.186" height="28.561" x="-101.647" y="10.285" transform="matrix(-1,0,-0.3481553,0.9374369,0,0)"/></mask><linearGradient id="linearGradient4135" x1="56.624" x2="101.647" y1="21.105" y2="21.382" gradientTransform="matrix(1,0,0,1.1489125,-138.10679,0)" gradientUnits="userSpaceOnUse" xlink:href="#linearGradient3235"/><linearGradient id="linearGradient3235"><stop id="stop3237" offset="0" style="stop-color:#fff;stop-opacity:1"/><stop id="stop3239" offset="1" style="stop-color:#fff;stop-opacity:0"/></linearGradient><filter id="filter3346" width="1.082" height="1.236" x="-.041" y="-.118" color-interpolation-filters="sRGB"><feGaussianBlur id="feGaussianBlur3348" stdDeviation=".905"/></filter><filter id="filter3396" color-interpolation-filters="sRGB"><feGaussianBlur id="feGaussianBlur3398" stdDeviation=".195"/></filter><linearGradient id="linearGradient4194" x1="79.587" x2="110.833" y1="-25.96" y2="90.65" gradientTransform="matrix(-0.2,0,0,0.2,35.799301,16.2)" gradientUnits="userSpaceOnUse" xlink:href="#linearGradient2575"/><linearGradient id="linearGradient6034" x1="28" x2="28" y1="57.5" y2="0" gradientUnits="userSpaceOnUse"><stop style="stop-color:#474747;stop-opacity:1" id="stop6036" offset="0"/><stop style="stop-color:#000;stop-opacity:1" id="stop6038" offset="1"/></linearGradient><linearGradient id="linearGradient3406" x1="88.967" x2="-36.419" y1="5.746" y2="5.746" gradientTransform="matrix(0.2,0,0,0.2,11.799999,16.2)" gradientUnits="userSpaceOnUse" xlink:href="#linearGradient3400"/><linearGradient id="linearGradient3400"><stop style="stop-color:#fff;stop-opacity:1" id="stop3402" offset="0"/><stop style="stop-color:#fff;stop-opacity:0" id="stop3404" offset="1"/></linearGradient><linearGradient id="linearGradient3884" x1="58.074" x2="58.074" y1="5.507" y2="12.045" gradientTransform="matrix(0.22222234,0,0,0.32,9.222219,16.036826)" gradientUnits="userSpaceOnUse" spreadMethod="reflect" xlink:href="#linearGradient3149"/><linearGradient id="linearGradient6045"><stop id="stop6047" offset="0" style="stop-color:#454545;stop-opacity:1"/><stop style="stop-color:#cacaca;stop-opacity:1" id="stop6049" offset=".483"/><stop id="stop6051" offset="1" style="stop-color:#f8f8f8;stop-opacity:1"/></linearGradient><linearGradient id="linearGradient3931" x1="48.614" x2="84" y1="10.752" y2="10.752" gradientTransform="matrix(1.1303775,0,0,1,-91.951707,-47.5)" gradientUnits="userSpaceOnUse" xlink:href="#linearGradient3235"/><filter id="filter3999" width="1.038" height="1.688" x="-.019" y="-.344" color-interpolation-filters="sRGB"><feGaussianBlur id="feGaussianBlur4001" stdDeviation=".316"/></filter><linearGradient id="linearGradient4147" x1="48.461" x2="75.13" y1="1.356" y2="1.356" gradientTransform="translate(-80.8,-45.7)" gradientUnits="userSpaceOnUse" xlink:href="#linearGradient3235"/><filter id="filter4177" width="1.029" height="1.399" x="-.014" y="-.199" color-interpolation-filters="sRGB"><feGaussianBlur id="feGaussianBlur4179" stdDeviation=".161"/></filter><radialGradient id="radialGradient4855" cx="102" cy="112.305" r="139.559" gradientTransform="matrix(0.2,0,0,0.2,13.4,17)" gradientUnits="userSpaceOnUse" xlink:href="#XMLID_7_"/><radialGradient id="XMLID_7_" cx="102" cy="112.305" r="139.559" gradientUnits="userSpaceOnUse"><stop style="stop-color:#3e3e3e;stop-opacity:1" id="stop16" offset="0"/><stop style="stop-color:#dfdfdf;stop-opacity:1" id="stop26" offset=".174"/><stop style="stop-color:#ecf2f5" id="stop28" offset=".21"/><stop style="stop-color:#fafcfd" id="stop30" offset=".243"/><stop style="stop-color:#fff" id="stop32" offset=".272"/></radialGradient><radialGradient id="radialGradient4852" cx="102" cy="112.305" r="139.559" gradientTransform="matrix(0.2,0,0,0.2,13.4,17)" gradientUnits="userSpaceOnUse" xlink:href="#XMLID_8_"/><radialGradient id="XMLID_8_" cx="102" cy="112.305" r="139.559" gradientUnits="userSpaceOnUse"><stop style="stop-color:#535557" id="stop37" offset="0"/><stop style="stop-color:#898a8c" id="stop41" offset=".114"/><stop style="stop-color:#ececec" id="stop47" offset=".203"/><stop style="stop-color:#fafafa" id="stop49" offset=".236"/><stop style="stop-color:#fff" id="stop51" offset=".272"/><stop style="stop-color:#fafafa" id="stop53" offset=".531"/><stop style="stop-color:#ebecec" id="stop55" offset=".845"/><stop style="stop-color:#e1e2e3" id="stop57" offset="1"/></radialGradient><linearGradient id="linearGradient4849" x1="94.344" x2="86.536" y1="102.345" y2="94.537" gradientTransform="matrix(0.2,0,0,0.2,13.4,17)" gradientUnits="userSpaceOnUse" xlink:href="#XMLID_9_"/><linearGradient id="XMLID_9_" x1="94.344" x2="86.536" y1="102.345" y2="94.537" gradientUnits="userSpaceOnUse"><stop style="stop-color:#fff" id="stop62" offset="0"/><stop style="stop-color:#555753" id="stop64" offset="1"/></linearGradient><linearGradient id="linearGradient4846" x1="95" x2="86.587" y1="103" y2="94.587" gradientTransform="matrix(0.2,0,0,0.2,13.4,17)" gradientUnits="userSpaceOnUse" xlink:href="#XMLID_10_"/><linearGradient id="XMLID_10_" x1="95" x2="86.587" y1="103" y2="94.587" gradientUnits="userSpaceOnUse"><stop style="stop-color:#fff" id="stop69" offset="0"/><stop style="stop-color:#555753" id="stop71" offset="1"/></linearGradient><linearGradient id="linearGradient4843" x1="95" x2="87.293" y1="103" y2="95.293" gradientTransform="matrix(0.2,0,0,0.2,13.4,17)" gradientUnits="userSpaceOnUse" xlink:href="#XMLID_11_"/><linearGradient id="XMLID_11_" x1="95" x2="87.293" y1="103" y2="95.293" gradientUnits="userSpaceOnUse"><stop style="stop-color:#fff" id="stop76" offset="0"/><stop style="stop-color:#393b38" id="stop78" offset="1"/></linearGradient><linearGradient id="linearGradient4840" x1="96" x2="88" y1="104" y2="96" gradientTransform="matrix(0.2,0,0,0.2,13.4,17)" gradientUnits="userSpaceOnUse" xlink:href="#XMLID_12_"/><linearGradient id="XMLID_12_" x1="96" x2="88" y1="104" y2="96" gradientUnits="userSpaceOnUse"><stop style="stop-color:#888a85" id="stop83" offset="0"/><stop style="stop-color:#8c8e89" id="stop85" offset=".007"/><stop style="stop-color:#abaca9" id="stop87" offset=".067"/><stop style="stop-color:#c5c6c4" id="stop89" offset=".135"/><stop style="stop-color:#dbdbda" id="stop91" offset=".211"/><stop style="stop-color:#ebebeb" id="stop93" offset=".301"/><stop style="stop-color:#f7f7f6" id="stop95" offset=".412"/><stop style="stop-color:#fdfdfd" id="stop97" offset=".568"/><stop style="stop-color:#fff" id="stop99" offset="1"/></linearGradient><linearGradient id="linearGradient4817" x1="50.76" x2="50.76" y1="-2.136" y2="1.395" gradientTransform="matrix(0.2,0,0,0.2,11.799999,16.2)" gradientUnits="userSpaceOnUse" xlink:href="#linearGradient4811"/><linearGradient id="linearGradient4811"><stop style="stop-color:#000;stop-opacity:1" id="stop4813" offset="0"/><stop style="stop-color:#000;stop-opacity:0" id="stop4815" offset="1"/></linearGradient></defs><metadata id="metadata7"/><g id="layer2"><rect style="fill:#0f0;stroke:#666;stroke-width:1;stroke-linecap:round;stroke-linejoin:bevel;stroke-miterlimit:1;stroke-opacity:1;stroke-dasharray:none" id="rect3012" width="17" height="42" x="7" y="3"/></g><g id="layer1" transform="translate(0,-1004.3622)"><path style="fill:none;stroke:#666;stroke-width:1px;stroke-linecap:butt;stroke-linejoin:miter;stroke-opacity:1" id="path2987" d="m 1,3 46,0 0,0 0,0 0,0" transform="translate(0,1004.3622)"/><use id="use2989" width="48" height="48" x="0" y="0" xlink:href="#path2987" style="stroke:#666"/><use id="use2991" width="48" height="48" x="0" y="0" transform="translate(0,6)" xlink:href="#use2989" style="stroke:#666"/><use id="use2993" width="48" height="48" x="0" y="0" transform="translate(0,12)" xlink:href="#use2989" style="stroke:#666"/><use id="use2995" width="48" height="48" x="0" y="0" transform="translate(0,18)" xlink:href="#use2989" style="stroke:#666"/><use id="use2997" width="48" height="48" x="0" y="0" transform="translate(0,24)" xlink:href="#use2989" style="stroke:#666"/><use id="use2999" width="48" height="48" x="0" y="0" transform="translate(0,30)" xlink:href="#use2989" style="stroke:#666"/><use id="use3001" width="48" height="48" x="0" y="0" transform="translate(0,36)" xlink:href="#use2989" style="stroke:#666"/><use id="use3003" width="48" height="48" x="0" y="0" transform="translate(0,42)" xlink:href="#use2989" style="stroke:#666"/><path style="fill:none;stroke:#666;stroke-width:1px;stroke-linecap:butt;stroke-linejoin:miter;stroke-opacity:1" id="path3005" d="M 7,3 7,45" transform="translate(0,1004.3622)"/><path id="path3007" d="m 24,1007.3622 0,42" style="fill:none;stroke:#666;stroke-width:1px;stroke-linecap:butt;stroke-linejoin:miter;stroke-opacity:1"/><path style="fill:none;stroke:#666;stroke-width:1px;stroke-linecap:butt;stroke-linejoin:miter;stroke-opacity:1" id="path3009" d="m 41,1007.3622 0,42"/></g><g id="layer4"><path style="opacity:.7715356;fill:none;stroke:#000;stroke-width:1;stroke-linejoin:round;stroke-miterlimit:4;stroke-opacity:1;stroke-dasharray:none;filter:url(#filter4787)" id="path4749" d="m -31.999997,-15 0,90 c 0,1.104 0.896,2 2,2 l 42.1875,0 c 0.53,0 1.03125,-0.21875 1.40625,-0.59375 0,0 11.90625,-9.90625 17.406247,-15.40625 5.499998,-5.5 15.406248,-17.40625 15.406248,-17.40625 0.375,-0.374999 0.59375,-0.87625 0.59375,-1.40625 l 0,-57.1875 -78.999995,0 z" transform="matrix(0.2,0,0,0.2,26.399999,25.6)"/><path id="path4213" d="m -65,67.15625 0,1 C -65,70.28318 -63.28319,72 -61.15625,72 l 88.3125,0 C 29.28318,72 31,70.28318 31,68.15625 l 0,-1 C 31,69.28318 29.28318,71 27.15625,71 l -88.3125,0 C -63.28319,71 -65,69.28318 -65,67.15625 z" transform="matrix(0.2,0,0,0.2,26.399999,25.6)" style="fill:url(#linearGradient4215);fill-opacity:1;stroke:none;filter:url(#filter4253)"/><rect style="opacity:.57786889;fill:#fff;fill-opacity:1;fill-rule:nonzero;stroke:none" id="rect1327" width=".2" height="0" x="23.8" y="-.4"/><path style="fill:url(#linearGradient3816);fill-opacity:1;stroke:none" id="rect2834" d="m 15.106249,18.6 c -0.945664,0 -1.70625,0.760587 -1.70625,1.70625 l 0,19.125 c 0,0.425386 0.343362,0.76875 0.76875,0.76875 l 17.6625,0 c 0.425386,0 0.76875,-0.343364 0.76875,-0.76875 l 0,-19.125 c 0,-0.945663 -0.760588,-1.70625 -1.70625,-1.70625 l -15.7875,0 z"/><path style="fill:url(#linearGradient3891);fill-opacity:1;fill-rule:nonzero;stroke:none" id="rect3276" d="m 19.799999,16.2 0.752039,3.2 1.21247,0 2.470983,0 1.21247,0 0.752038,-3.2 -2.716547,0 -0.966906,0 -2.716547,0 z"/><path style="fill:url(#linearGradient4190);fill-opacity:1;stroke:none" id="path4181" d="m 30.694223,18.6 c 0.945662,0 1.706252,0.760587 1.70625,1.70625 l 0,19.125 c 0,0.425386 -0.343362,0.76875 -0.76875,0.76875 l 0.2,0 c 0.425388,0 0.76875,-0.343364 0.76875,-0.76875 l 0,-19.125 C 32.600475,19.360587 31.839885,18.6 30.894223,18.6 l -0.2,0 z"/><rect style="opacity:.47191013;fill:url(#linearGradient4648);fill-opacity:1;stroke:none;filter:url(#filter4033)" id="rect4003" width="42.383" height="6.055" x="-38.031" y="-27.462" rx="1.563" ry="1.563" transform="matrix(0.2,0,0,0.2,26.399999,25.6)"/><path style="opacity:.54681648;fill:url(#linearGradient4590);fill-opacity:1;stroke:none;filter:url(#filter3346)" id="rect4075" d="m 36.111931,14.503877 46.901066,-0.594982 c 0.714581,1.847579 1.54353,5.059787 -3.811747,16.957014 l -43.089319,1.487455 0,-17.849487 z" mask="url(#mask4131)" transform="matrix(0.2,0,0.07427814,0.18569534,10.199999,16.2)"/><path style="opacity:.5955056;fill:#000;fill-opacity:1;stroke:none;filter:url(#filter3396)" id="path3374" d="m -56.343747,-34.9 c -4.72833,0 -8.5625,3.802937 -8.5625,8.53125 l 0,1 c 0,-4.728313 3.83417,-8.53125 8.5625,-8.53125 l 78.706247,0 c 4.72831,0 8.53125,3.802937 8.53125,8.53125 l 0,-1 c 0,-4.728313 -3.80294,-8.53125 -8.53125,-8.53125 l -78.706247,0 z" transform="matrix(0.2,0,0,0.2,26.399999,25.6)"/><path id="path4192" d="m 15.305552,18.6 c -0.945662,0 -1.706252,0.760587 -1.70625,1.70625 l 0,19.125 c 0,0.425386 0.343362,0.76875 0.76875,0.76875 l -0.2,0 c -0.425388,0 -0.76875,-0.343364 -0.76875,-0.76875 l 0,-19.125 C 13.3993,19.360587 14.15989,18.6 15.105552,18.6 l 0.2,0 z" style="fill:url(#linearGradient4194);fill-opacity:1;stroke:none"/><path id="path4819" d="m 15.25125,18.82 c -0.945666,0 -1.7125,0.760587 -1.7125,1.70625 l 0,0.2 c 0,-0.945663 0.766834,-1.70625 1.7125,-1.70625 l 15.501249,0 c 0.945662,0 1.70625,0.760587 1.70625,1.70625 l 0,-0.2 c 0,-0.945663 -0.760588,-1.70625 -1.70625,-1.70625 l -15.501249,0 z" style="opacity:.78277151;fill:url(#linearGradient3406);fill-opacity:1;stroke:none"/><rect style="fill:url(#linearGradient3884);fill-opacity:1;fill-rule:nonzero;stroke:none" id="rect3259" width="8" height="3.2" x="19" y="17.8"/><rect style="fill:url(#linearGradient3931);fill-opacity:1;stroke:none;filter:url(#filter3999)" id="rect3922" width="40" height="2.205" x="-37" y="-37.705" rx="0" ry="0" transform="matrix(0.2,0,0,0.2,26.399999,25.6)"/><path style="opacity:.77902623;fill:url(#linearGradient4147);fill-opacity:1;stroke:none;filter:url(#filter4177)" id="rect4138" d="m -32.338835,-45.310674 26.6689314,0 0,1.933495 -26.1318224,0 -0.537109,-1.933495 z" transform="matrix(0.2,0,0,0.2,26.399999,25.6)"/><path style="fill:#000;fill-opacity:1;stroke:none" id="path4196" d="m 13.399999,39.23125 0,0.2 c 0,0.425386 0.343362,0.76875 0.76875,0.76875 l 17.6625,0 c 0.425386,0 0.76875,-0.343364 0.76875,-0.76875 l 0,-0.2 c 0,0.425386 -0.343364,0.76875 -0.76875,0.76875 l -17.6625,0 c -0.425388,0 -0.76875,-0.343364 -0.76875,-0.76875 z"/><path id="path2260" d="m 19.84,22.66 0,17.94 c 0,0.2208 0.1792,0.4 0.4,0.4 l 8.5975,0 c 0.106,0 0.20625,-0.04375 0.28125,-0.11875 0,0 2.38125,-1.98125 3.481249,-3.08125 1.1,-1.1 3.08125,-3.48125 3.08125,-3.48125 0.075,-0.075 0.11875,-0.17525 0.11875,-0.28125 l 0,-11.3775 -15.959999,0 z" style="opacity:.55805209;fill:none;stroke:#000;stroke-width:.2;stroke-linejoin:round;stroke-miterlimit:4;stroke-opacity:1;stroke-dasharray:none"/><path id="path2262" d="m 19.8,22.6 0,18 c 0,0.2208 0.1792,0.4 0.4,0.4 l 8.6344,0 c 0.106,0 0.2078,-0.0422 0.2828,-0.1172 l 6.565599,-6.5656 c 0.075,-0.075 0.1172,-0.1768 0.1172,-0.2828 l 0,-11.4344 L 19.8,22.6 z" style="fill:url(#radialGradient4855)"/><path id="path2264" d="M 20.2,22.8 C 20.0898,22.8 20,22.8898 20,23 l 0,17.6 c 0,0.1104 0.0898,0.2 0.2,0.2 l 8.8344,0 c 0.0526,0 0.1042,-0.0212 0.1414,-0.0586 l 6.365599,-6.3656 c 0.0374,-0.0374 0.0586,-0.0888 0.0586,-0.1414 l 0,-11.2344 c 0,-0.1102 -0.0896,-0.2 -0.2,-0.2 L 20.2,22.8 z" style="fill:url(#radialGradient4852);fill-opacity:1"/><path style="opacity:.15;fill:url(#linearGradient4849)" id="path2266" d="m 35.682799,34.3172 c 0.05,-0.05 -3.6758,1.2828 -4.682799,1.2828 -0.3308,0 -0.6,0.2692 -0.6,0.6 0,1.007 -1.3328,4.7328 -1.2828,4.6828 l 6.565599,-6.5656 z"/><path style="opacity:.2;fill:url(#linearGradient4846)" id="path2268" d="M 35.682799,34.3172 C 35.757799,34.2422 32.888799,35.8 31,35.8 c -0.2206,0 -0.4,0.1794 -0.4,0.4 0,1.8888 -1.5578,4.7578 -1.4828,4.6828 l 6.565599,-6.5656 z"/><path style="opacity:.25;fill:url(#linearGradient4843)" id="path2270" d="M 35.682799,34.3172 C 35.730599,34.2694 32.961399,36 31,36 c -0.1106,0 -0.2,0.0894 -0.2,0.2 0,1.9614 -1.7306,4.7306 -1.6828,4.6828 l 6.565599,-6.5656 z"/><path style="fill:url(#linearGradient4840)" id="path2272" d="m 29.1172,40.8828 c 0,0 2.3828,-1.9828 3.482799,-3.0828 1.1,-1.1 3.0828,-3.4828 3.0828,-3.4828 0,0 -2.6328,1.873424 -4.682799,1.873424 0,2.050002 -1.8828,4.692176 -1.8828,4.692176 z"/><path id="path4809" d="m 19.799999,16.2 0.752039,3.2 1.21247,0 2.470983,0 1.21247,0 0.752038,-3.2 -2.716547,0 -0.966906,0 -2.716547,0 z" style="fill:url(#linearGradient4817);fill-opacity:1;fill-rule:nonzero;stroke:none"/></g></svg>