<svg xmlns="http://www.w3.org/2000/svg" xmlns:svg="http://www.w3.org/2000/svg" xmlns:xlink="http://www.w3.org/1999/xlink" id="svg2" width="48" height="48" version="1.1"><metadata id="metadata7"/><g id="layer2"><rect style="fill:red;stroke:#0f0;stroke-width:0;stroke-linecap:butt;stroke-linejoin:bevel;stroke-miterlimit:1;stroke-opacity:1;stroke-dasharray:none" id="rect3012" width="46" height="6" x="1" y="15"/></g><g id="layer1" transform="translate(0,-1004.3622)"><path style="fill:none;stroke:#666;stroke-width:1px;stroke-linecap:butt;stroke-linejoin:miter;stroke-opacity:1" id="path2987" d="m 1,3 46,0 0,0 0,0 0,0" transform="translate(0,1004.3622)"/><use id="use2989" width="48" height="48" x="0" y="0" xlink:href="#path2987" style="stroke:#666"/><use id="use2991" width="48" height="48" x="0" y="0" transform="translate(0,6)" xlink:href="#use2989" style="stroke:#666"/><use id="use2993" width="48" height="48" x="0" y="0" transform="translate(0,12)" xlink:href="#use2989" style="stroke:#666"/><use id="use2995" width="48" height="48" x="0" y="0" transform="translate(0,18)" xlink:href="#use2989" style="stroke:#666"/><use id="use2997" width="48" height="48" x="0" y="0" transform="translate(0,24)" xlink:href="#use2989" style="stroke:#666"/><use id="use2999" width="48" height="48" x="0" y="0" transform="translate(0,30)" xlink:href="#use2989" style="stroke:#666"/><use id="use3001" width="48" height="48" x="0" y="0" transform="translate(0,36)" xlink:href="#use2989" style="stroke:#666"/><use id="use3003" width="48" height="48" x="0" y="0" transform="translate(0,42)" xlink:href="#use2989" style="stroke:#666"/><path style="fill:none;stroke:#666;stroke-width:1px;stroke-linecap:butt;stroke-linejoin:miter;stroke-opacity:1" id="path3005" d="M 7,3 7,45" transform="translate(0,1004.3622)"/><path id="path3007" d="m 24,1007.3622 0,42" style="fill:none;stroke:#666;stroke-width:1px;stroke-linecap:butt;stroke-linejoin:miter;stroke-opacity:1"/><path style="fill:none;stroke:#666;stroke-width:1px;stroke-linecap:butt;stroke-linejoin:miter;stroke-opacity:1" id="path3009" d="m 41,1007.3622 0,42"/></g></svg>