<svg xmlns="http://www.w3.org/2000/svg" xmlns:svg="http://www.w3.org/2000/svg" xmlns:xlink="http://www.w3.org/1999/xlink" id="svg2" width="128" height="140" version="1.0"><defs id="defs4"><linearGradient id="linearGradient3327"><stop style="stop-color:#fff;stop-opacity:1" id="stop3329" offset="0"/><stop style="stop-color:#fff;stop-opacity:0" id="stop3331" offset="1"/></linearGradient><linearGradient id="linearGradient4150"><stop style="stop-color:#dfdfdf;stop-opacity:1" id="stop4152" offset="0"/><stop style="stop-color:#dfdfdf;stop-opacity:0" id="stop4154" offset="1"/></linearGradient><linearGradient id="linearGradient3409"><stop style="stop-color:#fff;stop-opacity:1" id="stop3411" offset="0"/><stop style="stop-color:#fff;stop-opacity:0" id="stop3413" offset="1"/></linearGradient><linearGradient id="linearGradient3362"><stop id="stop3364" offset="0" style="stop-color:#dfdfdf;stop-opacity:1"/><stop id="stop3366" offset="1" style="stop-color:#dfdfdf;stop-opacity:0"/></linearGradient><linearGradient id="linearGradient3355"><stop id="stop3357" offset="0" style="stop-color:#efefef;stop-opacity:1"/><stop id="stop3359" offset="1" style="stop-color:#dfdfdf;stop-opacity:0"/></linearGradient><linearGradient id="linearGradient3349"><stop id="stop3351" offset="0" style="stop-color:#6e6e6e;stop-opacity:1"/><stop id="stop3353" offset="1" style="stop-color:#070707;stop-opacity:1"/></linearGradient><linearGradient id="linearGradient3342"><stop style="stop-color:#7f7f7f;stop-opacity:1" id="stop3344" offset="0"/><stop style="stop-color:#262626;stop-opacity:1" id="stop3346" offset="1"/></linearGradient><linearGradient id="linearGradient3710"><stop style="stop-color:#fff;stop-opacity:1" id="stop3712" offset="0"/><stop style="stop-color:#fff;stop-opacity:0" id="stop3714" offset="1"/></linearGradient><linearGradient id="linearGradient3689"><stop id="stop3691" offset="0" style="stop-color:#bfbfbf;stop-opacity:1"/><stop id="stop3693" offset="1" style="stop-color:#bfbfbf;stop-opacity:0"/></linearGradient><linearGradient id="linearGradient3669"><stop style="stop-color:#fff;stop-opacity:1" id="stop3671" offset="0"/><stop style="stop-color:#fff;stop-opacity:0" id="stop3673" offset="1"/></linearGradient><linearGradient id="linearGradient3511"><stop style="stop-color:#151515;stop-opacity:1" id="stop3513" offset="0"/><stop style="stop-color:#151515;stop-opacity:0" id="stop3515" offset="1"/></linearGradient><radialGradient id="radialGradient2854" cx="538.773" cy="651.104" r="126.023" gradientTransform="translate(-484,-674)" gradientUnits="userSpaceOnUse"><stop style="stop-color:#cbcbcb;stop-opacity:1" id="stop2856" offset="0"/><stop style="stop-color:#282828;stop-opacity:1" id="stop2858" offset=".539"/><stop style="stop-color:#9d9d9d;stop-opacity:1" id="stop2860" offset="1"/></radialGradient><linearGradient id="linearGradient2862" x1="538.773" x2="538.773" y1="677.877" y2="789.122" gradientTransform="translate(-484,-674)" gradientUnits="userSpaceOnUse"><stop style="stop-color:#4d4d4d;stop-opacity:1" id="stop2864" offset=".006"/><stop style="stop-color:#676767;stop-opacity:1" id="stop2866" offset=".135"/><stop style="stop-color:#b2b2b2;stop-opacity:1" id="stop2868" offset=".483"/><stop style="stop-color:#aaa;stop-opacity:1" id="stop2870" offset=".63"/><stop style="stop-color:#a1a1a1;stop-opacity:1" id="stop2872" offset=".853"/><stop style="stop-color:#9d9d9d;stop-opacity:1" id="stop2874" offset="1"/></linearGradient><radialGradient id="radialGradient2876" cx="538.773" cy="792.996" r="121.547" gradientTransform="translate(-484,-674)" gradientUnits="userSpaceOnUse"><stop style="stop-color:#d9d9d9;stop-opacity:1" id="stop2878" offset="0"/><stop style="stop-color:#c7c7c7;stop-opacity:1" id="stop2880" offset=".049"/><stop style="stop-color:#b9b9b9;stop-opacity:1" id="stop2882" offset=".105"/><stop style="stop-color:#aeaeae;stop-opacity:1" id="stop2884" offset=".143"/><stop style="stop-color:#a9a9a9;stop-opacity:1" id="stop2886" offset=".216"/><stop style="stop-color:#a6a6a6;stop-opacity:1" id="stop2888" offset=".27"/><stop style="stop-color:#676767;stop-opacity:1" id="stop2890" offset=".399"/><stop style="stop-color:#676767;stop-opacity:1" id="stop2892" offset=".4"/><stop style="stop-color:#545454;stop-opacity:1" id="stop2894" offset=".448"/><stop style="stop-color:#414141;stop-opacity:1" id="stop2896" offset=".496"/><stop style="stop-color:#353535;stop-opacity:1" id="stop2898" offset=".54"/><stop style="stop-color:#313131;stop-opacity:1" id="stop2900" offset=".571"/><stop style="stop-color:#3e3e3e;stop-opacity:1" id="stop2902" offset=".595"/><stop style="stop-color:#5f5f5f;stop-opacity:1" id="stop2904" offset=".646"/><stop style="stop-color:#707070;stop-opacity:1" id="stop2906" offset=".693"/><stop style="stop-color:#7b7b7b;stop-opacity:1" id="stop2908" offset=".736"/><stop style="stop-color:#7f7f7f;stop-opacity:1" id="stop2910" offset=".77"/><stop style="stop-color:#313131;stop-opacity:1" id="stop2912" offset="1"/></radialGradient><linearGradient id="linearGradient2914" x1="538.773" x2="538.773" y1="793" y2="674" gradientTransform="translate(-484,-674)" gradientUnits="userSpaceOnUse"><stop style="stop-color:#262626;stop-opacity:1" id="stop2916" offset="0"/><stop style="stop-color:#313131;stop-opacity:1" id="stop2918" offset=".112"/><stop style="stop-color:#4d4d4d;stop-opacity:1" id="stop2920" offset=".375"/><stop style="stop-color:#505050;stop-opacity:1" id="stop2922" offset=".423"/><stop style="stop-color:#575757;stop-opacity:1" id="stop2924" offset=".437"/><stop style="stop-color:#646464;stop-opacity:1" id="stop2926" offset=".449"/><stop style="stop-color:#757575;stop-opacity:1" id="stop2928" offset=".461"/><stop style="stop-color:#8a8a8a;stop-opacity:1" id="stop2930" offset=".471"/><stop style="stop-color:#a3a3a3;stop-opacity:1" id="stop2932" offset=".481"/><stop style="stop-color:silver;stop-opacity:1" id="stop2934" offset=".491"/><stop style="stop-color:#dfdfdf;stop-opacity:1" id="stop2936" offset=".494"/><stop style="stop-color:#afafaf;stop-opacity:1" id="stop2938" offset=".517"/><stop style="stop-color:#949494;stop-opacity:1" id="stop2940" offset=".533"/><stop style="stop-color:#7c7c7c;stop-opacity:1" id="stop2942" offset=".555"/><stop style="stop-color:#656565;stop-opacity:1" id="stop2944" offset=".585"/><stop style="stop-color:#525252;stop-opacity:1" id="stop2946" offset=".609"/><stop style="stop-color:#434343;stop-opacity:1" id="stop2948" offset=".642"/><stop style="stop-color:#393939;stop-opacity:1" id="stop2951" offset=".693"/><stop style="stop-color:#333;stop-opacity:1" id="stop2953" offset=".74"/><stop style="stop-color:#313131;stop-opacity:1" id="stop2955" offset=".899"/><stop style="stop-color:#a6a6a6;stop-opacity:1" id="stop2957" offset="1"/></linearGradient><radialGradient id="path2295_1_" cx="265.393" cy="-6078.353" r="253.019" fx="369.524" fy="-6078.353" gradientTransform="matrix(0.183616,0,0,-0.01462967,-0.962917,-7.25873)" gradientUnits="userSpaceOnUse"><stop style="stop-color:#000;stop-opacity:1" id="stop8" offset="0"/><stop style="stop-color:#fff;stop-opacity:1" id="stop10" offset="1"/></radialGradient><linearGradient id="linearGradient4009" x1="71.626" x2="46.226" y1="123.739" y2="28.943" gradientTransform="translate(-28,0)" gradientUnits="userSpaceOnUse" xlink:href="#linearGradient3342"/><radialGradient id="radialGradient4011" cx="71.775" cy="16.087" r="3.156" fx="71.775" fy="16.087" gradientTransform="matrix(0.9650814,0.2619502,-0.9201984,3.3902106,-6.690938,-57.693239)" gradientUnits="userSpaceOnUse" xlink:href="#linearGradient3669"/><linearGradient id="linearGradient4013" x1="96.373" x2="96.373" y1="120.428" y2="46.09" gradientTransform="translate(-24,0)" gradientUnits="userSpaceOnUse" xlink:href="#linearGradient3511"/><radialGradient id="radialGradient4017" cx="11.578" cy="64.531" r="3.578" fx="11.578" fy="64.531" gradientTransform="matrix(6.5079869,0,0,1.510917,-63.772161,-32.970115)" gradientUnits="userSpaceOnUse" xlink:href="#linearGradient3710"/><radialGradient id="radialGradient4019" cx="53.63" cy="79.056" r="50" fx="57.059" fy="91.805" gradientTransform="matrix(1.4429896,7.9739349e-8,-7.654978e-8,1.3852701,-54.365246,-31.441692)" gradientUnits="userSpaceOnUse" xlink:href="#linearGradient3349"/><linearGradient id="linearGradient4021" x1="91.785" x2="91.993" y1="112.5" y2="44.287" gradientTransform="translate(-24,0)" gradientUnits="userSpaceOnUse" xlink:href="#linearGradient3355"/><linearGradient id="linearGradient4023" x1="62" x2="87.011" y1="12.9" y2="69.693" gradientTransform="translate(-44,0)" gradientUnits="userSpaceOnUse" xlink:href="#linearGradient3362"/><linearGradient id="linearGradient4025" x1="103.749" x2="72.5" y1="84.079" y2="37.75" gradientTransform="translate(-44,0)" gradientUnits="userSpaceOnUse" xlink:href="#linearGradient3409"/><linearGradient id="linearGradient4027" x1="93.469" x2="97.777" y1="10.426" y2="55.545" gradientTransform="translate(-44,0)" gradientUnits="userSpaceOnUse" xlink:href="#linearGradient3409"/><linearGradient id="linearGradient4029" x1="71.626" x2="46.226" y1="123.739" y2="28.943" gradientTransform="translate(-28,0)" gradientUnits="userSpaceOnUse" xlink:href="#linearGradient3342"/><radialGradient id="radialGradient4031" cx="71.775" cy="16.087" r="3.156" fx="71.775" fy="16.087" gradientTransform="matrix(0.9650814,0.2619502,-0.9201984,3.3902106,-6.690938,-57.693239)" gradientUnits="userSpaceOnUse" xlink:href="#linearGradient3669"/><linearGradient id="linearGradient4033" x1="96.373" x2="96.373" y1="120.428" y2="46.09" gradientTransform="translate(-24,0)" gradientUnits="userSpaceOnUse" xlink:href="#linearGradient3511"/><radialGradient id="radialGradient4035" cx="71.775" cy="16.087" r="3.156" fx="71.775" fy="16.087" gradientTransform="matrix(0.9650814,0.2619502,-0.9201984,3.3902106,17.309062,-57.693239)" gradientUnits="userSpaceOnUse" xlink:href="#linearGradient3689"/><radialGradient id="radialGradient4037" cx="11.578" cy="64.531" r="3.578" fx="11.578" fy="64.531" gradientTransform="matrix(6.5079869,0,0,1.510917,-63.772161,-32.970115)" gradientUnits="userSpaceOnUse" xlink:href="#linearGradient3710"/><radialGradient id="radialGradient4039" cx="53.63" cy="79.056" r="50" fx="57.059" fy="91.805" gradientTransform="matrix(1.4429896,7.9739349e-8,-7.654978e-8,1.3852701,-54.365246,-31.441692)" gradientUnits="userSpaceOnUse" xlink:href="#linearGradient3349"/><linearGradient id="linearGradient4041" x1="91.785" x2="91.993" y1="112.5" y2="44.287" gradientTransform="translate(-24,0)" gradientUnits="userSpaceOnUse" xlink:href="#linearGradient3355"/><linearGradient id="linearGradient4043" x1="62" x2="87.011" y1="12.9" y2="69.693" gradientTransform="translate(-44,0)" gradientUnits="userSpaceOnUse" xlink:href="#linearGradient3362"/><linearGradient id="linearGradient4045" x1="103.749" x2="72.5" y1="84.079" y2="37.75" gradientTransform="translate(-44,0)" gradientUnits="userSpaceOnUse" xlink:href="#linearGradient3409"/><linearGradient id="linearGradient4047" x1="93.469" x2="97.777" y1="10.426" y2="55.545" gradientTransform="translate(-44,0)" gradientUnits="userSpaceOnUse" xlink:href="#linearGradient3409"/><linearGradient id="linearGradient4068" x1="93.469" x2="97.777" y1="10.426" y2="55.545" gradientTransform="translate(-36,0)" gradientUnits="userSpaceOnUse" xlink:href="#linearGradient3409"/><linearGradient id="linearGradient4071" x1="103.749" x2="72.5" y1="84.079" y2="37.75" gradientTransform="translate(-36,0)" gradientUnits="userSpaceOnUse" xlink:href="#linearGradient3409"/><linearGradient id="linearGradient4074" x1="62" x2="87.011" y1="12.9" y2="69.693" gradientTransform="translate(-36,0)" gradientUnits="userSpaceOnUse" xlink:href="#linearGradient3362"/><linearGradient id="linearGradient4077" x1="91.785" x2="91.993" y1="112.5" y2="44.287" gradientTransform="translate(-16,0)" gradientUnits="userSpaceOnUse" xlink:href="#linearGradient3355"/><radialGradient id="radialGradient4080" cx="53.63" cy="79.056" r="50" fx="57.059" fy="91.805" gradientTransform="matrix(1.4429896,7.9739349e-8,-7.654978e-8,1.3852701,-46.365246,-31.441692)" gradientUnits="userSpaceOnUse" xlink:href="#linearGradient3349"/><linearGradient id="linearGradient4085" x1="96.373" x2="96.373" y1="120.428" y2="46.09" gradientTransform="translate(-16,0)" gradientUnits="userSpaceOnUse" xlink:href="#linearGradient3511"/><radialGradient id="radialGradient4088" cx="71.775" cy="16.087" r="3.156" fx="71.775" fy="16.087" gradientTransform="matrix(0.9650814,0.2619502,-0.9201984,3.3902106,9.309062,-57.693239)" gradientUnits="userSpaceOnUse" xlink:href="#linearGradient3669"/><linearGradient id="linearGradient4091" x1="71.626" x2="46.226" y1="123.739" y2="28.943" gradientTransform="translate(-20,0)" gradientUnits="userSpaceOnUse" xlink:href="#linearGradient3342"/><linearGradient id="linearGradient4095" x1="93.469" x2="97.777" y1="10.426" y2="55.545" gradientTransform="translate(-4,0)" gradientUnits="userSpaceOnUse" xlink:href="#linearGradient3409"/><linearGradient id="linearGradient4098" x1="103.749" x2="72.5" y1="84.079" y2="37.75" gradientTransform="translate(-4,0)" gradientUnits="userSpaceOnUse" xlink:href="#linearGradient3409"/><linearGradient id="linearGradient4101" x1="62" x2="87.011" y1="12.9" y2="69.693" gradientTransform="translate(-4,0)" gradientUnits="userSpaceOnUse" xlink:href="#linearGradient3362"/><linearGradient id="linearGradient4104" x1="91.785" x2="91.993" y1="112.5" y2="44.287" gradientTransform="translate(36,0)" gradientUnits="userSpaceOnUse" xlink:href="#linearGradient3355"/><radialGradient id="radialGradient4107" cx="53.63" cy="79.056" r="50" fx="57.059" fy="91.805" gradientTransform="matrix(1.4429896,7.9739349e-8,-7.654978e-8,1.3852701,5.634754,-31.441692)" gradientUnits="userSpaceOnUse" xlink:href="#linearGradient3349"/><linearGradient id="linearGradient4112" x1="96.373" x2="96.373" y1="120.428" y2="46.09" gradientTransform="translate(36,0)" gradientUnits="userSpaceOnUse" xlink:href="#linearGradient3511"/><linearGradient id="linearGradient4118" x1="71.626" x2="46.226" y1="123.739" y2="28.943" gradientTransform="translate(12,0)" gradientUnits="userSpaceOnUse" xlink:href="#linearGradient3342"/><linearGradient id="linearGradient4129" x1="71.626" x2="46.226" y1="123.739" y2="28.943" gradientTransform="translate(32,0)" gradientUnits="userSpaceOnUse" xlink:href="#linearGradient3342"/><radialGradient id="radialGradient4145" cx="47.935" cy="77.573" r="50" fx="48.231" fy="84.389" gradientTransform="matrix(1.4429896,7.9739349e-8,-7.654978e-8,1.3852701,5.634754,-31.441692)" gradientUnits="userSpaceOnUse" xlink:href="#linearGradient3349"/><linearGradient id="linearGradient4162" x1="35.63" x2="46.759" y1="11.48" y2="70.828" gradientTransform="matrix(0.988811,0,0,0.9872502,-0.04265795,0.2039966)" gradientUnits="userSpaceOnUse" xlink:href="#linearGradient4150"/><linearGradient id="linearGradient4164" x1="35.63" x2="46.759" y1="11.48" y2="70.828" gradientTransform="translate(20,0)" gradientUnits="userSpaceOnUse" xlink:href="#linearGradient4150"/><linearGradient id="linearGradient4179" x1="35.63" x2="46.759" y1="11.48" y2="70.828" gradientTransform="matrix(0.9955244,0,0,0.9872502,0.3938517,0.8203689)" gradientUnits="userSpaceOnUse" xlink:href="#linearGradient4150"/><linearGradient id="linearGradient4181" x1="35.63" x2="46.759" y1="11.48" y2="70.828" gradientTransform="translate(20,0)" gradientUnits="userSpaceOnUse" xlink:href="#linearGradient4150"/><linearGradient id="linearGradient3296" x1="96.373" x2="96.373" y1="120.428" y2="46.09" gradientTransform="translate(24,0)" gradientUnits="userSpaceOnUse" xlink:href="#linearGradient3511"/><linearGradient id="linearGradient3310" x1="71.626" x2="46.226" y1="123.739" y2="28.943" gradientTransform="translate(20,0)" gradientUnits="userSpaceOnUse" xlink:href="#linearGradient3342"/><radialGradient id="radialGradient3312" cx="47.935" cy="77.573" r="50" fx="48.231" fy="84.389" gradientTransform="matrix(1.4429896,7.9739349e-8,-7.654978e-8,1.3852701,-6.365246,-31.441692)" gradientUnits="userSpaceOnUse" xlink:href="#linearGradient3349"/><linearGradient id="linearGradient3314" x1="91.785" x2="91.993" y1="112.5" y2="44.287" gradientTransform="translate(24,0)" gradientUnits="userSpaceOnUse" xlink:href="#linearGradient3355"/><linearGradient id="linearGradient3316" x1="35.63" x2="46.759" y1="11.48" y2="70.828" gradientTransform="translate(8,0)" gradientUnits="userSpaceOnUse" xlink:href="#linearGradient4150"/><linearGradient id="linearGradient3344" x1="56" x2="34.345" y1="67.238" y2="40.172" gradientTransform="translate(28,0)" gradientUnits="userSpaceOnUse" xlink:href="#linearGradient3327"/><linearGradient id="linearGradient3356" x1="42.548" x2="46.759" y1="13.922" y2="70.828" gradientTransform="translate(28,0)" gradientUnits="userSpaceOnUse" xlink:href="#linearGradient3327"/><filter id="filter4242" width="1" height="1" x="0" y="0" color-interpolation-filters="sRGB"><feColorMatrix id="feColorMatrix4244" type="saturate" values="0"/></filter><linearGradient id="linearGradient3310-77" x1="71.626" x2="46.226" y1="123.739" y2="28.943" gradientTransform="translate(20,0)" gradientUnits="userSpaceOnUse" xlink:href="#linearGradient3342-991"/><linearGradient id="linearGradient3342-991"><stop style="stop-color:#7f7f7f;stop-opacity:1" id="stop3284" offset="0"/><stop style="stop-color:#262626;stop-opacity:1" id="stop3286" offset="1"/></linearGradient><linearGradient id="linearGradient3296-35" x1="96.373" x2="96.373" y1="120.428" y2="46.09" gradientTransform="translate(24,0)" gradientUnits="userSpaceOnUse" xlink:href="#linearGradient3511-961"/><linearGradient id="linearGradient3511-961"><stop style="stop-color:#151515;stop-opacity:1" id="stop3290" offset="0"/><stop style="stop-color:#151515;stop-opacity:0" id="stop3292" offset="1"/></linearGradient><radialGradient id="radialGradient3312-816" cx="47.935" cy="77.573" r="50" fx="48.231" fy="84.389" gradientTransform="matrix(1.4429896,7.9739349e-8,-7.654978e-8,1.3852701,-6.365246,-31.441692)" gradientUnits="userSpaceOnUse" xlink:href="#linearGradient3349-164"/><linearGradient id="linearGradient3349-164"><stop id="stop3296" offset="0" style="stop-color:#6e6e6e;stop-opacity:1"/><stop id="stop3298" offset="1" style="stop-color:#070707;stop-opacity:1"/></linearGradient><linearGradient id="linearGradient3314-881" x1="91.785" x2="91.993" y1="112.5" y2="44.287" gradientTransform="translate(24,0)" gradientUnits="userSpaceOnUse" xlink:href="#linearGradient3355-804"/><linearGradient id="linearGradient3355-804"><stop id="stop3302" offset="0" style="stop-color:#efefef;stop-opacity:1"/><stop id="stop3304" offset="1" style="stop-color:#dfdfdf;stop-opacity:0"/></linearGradient><radialGradient id="radialGradient4088-68" cx="71.775" cy="16.087" r="3.156" fx="71.775" fy="16.087" gradientTransform="matrix(0.9650814,0.2619502,-0.9201984,3.3902106,9.309062,-57.693239)" gradientUnits="userSpaceOnUse" xlink:href="#linearGradient3669-398"/><linearGradient id="linearGradient3669-398"><stop style="stop-color:#fff;stop-opacity:1" id="stop3308" offset="0"/><stop style="stop-color:#fff;stop-opacity:0" id="stop3310" offset="1"/></linearGradient><radialGradient id="radialGradient4035-290" cx="71.775" cy="16.087" r="3.156" fx="71.775" fy="16.087" gradientTransform="matrix(0.9650814,0.2619502,-0.9201984,3.3902106,17.309062,-57.693239)" gradientUnits="userSpaceOnUse" xlink:href="#linearGradient3689-254"/><linearGradient id="linearGradient3689-254"><stop id="stop3314" offset="0" style="stop-color:#bfbfbf;stop-opacity:1"/><stop id="stop3316" offset="1" style="stop-color:#bfbfbf;stop-opacity:0"/></linearGradient><radialGradient id="radialGradient4037-332" cx="11.578" cy="64.531" r="3.578" fx="11.578" fy="64.531" gradientTransform="matrix(6.5079869,0,0,1.510917,-63.772161,-32.970115)" gradientUnits="userSpaceOnUse" xlink:href="#linearGradient3710-462"/><linearGradient id="linearGradient3710-462"><stop style="stop-color:#fff;stop-opacity:1" id="stop3320" offset="0"/><stop style="stop-color:#fff;stop-opacity:0" id="stop3322" offset="1"/></linearGradient><linearGradient id="linearGradient3316-344" x1="35.63" x2="46.759" y1="11.48" y2="70.828" gradientTransform="translate(8,0)" gradientUnits="userSpaceOnUse" xlink:href="#linearGradient4150-502"/><linearGradient id="linearGradient4150-502"><stop style="stop-color:#dfdfdf;stop-opacity:1" id="stop3326" offset="0"/><stop style="stop-color:#dfdfdf;stop-opacity:0" id="stop3328" offset="1"/></linearGradient><linearGradient id="linearGradient3344-631" x1="56" x2="34.345" y1="67.238" y2="40.172" gradientTransform="translate(28,0)" gradientUnits="userSpaceOnUse" xlink:href="#linearGradient3327-953"/><linearGradient id="linearGradient3327-953"><stop style="stop-color:#fff;stop-opacity:1" id="stop3332" offset="0"/><stop style="stop-color:#fff;stop-opacity:0" id="stop3334" offset="1"/></linearGradient><linearGradient id="linearGradient3356-898" x1="42.548" x2="46.759" y1="13.922" y2="70.828" gradientTransform="translate(28,0)" gradientUnits="userSpaceOnUse" xlink:href="#linearGradient3327-883"/><linearGradient id="linearGradient3327-883"><stop style="stop-color:#fff;stop-opacity:1" id="stop3338" offset="0"/><stop style="stop-color:#fff;stop-opacity:0" id="stop3340" offset="1"/></linearGradient><linearGradient id="linearGradient3310-77-738" x1="71.626" x2="46.226" y1="123.739" y2="28.943" gradientTransform="translate(20,0)" gradientUnits="userSpaceOnUse" xlink:href="#linearGradient3342-991-43"/><linearGradient id="linearGradient3342-991-43"><stop style="stop-color:#7f7f7f;stop-opacity:1" id="stop3740" offset="0"/><stop style="stop-color:#262626;stop-opacity:1" id="stop3742" offset="1"/></linearGradient><linearGradient id="linearGradient3296-35-976" x1="96.373" x2="96.373" y1="120.428" y2="46.09" gradientTransform="translate(24,0)" gradientUnits="userSpaceOnUse" xlink:href="#linearGradient3511-961-128"/><linearGradient id="linearGradient3511-961-128"><stop style="stop-color:#151515;stop-opacity:1" id="stop3746" offset="0"/><stop style="stop-color:#151515;stop-opacity:0" id="stop3748" offset="1"/></linearGradient><radialGradient id="radialGradient3312-816-788" cx="47.935" cy="77.573" r="50" fx="48.231" fy="84.389" gradientTransform="matrix(1.4429896,7.9739349e-8,-7.654978e-8,1.3852701,-6.365246,-31.441692)" gradientUnits="userSpaceOnUse" xlink:href="#linearGradient3349-164-425"/><linearGradient id="linearGradient3349-164-425"><stop id="stop3752" offset="0" style="stop-color:#6e6e6e;stop-opacity:1"/><stop id="stop3754" offset="1" style="stop-color:#070707;stop-opacity:1"/></linearGradient><linearGradient id="linearGradient3314-881-739" x1="91.785" x2="91.993" y1="112.5" y2="44.287" gradientTransform="translate(24,0)" gradientUnits="userSpaceOnUse" xlink:href="#linearGradient3355-804-906"/><linearGradient id="linearGradient3355-804-906"><stop id="stop3758" offset="0" style="stop-color:#efefef;stop-opacity:1"/><stop id="stop3760" offset="1" style="stop-color:#dfdfdf;stop-opacity:0"/></linearGradient><radialGradient id="radialGradient4088-68-786" cx="71.775" cy="16.087" r="3.156" fx="71.775" fy="16.087" gradientTransform="matrix(0.9650814,0.2619502,-0.9201984,3.3902106,9.309062,-57.693239)" gradientUnits="userSpaceOnUse" xlink:href="#linearGradient3669-398-549"/><linearGradient id="linearGradient3669-398-549"><stop style="stop-color:#fff;stop-opacity:1" id="stop3764" offset="0"/><stop style="stop-color:#fff;stop-opacity:0" id="stop3766" offset="1"/></linearGradient><radialGradient id="radialGradient4035-290-763" cx="71.775" cy="16.087" r="3.156" fx="71.775" fy="16.087" gradientTransform="matrix(0.9650814,0.2619502,-0.9201984,3.3902106,17.309062,-57.693239)" gradientUnits="userSpaceOnUse" xlink:href="#linearGradient3689-254-385"/><linearGradient id="linearGradient3689-254-385"><stop id="stop3770" offset="0" style="stop-color:#bfbfbf;stop-opacity:1"/><stop id="stop3772" offset="1" style="stop-color:#bfbfbf;stop-opacity:0"/></linearGradient><radialGradient id="radialGradient4037-332-31" cx="11.578" cy="64.531" r="3.578" fx="11.578" fy="64.531" gradientTransform="matrix(6.5079869,0,0,1.510917,-63.772161,-32.970115)" gradientUnits="userSpaceOnUse" xlink:href="#linearGradient3710-462-99"/><linearGradient id="linearGradient3710-462-99"><stop style="stop-color:#fff;stop-opacity:1" id="stop3776" offset="0"/><stop style="stop-color:#fff;stop-opacity:0" id="stop3778" offset="1"/></linearGradient><linearGradient id="linearGradient3316-344-161" x1="35.63" x2="46.759" y1="11.48" y2="70.828" gradientTransform="translate(8,0)" gradientUnits="userSpaceOnUse" xlink:href="#linearGradient4150-502-168"/><linearGradient id="linearGradient4150-502-168"><stop style="stop-color:#dfdfdf;stop-opacity:1" id="stop3782" offset="0"/><stop style="stop-color:#dfdfdf;stop-opacity:0" id="stop3784" offset="1"/></linearGradient><linearGradient id="linearGradient3344-631-299" x1="56" x2="34.345" y1="67.238" y2="40.172" gradientTransform="translate(28,0)" gradientUnits="userSpaceOnUse" xlink:href="#linearGradient3327-953-16"/><linearGradient id="linearGradient3327-953-16"><stop style="stop-color:#fff;stop-opacity:1" id="stop3788" offset="0"/><stop style="stop-color:#fff;stop-opacity:0" id="stop3790" offset="1"/></linearGradient><linearGradient id="linearGradient3356-898-959" x1="42.548" x2="46.759" y1="13.922" y2="70.828" gradientTransform="translate(28,0)" gradientUnits="userSpaceOnUse" xlink:href="#linearGradient3327-883-615"/><linearGradient id="linearGradient3327-883-615"><stop style="stop-color:#fff;stop-opacity:1" id="stop3794" offset="0"/><stop style="stop-color:#fff;stop-opacity:0" id="stop3796" offset="1"/></linearGradient></defs><metadata id="metadata7"/><g id="layer1" transform="translate(0,12)"><g id="g3936" transform="matrix(-1,0,0,1,114.40625,-4)"><path style="opacity:.53694584000000001;fill:#262626;fill-opacity:1;fill-rule:evenodd;stroke:#262626;stroke-width:1;stroke-linecap:butt;stroke-linejoin:round;stroke-miterlimit:4;stroke-opacity:1;stroke-dasharray:none" id="path3987" d="m 63.875,12 c -0.865503,0.02693 -1.698899,0.33398 -2.375,0.875 l -60,48 C 0.550144,61.63413 0,62.78406 0,64 c 0,1.21594 0.550144,2.36587 1.5,3.125 l 60,48 c 1.200963,0.96113 2.832437,1.13525 4.21875,0.46875 C 67.105067,114.92725 68.000642,113.53821 68,112 L 68,94.71875 68,33.28125 68,16 C 68.000417,14.91715 67.558627,13.87882 66.78125,13.125 66.003873,12.37118 64.957323,11.96627 63.875,12 z"/><path style="fill:url(#linearGradient3310-77-738);fill-opacity:1;fill-rule:evenodd;stroke:none" id="path3989" d="m 63.875,12 c -0.865503,0.02693 -1.698899,0.33398 -2.375,0.875 l -60,48 C 0.550144,61.63413 0,62.78406 0,64 c 0,1.21594 0.550144,2.36587 1.5,3.125 l 60,48 c 1.200963,0.96113 2.832437,1.13525 4.21875,0.46875 C 67.105067,114.92725 68.000642,113.53821 68,112 l 0,-17.28125 0,-10.25 0,-0.59375 0,-5.8125 0,-28.125 L 68,45 68,43.53125 68,33.28125 68,16 C 68.000417,14.91715 67.558627,13.87882 66.78125,13.125 66.003873,12.37118 64.957323,11.96627 63.875,12 z M 60,24.3125 60,39.6875 54.59375,44 45,44 c -0.554,0 -1,0.446 -1,1 L 44,52.46875 33.5,60.875 C 32.550144,61.63413 32,62.78406 32,64 c 0,1.21594 0.550144,2.36587 1.5,3.125 L 44,75.53125 44,83.875 c 0,0.554 0.446,1 1,1 l 10.6875,0 L 60,88.3125 60,103.6875 10.40625,64 60,24.3125 z M 44,62.71875 44,65.28125 42.40625,64 44,62.71875 z"/><path style="opacity:.53694584000000001;fill:url(#linearGradient3296-35-976);fill-opacity:1;fill-rule:evenodd;stroke:none" id="path3993" d="m 63.875,12 c -0.865503,0.02693 -1.698899,0.33398 -2.375,0.875 l -60,48 C 0.550144,61.63413 0,62.78406 0,64 c 0,1.21594 0.550144,2.36587 1.5,3.125 l 60,48 c 1.200963,0.96113 2.832437,1.13525 4.21875,0.46875 C 67.105067,114.92725 68.000642,113.53821 68,112 l 0,-17.28125 0,-10.25 0,-0.59375 0,-0.6875 0,-5.125 0,-28.125 0,-4.9375 0,-0.1875 0,-1.28125 0,-10.25 L 68,16 C 68.000417,14.91715 67.558627,13.87882 66.78125,13.125 66.003873,12.37118 64.957323,11.96627 63.875,12 z M 60,24.3125 60,39.6875 54.59375,44 45,44 c -0.554,0 -1,0.446 -1,1 L 44,52.46875 33.5,60.875 C 32.550144,61.63413 32,62.78406 32,64 c 0,1.21594 0.550144,2.36587 1.5,3.125 L 44,75.53125 44,83.875 c 0,0.554 0.446,1 1,1 l 10.6875,0 L 60,88.3125 60,103.6875 10.40625,64 60,24.3125 z M 44,62.71875 44,65.28125 42.40625,64 44,62.71875 z"/><path style="fill:url(#radialGradient3312-816-788);fill-opacity:1;fill-rule:evenodd;stroke:none" id="path3999" d="M 64,16 4,64 64,112 64,86.40625 64,41.59375 64,16 z"/><path style="fill:none;stroke:url(#linearGradient3314-881-739);stroke-width:.5;stroke-linecap:butt;stroke-linejoin:miter;stroke-miterlimit:4;stroke-opacity:1;stroke-dasharray:none" id="path4001" d="M 64,16 4,64 64,112 64,86.40625 64,41.59375 64,16 z"/><path id="path3651" d="m 63.875,12 c -0.799041,0.02487 -1.572946,0.283948 -2.21875,0.75 L 62.625,21.78125 67.96875,15.625 c -0.08779,-0.946211 -0.499493,-1.832841 -1.1875,-2.5 C 66.003873,12.37118 64.957323,11.966273 63.875,12 z" style="opacity:.84999999999999998;fill:url(#radialGradient4088-68-786);fill-opacity:1;fill-rule:evenodd;stroke:none"/><path style="opacity:.34999999999999998;fill:url(#radialGradient4035-290-763);fill-opacity:1;fill-rule:evenodd;stroke:none" id="path3685" d="m 71.875,12 c -0.799041,0.02487 -1.572946,0.283948 -2.21875,0.75 L 70.625,21.78125 75.96875,15.625 c -0.08779,-0.946211 -0.499493,-1.832841 -1.1875,-2.5 C 74.003873,12.37118 72.957323,11.966273 71.875,12 z" transform="matrix(1,0,0,-1,-8,127.7793)"/><path id="path3705" d="M 11.6875,59.125 9.5,60.875 C 8.5501441,61.634129 8,62.784063 8,64 c 10e-8,1.215937 0.5501441,2.365871 1.5,3.125 l 3.53125,2.8125 2.125,-5.625 -3.46875,-5.1875 z" transform="matrix(1,0,0,-1,-8,128.5625)" style="opacity:.5;fill:url(#radialGradient4037-332-31);fill-opacity:1;fill-rule:evenodd;stroke:none"/><path style="fill:url(#linearGradient3316-344-161);fill-opacity:1;fill-rule:evenodd;stroke:none" id="path4143" d="M 64,16 4.1875,63.84375 c 8.051341,0.325047 16.325945,0.5 24.71875,0.5 12.055796,0 23.792287,-0.368324 35.09375,-1.03125 L 64,41.59375 64,16 z"/><path style="fill:url(#linearGradient3344-631-299);fill-opacity:1;fill-rule:evenodd;stroke:none" id="path3335" d="m 84,16 -0.34375,0.28125 0,25.09375 0,21.53125 c -11.238981,0.657345 -22.885856,1.031249 -34.875,1.03125 -8.173257,0 -16.244047,-0.159182 -24.09375,-0.46875 l -0.5,0.375 c 8.051341,0.325047 16.325945,0.5 24.71875,0.5 12.055796,0 23.792287,-0.368324 35.09375,-1.03125 L 84,41.59375 84,16 z" transform="translate(-20,0)"/><path style="fill:url(#linearGradient3356-898-959);fill-opacity:1;fill-rule:evenodd;stroke:none" id="path3347" d="M 84,16 24.1875,63.84375 83.75,16.90625 l 0,25.125 0,21.28125 c 0.08232,-0.0048 0.167722,0.0048 0.25,0 L 84,41.59375 84,16 z" transform="translate(-20,0)"/></g></g><g id="layer2" transform="translate(0,12)"><path style="color:#000;fill:none;stroke:#333;stroke-width:12;stroke-miterlimit:2;stroke-opacity:1;stroke-dasharray:none;marker:none;visibility:visible;display:inline;overflow:visible;enable-background:accumulate" id="path2993" d="M 71.853938,122.58521 C 41.25588,125.54368 14.281116,100.52911 11.604146,66.713592 8.9271757,32.898072 31.561666,3.0868518 62.15972,0.1283818 c 30.59807,-2.95848 57.57283,22.0561102 60.24982,55.8716212 1.05254,13.295577 -1.83951,26.608491 -8.23908,37.926845"/><path style="fill:#333;fill-opacity:1;stroke:#333;stroke-width:4;stroke-linecap:butt;stroke-linejoin:miter;stroke-miterlimit:4;stroke-opacity:1;stroke-dasharray:none" id="path6438-7" d="m 122.3068,102.486 -29.01716,14.48116 6.90162,-34.279882 z"/></g></svg>