<svg xmlns="http://www.w3.org/2000/svg" xmlns:svg="http://www.w3.org/2000/svg" xmlns:xlink="http://www.w3.org/1999/xlink" id="svg2606" width="128" height="128" version="1.0"><defs id="defs2608"><linearGradient id="linearGradient3022"><stop style="stop-color:#fff;stop-opacity:1" id="stop3024" offset="0"/><stop style="stop-color:#fff;stop-opacity:0" id="stop3026" offset="1"/></linearGradient><linearGradient id="linearGradient3449"><stop style="stop-color:#000;stop-opacity:1" id="stop3451" offset="0"/><stop style="stop-color:#000;stop-opacity:0" id="stop3453" offset="1"/></linearGradient><linearGradient id="linearGradient3295"><stop style="stop-color:#63e9ff;stop-opacity:1" id="stop3297" offset="0"/><stop style="stop-color:#fff;stop-opacity:0" id="stop3299" offset="1"/></linearGradient><linearGradient id="linearGradient3260"><stop style="stop-color:#fff;stop-opacity:1" id="stop3262" offset="0"/><stop style="stop-color:#fff;stop-opacity:0" id="stop3264" offset="1"/></linearGradient><linearGradient id="linearGradient3202"><stop style="stop-color:#df1203;stop-opacity:1" id="stop3204" offset="0"/><stop id="stop4227" offset=".5" style="stop-color:#eb3b31;stop-opacity:.49803922"/><stop style="stop-color:#d2e8ed;stop-opacity:0" id="stop3206" offset="1"/></linearGradient><radialGradient id="XMLID_4_" cx="48" cy="-.215" r="55.148" gradientTransform="matrix(0.9792,0,0,0.9725,133.0002,20.8762)" gradientUnits="userSpaceOnUse"><stop style="stop-color:#72d13d" id="stop3082" offset="0"/><stop style="stop-color:#35ac1c" id="stop3084" offset=".355"/><stop style="stop-color:#0f9508" id="stop3086" offset=".619"/><stop style="stop-color:#008c00" id="stop3088" offset=".757"/><stop style="stop-color:#007a00" id="stop3090" offset="1"/></radialGradient><radialGradient id="radialGradient3629" cx="172" cy="76" r="56" fx="172" fy="76" gradientTransform="matrix(1,0,0,1.1383929,0,-10.517857)" gradientUnits="userSpaceOnUse" xlink:href="#XMLID_4_"/><radialGradient id="radialGradient3213" cx="172" cy="76" r="56" fx="188.882" fy="121.442" gradientTransform="matrix(1,0,0,1.1383929,0,-10.517857)" gradientUnits="userSpaceOnUse" xlink:href="#linearGradient6666"/><linearGradient id="linearGradient3301" x1="73.743" x2="78.939" y1="15.337" y2="16.751" gradientTransform="translate(4,0)" gradientUnits="userSpaceOnUse" spreadMethod="reflect" xlink:href="#linearGradient3260"/><filter id="filter3387" width="1.204" height="1.25" x="-.102" y="-.125"><feGaussianBlur id="feGaussianBlur3389" stdDeviation=".447"/></filter><linearGradient id="linearGradient3393" x1="74.75" x2="78.939" y1="14.276" y2="16.751" gradientUnits="userSpaceOnUse" spreadMethod="reflect" xlink:href="#linearGradient3260"/><linearGradient id="linearGradient3409" x1="186.926" x2="242.855" y1="89.89" y2="91.36" gradientTransform="matrix(0,-1,-0.8610463,0,129.39927,236.01574)" gradientUnits="userSpaceOnUse" xlink:href="#linearGradient3202"/><filter id="filter3443" width="1.231" height="1.255" x="-.116" y="-.128"><feGaussianBlur id="feGaussianBlur3445" stdDeviation=".325"/></filter><radialGradient id="radialGradient3455" cx="-23.234" cy="61.877" r="60" fx="-23.234" fy="61.877" gradientTransform="matrix(-1.767767e-2,-0.5816285,-0.8878982,2.6986249e-2,122.02118,96.093894)" gradientUnits="userSpaceOnUse" xlink:href="#linearGradient3449"/><linearGradient id="linearGradient3521" x1="223.327" x2="226.659" y1="53.784" y2="57.279" gradientTransform="matrix(1,0,0,0.8610463,-108.16138,-1.4361867)" gradientUnits="userSpaceOnUse" spreadMethod="reflect" xlink:href="#linearGradient6446"/><linearGradient id="linearGradient2226" x1="262.487" x2="180.407" y1="32.271" y2="62.96" gradientUnits="userSpaceOnUse" xlink:href="#linearGradient3295"/><linearGradient id="linearGradient2228" x1="119.337" x2="178.904" y1="59.541" y2="61.05" gradientTransform="translate(97,0)" gradientUnits="userSpaceOnUse" xlink:href="#linearGradient3202"/><linearGradient id="linearGradient3253" x1="47.968" x2="49.218" y1="16.139" y2="85.428" gradientTransform="translate(-0.5,-87.681242)" gradientUnits="userSpaceOnUse" xlink:href="#linearGradient3202"/><linearGradient id="linearGradient3530" x1="223.327" x2="226.659" y1="53.784" y2="57.279" gradientTransform="matrix(1,0,0,0.8610463,-108.16138,-1.4361867)" gradientUnits="userSpaceOnUse" spreadMethod="reflect" xlink:href="#linearGradient6446"/><radialGradient id="radialGradient3534" cx="68.02" cy="88.271" r="60" fx="68.02" fy="88.271" gradientTransform="matrix(4.8084493e-2,-0.579907,-1.1490691,-9.5278066e-2,175.27772,120.77797)" gradientUnits="userSpaceOnUse" xlink:href="#linearGradient3449"/><radialGradient id="radialGradient3139" cx="77.533" cy="74.979" r="43.475" fx="88.043" fy="51.593" gradientTransform="matrix(-0.4961056,0.4409829,-0.7360594,-0.8280666,-11.726835,87.897058)" gradientUnits="userSpaceOnUse" spreadMethod="reflect" xlink:href="#linearGradient2990"/><clipPath id="clipPath3135" clipPathUnits="userSpaceOnUse"><path style="fill:url(#radialGradient3139);fill-opacity:1;stroke:none;stroke-width:16.49500084;stroke-linecap:round;stroke-linejoin:round;stroke-miterlimit:4;stroke-dasharray:none;stroke-dashoffset:4.15;stroke-opacity:1" id="path3137" d="M -97.32181,27.94375 C -107.56112,27.943751 -117.79103,31.818176 -125.55562,39.582762 C -133.56284,47.589993 -137.44486,58.222613 -137.19463,68.779409 L -137.19463,96.822041 C -137.19463,100.87378 -133.94013,104.12828 -129.88839,104.12828 L -64.755235,104.12828 C -60.703495,104.12828 -57.448995,100.87378 -57.448995,96.822041 L -57.448995,68.779409 C -57.198765,58.222612 -61.080775,47.589993 -69.088001,39.582762 C -76.852581,31.818171 -87.082497,27.943749 -97.32181,27.94375 z M -97.32181,43.481014 C -90.982458,43.481015 -84.633535,45.9179 -79.764176,50.787256 C -74.95275,55.59868 -72.515179,61.833382 -72.457934,68.090021 L -122.15737,68.090021 C -122.10012,61.833381 -119.69086,55.598679 -114.87944,50.787256 C -110.01008,45.917895 -103.66116,43.481013 -97.32181,43.481014 z"/></clipPath><radialGradient id="radialGradient3133" cx="77.533" cy="74.979" r="43.475" fx="88.043" fy="51.593" gradientTransform="matrix(-0.4961056,0.4409829,-0.7360594,-0.8280666,-99.14147,87.897058)" gradientUnits="userSpaceOnUse" spreadMethod="reflect" xlink:href="#linearGradient2990"/><clipPath id="clipPath3129" clipPathUnits="userSpaceOnUse"><path id="path3131" d="M -184.73645,27.94375 C -194.97576,27.943751 -205.20567,31.818176 -212.97026,39.582762 C -220.97748,47.589993 -224.8595,58.222613 -224.60927,68.779409 L -224.60927,96.822041 C -224.60927,100.87378 -221.35477,104.12828 -217.30303,104.12828 L -152.16987,104.12828 C -148.11813,104.12828 -144.86363,100.87378 -144.86363,96.822041 L -144.86363,68.779409 C -144.6134,58.222612 -148.49541,47.589993 -156.50264,39.582762 C -164.26722,31.818171 -174.49713,27.943749 -184.73645,27.94375 z M -184.73645,43.481014 C -178.39709,43.481015 -172.04817,45.9179 -167.17881,50.787256 C -162.36739,55.59868 -159.92981,61.833382 -159.87257,68.090021 L -209.57201,68.090021 C -209.51476,61.833381 -207.1055,55.598679 -202.29408,50.787256 C -197.42472,45.917895 -191.0758,43.481013 -184.73645,43.481014 z" style="fill:url(#radialGradient3133);fill-opacity:1;stroke:none;stroke-width:16.49500084;stroke-linecap:round;stroke-linejoin:round;stroke-miterlimit:4;stroke-dasharray:none;stroke-dashoffset:4.15;stroke-opacity:1"/></clipPath><radialGradient id="radialGradient2409" cx="63.042" cy="74.979" r="43.475" fx="73.551" fy="51.593" gradientTransform="matrix(-1.1040885,0.8280667,-0.6647496,-0.8863327,191.44623,62.253906)" gradientUnits="userSpaceOnUse" spreadMethod="reflect" xlink:href="#linearGradient2990"/><linearGradient id="linearGradient3289" x1="60.402" x2="60.402" y1="64.076" y2="-20.962" gradientUnits="userSpaceOnUse" xlink:href="#linearGradient6674"/><linearGradient id="linearGradient3243" x1="-60.945" x2="-60" y1="105.831" y2="8" gradientUnits="userSpaceOnUse" xlink:href="#linearGradient3237"/><linearGradient id="linearGradient3233" x1="115.767" x2="31.377" y1="71.085" y2="21.031" gradientTransform="translate(0.2332229,1.9150941)" gradientUnits="userSpaceOnUse" xlink:href="#linearGradient6446"/><linearGradient id="linearGradient3231" x1="59.226" x2="59.226" y1="7.897" y2="46.229" gradientTransform="translate(0.2623629,1)" gradientUnits="userSpaceOnUse" xlink:href="#linearGradient6446"/><linearGradient id="linearGradient2816" x1="64" x2="74.448" y1="-26.937" y2="82.03" gradientUnits="userSpaceOnUse" xlink:href="#linearGradient6446"/><linearGradient id="linearGradient6680" x1="19.097" x2="19.934" y1="50.581" y2="88.633" gradientUnits="userSpaceOnUse" xlink:href="#linearGradient6674"/><linearGradient id="linearGradient6649" x1="62.039" x2="62.039" y1="15.914" y2="50.729" gradientTransform="translate(0,3)" gradientUnits="userSpaceOnUse" xlink:href="#linearGradient6643"/><linearGradient id="linearGradient6637" x1="55.329" x2="55.329" y1="112" y2="74.913" gradientUnits="userSpaceOnUse" xlink:href="#linearGradient6631"/><linearGradient id="linearGradient6472" x1="21.095" x2="13.961" y1="21.102" y2="28.236" gradientTransform="translate(0.4129032,0.6193548)" gradientUnits="userSpaceOnUse" spreadMethod="reflect" xlink:href="#linearGradient6446"/><linearGradient id="linearGradient6470" x1="21.095" x2="13.961" y1="21.102" y2="28.236" gradientTransform="translate(0.4129032,0.6193548)" gradientUnits="userSpaceOnUse" spreadMethod="reflect" xlink:href="#linearGradient6446"/><linearGradient id="linearGradient6464" x1="21.095" x2="15.127" y1="21.102" y2="27.07" gradientTransform="translate(0.4129032,0.6193548)" gradientUnits="userSpaceOnUse" spreadMethod="reflect" xlink:href="#linearGradient6446"/><linearGradient id="linearGradient6452" x1="21.095" x2="15.189" y1="21.102" y2="27.008" gradientTransform="translate(-7.5870968,-7.3806452)" gradientUnits="userSpaceOnUse" spreadMethod="reflect" xlink:href="#linearGradient6446"/><linearGradient id="linearGradient6410" x1="32" x2="24" y1="88" y2="-24" gradientUnits="userSpaceOnUse" xlink:href="#linearGradient6404"/><radialGradient id="radialGradient9692" cx="42.7" cy="103.58" r="42.559" fx="42.7" fy="103.58" gradientTransform="matrix(1.3965253,6.9831451e-3,-7.781496e-3,1.5561835,-122.82611,-69.698616)" gradientUnits="userSpaceOnUse" spreadMethod="pad" xlink:href="#linearGradient6666"/><linearGradient id="linearGradient6404"><stop id="stop6406" offset="0" style="stop-color:#081e3e;stop-opacity:1"/><stop id="stop6408" offset="1" style="stop-color:#387de4;stop-opacity:1"/></linearGradient><linearGradient id="linearGradient6446"><stop id="stop6448" offset="0" style="stop-color:#fff;stop-opacity:1"/><stop id="stop6450" offset="1" style="stop-color:#fff;stop-opacity:0"/></linearGradient><linearGradient id="linearGradient6631"><stop id="stop6633" offset="0" style="stop-color:#703700;stop-opacity:1"/><stop id="stop6635" offset="1" style="stop-color:#bf5e00;stop-opacity:0"/></linearGradient><linearGradient id="linearGradient6643"><stop id="stop6645" offset="0" style="stop-color:#fffddc;stop-opacity:1"/><stop id="stop6647" offset="1" style="stop-color:#ffdfbf;stop-opacity:0"/></linearGradient><linearGradient id="linearGradient6666"><stop style="stop-color:#9fc1f2;stop-opacity:1" id="stop6668" offset="0"/><stop id="stop3183" offset=".5" style="stop-color:#587eb5;stop-opacity:1"/><stop style="stop-color:#0c2a58;stop-opacity:1" id="stop6670" offset="1"/></linearGradient><linearGradient id="linearGradient6674"><stop id="stop6676" offset="0" style="stop-color:#001648;stop-opacity:1"/><stop id="stop6678" offset="1" style="stop-color:#11a9ff;stop-opacity:0"/></linearGradient><linearGradient id="linearGradient3237"><stop id="stop3239" offset="0" style="stop-color:#d5e6ff;stop-opacity:1"/><stop id="stop3241" offset="1" style="stop-color:#fff;stop-opacity:0"/></linearGradient><linearGradient id="linearGradient2990"><stop id="stop2992" offset="0" style="stop-color:#d7d7d7;stop-opacity:1"/><stop id="stop2994" offset="1" style="stop-color:#fff;stop-opacity:1"/></linearGradient><filter id="filter3187"><feGaussianBlur id="feGaussianBlur3189" stdDeviation=".565"/></filter><linearGradient id="linearGradient3219" x1="194.5" x2="104.25" y1="123.907" y2="5.156" gradientTransform="matrix(-1,0,0,0.8610463,375,-1.4361867)" gradientUnits="userSpaceOnUse" xlink:href="#linearGradient6404"/><radialGradient id="radialGradient3221" cx="-16.668" cy="86.827" r="60" fx="-16.668" fy="86.827" gradientTransform="matrix(-0.2586607,-0.5212474,-0.8274344,0.4106011,302.53945,50.055595)" gradientUnits="userSpaceOnUse" xlink:href="#linearGradient3449"/><linearGradient id="linearGradient3223" x1="73.743" x2="78.939" y1="15.337" y2="16.751" gradientUnits="userSpaceOnUse" spreadMethod="reflect" xlink:href="#linearGradient3260"/><linearGradient id="linearGradient3225" x1="223.327" x2="226.659" y1="53.784" y2="57.279" gradientTransform="matrix(1,0,0,0.8610463,-108.16138,-1.4361867)" gradientUnits="userSpaceOnUse" spreadMethod="reflect" xlink:href="#linearGradient3202"/><radialGradient id="radialGradient3227" cx="72.021" cy="66.345" r="60" fx="72.021" fy="66.345" gradientTransform="matrix(-0.5816285,1.767767e-2,2.6986249e-2,0.8878982,235.07816,5.9419094)" gradientUnits="userSpaceOnUse" xlink:href="#linearGradient3449"/><linearGradient id="linearGradient3229" x1="74.75" x2="78.939" y1="14.276" y2="16.751" gradientUnits="userSpaceOnUse" spreadMethod="reflect" xlink:href="#linearGradient3295"/><linearGradient id="linearGradient3232" x1="223.327" x2="226.659" y1="53.784" y2="57.279" gradientTransform="matrix(1,0,0,0.8610463,-108.16138,-1.4361867)" gradientUnits="userSpaceOnUse" spreadMethod="reflect" xlink:href="#linearGradient3260"/><radialGradient id="radialGradient3234" cx="172" cy="76" r="56" fx="188.882" fy="121.442" gradientTransform="matrix(1,0,0,1.1383929,0,-10.517857)" gradientUnits="userSpaceOnUse" xlink:href="#linearGradient6666"/><radialGradient id="radialGradient3236" cx="172" cy="76" r="56" fx="172" fy="76" gradientTransform="matrix(1,0,0,1.1383929,0,-10.517857)" gradientUnits="userSpaceOnUse" xlink:href="#XMLID_4_"/><linearGradient id="linearGradient3238" x1="179.172" x2="173.981" y1="123.759" y2="65.448" gradientTransform="translate(97,0)" gradientUnits="userSpaceOnUse" xlink:href="#linearGradient3295"/><linearGradient id="linearGradient3240" x1="179.172" x2="173.981" y1="123.759" y2="65.448" gradientUnits="userSpaceOnUse" xlink:href="#linearGradient3295"/><linearGradient id="linearGradient3242" x1="47.968" x2="49.218" y1="16.139" y2="85.428" gradientTransform="translate(138.5,0)" gradientUnits="userSpaceOnUse" xlink:href="#linearGradient3202"/><linearGradient id="linearGradient3244" x1="87.468" x2="116.718" y1="-.361" y2="106.428" gradientTransform="translate(138.78748,-0.1385179)" gradientUnits="userSpaceOnUse" xlink:href="#linearGradient3260"/><linearGradient id="linearGradient3246" x1="196.468" x2="52.218" y1="63.139" y2="66.224" gradientTransform="translate(138.78748,-0.1385179)" gradientUnits="userSpaceOnUse" xlink:href="#linearGradient3260"/><radialGradient id="radialGradient3011" cx="180.331" cy="95.705" r="56" fx="180.331" fy="95.705" gradientTransform="matrix(1,0,0,1.1383929,0,-10.517857)" gradientUnits="userSpaceOnUse" xlink:href="#linearGradient6666"/><radialGradient id="radialGradient3017" cx="180.331" cy="95.705" r="56" fx="180.331" fy="95.705" gradientTransform="matrix(1,0,0,1.1383929,0,-10.517857)" gradientUnits="userSpaceOnUse" xlink:href="#linearGradient6666"/><radialGradient id="radialGradient3019" cx="180.331" cy="95.705" r="56" fx="180.331" fy="95.705" gradientTransform="matrix(1,0,0,1.1383929,0,-10.517857)" gradientUnits="userSpaceOnUse" xlink:href="#linearGradient6666"/><radialGradient id="radialGradient3022" cx="180.331" cy="95.705" r="56" fx="180.331" fy="95.705" gradientTransform="matrix(1,0,0,0.9801409,-108,-10.49071)" gradientUnits="userSpaceOnUse" xlink:href="#linearGradient6666"/><linearGradient id="linearGradient3040" x1="86.547" x2="84.946" y1="16.154" y2="77.34" gradientUnits="userSpaceOnUse" xlink:href="#linearGradient3202"/><linearGradient id="linearGradient3048" x1="86.547" x2="88.733" y1="16.154" y2="85.672" gradientTransform="translate(0,-71.953293)" gradientUnits="userSpaceOnUse" xlink:href="#linearGradient3202"/><linearGradient id="linearGradient3052" x1="86.547" x2="88.733" y1="16.154" y2="85.672" gradientTransform="translate(0,-70.953293)" gradientUnits="userSpaceOnUse" xlink:href="#linearGradient3202"/><linearGradient id="linearGradient3056" x1="86.547" x2="88.733" y1="16.154" y2="85.672" gradientTransform="translate(-110.95955,-70.953293)" gradientUnits="userSpaceOnUse" xlink:href="#linearGradient3202"/><linearGradient id="linearGradient3060" x1="86.547" x2="88.733" y1="16.154" y2="85.672" gradientTransform="translate(-111.95955,-71.953293)" gradientUnits="userSpaceOnUse" xlink:href="#linearGradient3202"/><linearGradient id="linearGradient3066" x1="86.547" x2="88.733" y1="16.154" y2="85.672" gradientTransform="translate(-112.95955,-71.753293)" gradientUnits="userSpaceOnUse" xlink:href="#linearGradient3202"/><linearGradient id="linearGradient3068" x1="86.547" x2="88.733" y1="16.154" y2="85.672" gradientTransform="translate(-110.95955,-70.953293)" gradientUnits="userSpaceOnUse" xlink:href="#linearGradient3202"/><linearGradient id="linearGradient3073" x1="86.547" x2="88.733" y1="16.154" y2="85.672" gradientTransform="translate(0,-71.953293)" gradientUnits="userSpaceOnUse" xlink:href="#linearGradient3202"/><radialGradient id="radialGradient2433" cx="136.614" cy="76.11" r="56" fx="136.614" fy="76.11" gradientTransform="matrix(1,0,0,1.1383929,0,-10.517857)" gradientUnits="userSpaceOnUse" xlink:href="#linearGradient3202"/><linearGradient id="linearGradient3020" x1="63.933" x2="66.207" y1="7.567" y2="7.567" gradientUnits="userSpaceOnUse" spreadMethod="reflect" xlink:href="#linearGradient3295"/><filter id="filter3084" width="1.201" height="1.154" x="-.101" y="-.077"><feGaussianBlur id="feGaussianBlur3086" stdDeviation=".199"/></filter><radialGradient id="radialGradient3096" cx="180.331" cy="95.705" r="56" fx="180.331" fy="95.705" gradientTransform="matrix(1,0,0,1.1383929,0,-10.517857)" gradientUnits="userSpaceOnUse" xlink:href="#linearGradient6666"/><linearGradient id="linearGradient3125" x1="84.481" x2="85.488" y1="2.01" y2="88.884" gradientTransform="matrix(1,0,0,-1,0,128.03148)" gradientUnits="userSpaceOnUse" xlink:href="#linearGradient3202"/><linearGradient id="linearGradient3146" x1="84.481" x2="86.024" y1="2.01" y2="66.122" gradientTransform="matrix(1,0,0,-1,-0.2010371,127.93148)" gradientUnits="userSpaceOnUse" xlink:href="#linearGradient6446"/><linearGradient id="linearGradient3148" x1="103.762" x2="87.095" y1="85.515" y2="48.984" gradientTransform="matrix(1,0,0,-1,-0.1976871,127.93148)" gradientUnits="userSpaceOnUse" xlink:href="#linearGradient3260"/><radialGradient id="radialGradient3027" cx="64" cy="46.528" r="53.298" fx="64" fy="46.528" gradientTransform="matrix(2.4136387,2.463228e-2,-2.9850441e-3,0.2924948,-90.33399,29.622935)" gradientUnits="userSpaceOnUse" xlink:href="#linearGradient3202"/><radialGradient id="radialGradient3035" cx="136.614" cy="76.11" r="56" fx="136.614" fy="76.11" gradientTransform="matrix(1,0,0,1.1383929,0,-10.517857)" gradientUnits="userSpaceOnUse" xlink:href="#linearGradient6666"/><radialGradient id="radialGradient3037" cx="180.331" cy="95.705" r="56" fx="180.331" fy="95.705" gradientTransform="matrix(1,0,0,1.1383929,0,-10.517857)" gradientUnits="userSpaceOnUse" xlink:href="#linearGradient6666"/><radialGradient id="radialGradient3040" cx="136.614" cy="76.11" r="56" fx="136.614" fy="76.11" gradientTransform="matrix(0,-1,-0.9801409,0,138.45379,236.01574)" gradientUnits="userSpaceOnUse" xlink:href="#linearGradient6666"/><linearGradient id="linearGradient3049" x1="111.812" x2="112" y1="2.803" y2="75.104" gradientUnits="userSpaceOnUse" xlink:href="#linearGradient3202"/><linearGradient id="linearGradient3053" x1="111.812" x2="112" y1="2.803" y2="75.104" gradientTransform="translate(-141.92469,0)" gradientUnits="userSpaceOnUse" xlink:href="#linearGradient3202"/><linearGradient id="linearGradient3057" x1="111.812" x2="112" y1="2.803" y2="75.104" gradientTransform="translate(-247.43097,0)" gradientUnits="userSpaceOnUse" xlink:href="#linearGradient3202"/><linearGradient id="linearGradient3061" x1="111.812" x2="112" y1="2.803" y2="75.104" gradientTransform="translate(-141.92469,1)" gradientUnits="userSpaceOnUse" xlink:href="#linearGradient3202"/><linearGradient id="linearGradient3067" x1="111.812" x2="112" y1="2.803" y2="75.104" gradientTransform="matrix(1,-2.2329803e-2,0,1,-248.03097,0.4256102)" gradientUnits="userSpaceOnUse" xlink:href="#linearGradient3202"/><linearGradient id="linearGradient3070" x1="82.088" x2="50.946" y1="82.067" y2="22.887" gradientTransform="translate(-141.92552,0)" gradientUnits="userSpaceOnUse" xlink:href="#linearGradient6446"/><linearGradient id="linearGradient3072" x1="111.812" x2="112" y1="2.803" y2="75.104" gradientTransform="translate(-141.92469,0)" gradientUnits="userSpaceOnUse" xlink:href="#linearGradient3260"/><linearGradient id="linearGradient3078" x1="111.812" x2="112" y1="2.803" y2="75.104" gradientTransform="translate(-141.92469,0)" gradientUnits="userSpaceOnUse" xlink:href="#linearGradient3260"/><linearGradient id="linearGradient3080" x1="79.738" x2="50.946" y1="82.602" y2="22.887" gradientTransform="translate(-141.92552,0)" gradientUnits="userSpaceOnUse" xlink:href="#linearGradient6446"/><linearGradient id="linearGradient4225" x1="214.597" x2="321.539" y1="76.125" y2="76.125" gradientUnits="userSpaceOnUse" xlink:href="#linearGradient3202"/></defs><metadata id="metadata2611"/><g id="layer1"><path id="path2488" d="M 115.79764,54.79699 L 66.815298,122.4638 C 66.11003,123.44714 65.065036,124.01574 63.963082,124.01574 C 62.861128,124.01574 61.816134,123.44714 61.110866,122.4638 L 12.137772,54.10949 C 9.5073815,49.96637 9.1346616,44.01574 14.963082,44.01574 L 39.963078,44.01574 L 39.963078,12.015744 C 39.962424,9.633704 41.912031,8.014984 43.963082,8.015744 L 83.963082,8.015744 C 86.014132,8.014984 87.963738,9.633704 87.963082,12.015744 L 87.963082,44.01574 L 111.96309,44.01574 C 115.85422,44.01574 118.51638,51.03626 115.79764,54.79699 z" style="fill:url(#linearGradient3409);fill-opacity:1;fill-rule:evenodd;stroke:none;stroke-width:8.62137889999999985;stroke-linecap:round;stroke-linejoin:round;stroke-miterlimit:4;stroke-dasharray:none;stroke-opacity:1"/><path id="path3532" d="M 115.79764,54.79699 L 66.815298,122.4638 C 66.11003,123.44714 65.065036,124.01574 63.963082,124.01574 C 62.861128,124.01574 61.816134,123.44714 61.110866,122.4638 L 12.137772,54.10949 C 9.5073815,49.96637 9.1346616,44.01574 14.963082,44.01574 L 39.963078,44.01574 L 39.963078,20.015744 C 39.962424,17.633704 41.912031,16.014984 43.963082,16.015744 L 83.963082,16.015744 C 86.014132,16.014984 87.963738,17.633704 87.963082,20.015744 L 87.963082,44.01574 L 111.96309,44.01574 C 115.85422,44.01574 118.51638,51.03626 115.79764,54.79699 z" style="opacity:.25468163999999999;fill:url(#radialGradient3534);fill-opacity:1;fill-rule:evenodd;stroke:none;stroke-width:8.62137889999999985;stroke-linecap:round;stroke-linejoin:round;stroke-miterlimit:4;stroke-dasharray:none;stroke-opacity:1"/><path style="fill:url(#linearGradient3301);fill-opacity:1;fill-rule:evenodd;stroke:none;stroke-width:1px;stroke-linecap:butt;stroke-linejoin:miter;stroke-opacity:1;filter:url(#filter3387)" id="path3272" d="M 76.5,11.0625 C 75.422912,11.127783 74.386099,11.439286 73.5,12 L 75.875,19.625 L 84,16.46875 L 84,16 C 84,13.081648 80.061079,10.84666 76.5,11.0625 z" transform="matrix(0,-1,-1,0,127.96309,128.01574)"/><path id="path3519" d="M 115.65112,40 C 115.31168,41.154561 113.08862,46.125 113.08862,46.125 L 119.83862,46.09375 L 119.83862,44 C 119.83938,41.94895 118.22066,39.999344 115.83862,40 L 115.65112,40 z" transform="matrix(0,-1,1,0,-0.1619184,128.01574)" style="opacity:1;fill:url(#linearGradient3521);fill-opacity:1;fill-rule:evenodd;stroke:none;stroke-width:8.62137889999999985;stroke-linecap:round;stroke-linejoin:round;stroke-miterlimit:4;stroke-dasharray:none;stroke-opacity:1;filter:url(#filter3443)"/><path style="fill:url(#radialGradient3455);fill-opacity:1;fill-rule:evenodd;stroke:none;stroke-width:8.62137889999999985;stroke-linecap:round;stroke-linejoin:round;stroke-miterlimit:4;stroke-dasharray:none;stroke-opacity:1" id="path3447" d="M 115.79764,54.79699 L 66.815298,122.4638 C 66.11003,123.44714 65.065036,124.01574 63.963082,124.01574 C 62.861128,124.01574 61.816134,123.44714 61.110866,122.4638 L 12.137772,54.10949 C 9.5073815,49.96637 9.1346616,44.01574 14.963082,44.01574 L 39.963078,44.01574 L 39.963078,20.015744 C 39.962424,17.633704 41.912031,16.014984 43.963082,16.015744 L 83.963082,16.015744 C 86.014132,16.014984 87.963738,17.633704 87.963082,20.015744 L 87.963082,44.01574 L 111.96309,44.01574 C 115.85422,44.01574 118.51638,51.03626 115.79764,54.79699 z"/><path id="path3391" d="M 72.5,11.0625 C 71.422912,11.127783 70.386099,11.439286 69.5,12 L 71.875,19.625 L 80,16.46875 L 80,16 C 80,13.081648 76.061079,10.84666 72.5,11.0625 z" transform="matrix(0,-0.8316412,1,0,-0.8210684,110.54704)" style="opacity:.70411986999999998;fill:url(#linearGradient3393);fill-opacity:1;fill-rule:evenodd;stroke:none;stroke-width:1px;stroke-linecap:butt;stroke-linejoin:miter;stroke-opacity:1;filter:url(#filter3387)"/><path style="opacity:1;fill:url(#linearGradient3530);fill-opacity:1;fill-rule:evenodd;stroke:none;stroke-width:8.62137889999999985;stroke-linecap:round;stroke-linejoin:round;stroke-miterlimit:4;stroke-dasharray:none;stroke-opacity:1;filter:url(#filter3443)" id="path3528" d="M 115.65112,40 C 115.31168,41.154561 113.08862,46.125 113.08862,46.125 L 119.83862,46.09375 L 119.83862,44 C 119.83938,41.94895 118.22066,39.999344 115.83862,40 L 115.65112,40 z" transform="matrix(0.9995972,2.8382138e-2,-2.8382138e-2,0.9995972,-30.523448,-35.102306)"/><path style="fill:url(#linearGradient3020);fill-opacity:1;fill-rule:evenodd;stroke:none;stroke-width:1px;stroke-linecap:butt;stroke-linejoin:miter;stroke-opacity:1;filter:url(#filter3084)" id="path3012" d="M 61.556485,5.2217571 C 63.245625,3.7628596 64.797743,4.1537676 66.309624,5.0878658 L 64.066946,10.476987 L 61.556485,5.2217571 z" transform="matrix(1,0,0,-1,0,128.03148)"/><path style="fill:url(#radialGradient3027);fill-opacity:1;fill-rule:evenodd;stroke:none;stroke-width:8.62137889999999985;stroke-linecap:round;stroke-linejoin:round;stroke-miterlimit:4;stroke-dasharray:none;stroke-opacity:1" id="path3019" d="M 115.79764,54.79699 L 66.815298,122.4638 C 66.11003,123.44714 65.065036,124.01574 63.963082,124.01574 C 62.861128,124.01574 61.816134,123.44714 61.110866,122.4638 L 12.137772,54.10949 C 9.5073815,49.96637 9.1346616,44.01574 14.963082,44.01574 L 39.963078,44.01574 L 39.963078,23.015744 C 39.962424,20.633704 41.912031,19.014984 43.963082,19.015744 L 83.963082,19.015744 C 86.014132,19.014984 87.963738,20.633704 87.963082,23.015744 L 87.963082,44.01574 L 111.96309,44.01574 C 115.85422,44.01574 118.51638,51.03626 115.79764,54.79699 z"/><g style="fill:url(#radialGradient3011);fill-opacity:1;stroke:none;stroke-width:16;stroke-linecap:round;stroke-linejoin:round;stroke-miterlimit:4;stroke-dasharray:none" id="g3472" transform="matrix(0,-1,-0.8609865,0,129.39806,236.01574)"><path id="path3474" d="M 181.55044,21.46494 L 118.90547,73.574667 C 117.51967,75.184209 117.7415,76.595845 118.80303,77.828769 L 180,129.07866 C 184,132.6608 188,132.85189 188,129.07866 L 188,99.229172 L 224,99.229172 L 224,52.770836 L 188,52.770836 L 188,23.929232 C 188,20.738359 184.84713,19.254283 181.55044,21.46494 z" style="fill:url(#radialGradient2433);fill-opacity:1;fill-rule:evenodd;stroke:none;stroke-width:16;stroke-linecap:round;stroke-linejoin:round;stroke-miterlimit:4;stroke-dasharray:none;stroke-opacity:1"/></g><g style="fill:none;fill-opacity:1;stroke:url(#linearGradient2226);stroke-width:1.07770979;stroke-linecap:round;stroke-linejoin:round;stroke-miterlimit:4;stroke-dasharray:none;stroke-opacity:1;filter:url(#filter3187)" id="g3469" transform="matrix(0,-1,-0.8609865,0,129.59806,333.21877)"><path id="path3471" d="M 278.55044,21.46494 L 216.10547,73.806959 C 214.71967,75.416501 214.9415,76.828137 216.00303,78.061061 L 277,129.07866 C 281,132.6608 285,132.85189 285,129.07866 L 285,99.229172 L 321,99.229172 L 321,52.770836 L 285,52.770836 L 285,23.929232 C 285,20.738359 281.84713,19.254283 278.55044,21.46494 z" style="fill:url(#linearGradient4225);fill-opacity:1;fill-rule:evenodd;stroke:url(#linearGradient2228);stroke-width:1.07770978999999989;stroke-linecap:round;stroke-linejoin:round;stroke-miterlimit:4;stroke-dasharray:none;stroke-opacity:1"/></g><path style="opacity:1;fill:url(#linearGradient3049);fill-opacity:1;stroke:none;stroke-width:.10000000000000001;stroke-linecap:round;stroke-linejoin:round;stroke-miterlimit:4;stroke-dasharray:none;stroke-dashoffset:4.15000000000000036;stroke-opacity:1" id="path3029" d="M 43.96875 12.03125 L 43.96875 48.03125 L 18.25 48.03125 C 15.0013 48.03125 15.165825 52.031251 18.25 56.03125 L 27.40625 69.09375 C 32.460376 69.433901 37.610767 69.625 42.84375 69.625 C 66.555576 69.625 88.633534 66.014051 107.15625 59.8125 L 110.90625 54.46875 C 112.80959 51.17206 111.52855 48.031251 108.78125 48.03125 L 83.96875 48.03125 L 83.96875 12.03125 L 43.96875 12.03125 z"/><g id="g3074" transform="translate(142.18711,0)"><path id="path3051" d="M -97.96875,12.03125 L -97.96875,13.03125 L -57.96875,13.03125 L -57.96875,12.03125 L -97.96875,12.03125 z M -123.6875,48.03125 C -125.45036,48.03125 -126.1996,49.220989 -126.03125,50.9375 C -125.85762,49.775642 -125.08492,49.03125 -123.6875,49.03125 L -97.96875,49.03125 L -97.96875,48.03125 L -123.6875,48.03125 z M -57.96875,48.03125 L -57.96875,49.03125 L -33.15625,49.03125 C -31.472233,49.031251 -30.342711,50.202253 -30.15625,51.875 C -29.933951,49.692098 -31.152834,48.031251 -33.15625,48.03125 L -57.96875,48.03125 z" style="opacity:1;fill:url(#linearGradient3078);fill-opacity:1;stroke:none;stroke-width:.1;stroke-linecap:round;stroke-linejoin:round;stroke-miterlimit:4;stroke-dasharray:none;stroke-dashoffset:4.15;stroke-opacity:1"/><path id="path3055" d="M -58.557057,12.03125 L -58.557057,46.59375 L -57.963307,46.59375 L -57.963307,12.03125 L -58.557057,12.03125 z M -30.713307,49.28125 C -30.708167,50.229553 -30.489897,51.501582 -31.119557,52.60625 L -35.169557,58.24375 C -53.692277,64.85891 -75.970217,68.564269 -99.682057,69.09375 C -104.75401,69.207005 -109.74645,69.14874 -114.6508,68.9375 L -114.5258,69.09375 C -109.47167,69.433901 -104.32128,69.625 -99.088307,69.625 C -75.376477,69.625 -53.298527,66.014051 -34.775807,59.8125 L -31.025807,54.46875 C -29.864297,52.456956 -29.893537,50.4986 -30.713307,49.28125 z" style="opacity:1;fill:url(#linearGradient3080);fill-opacity:1;stroke:none;stroke-width:.10000000000000001;stroke-linecap:round;stroke-linejoin:round;stroke-miterlimit:4;stroke-dasharray:none;stroke-dashoffset:4.15000000000000036;stroke-opacity:1"/></g></g></svg>