<svg xmlns="http://www.w3.org/2000/svg" xmlns:svg="http://www.w3.org/2000/svg" xmlns:xlink="http://www.w3.org/1999/xlink" id="svg2" width="128" height="128" version="1.0"><metadata id="metadata4453"/><defs id="defs4"><linearGradient id="linearGradient4630"><stop style="stop-color:#c83737;stop-opacity:1" id="stop4632" offset="0"/><stop style="stop-color:maroon;stop-opacity:1" id="stop4634" offset="1"/></linearGradient><linearGradient id="linearGradient4624"><stop style="stop-color:red;stop-opacity:1" id="stop4626" offset="0"/><stop style="stop-color:maroon;stop-opacity:1" id="stop4628" offset="1"/></linearGradient><linearGradient id="linearGradient4618"><stop style="stop-color:red;stop-opacity:1" id="stop4620" offset="0"/><stop style="stop-color:maroon;stop-opacity:1" id="stop4622" offset="1"/></linearGradient><linearGradient id="linearGradient4167"><stop id="stop4169" offset="0" style="stop-color:#fff;stop-opacity:1"/><stop id="stop4171" offset="1" style="stop-color:#fff;stop-opacity:0"/></linearGradient><linearGradient id="linearGradient4150"><stop id="stop4152" offset="0" style="stop-color:#bfffbf;stop-opacity:1"/><stop id="stop4154" offset="1" style="stop-color:#bfffbf;stop-opacity:0"/></linearGradient><linearGradient id="linearGradient3409"><stop id="stop3411" offset="0" style="stop-color:#fff;stop-opacity:1"/><stop id="stop3413" offset="1" style="stop-color:#fff;stop-opacity:0"/></linearGradient><linearGradient id="linearGradient3362"><stop id="stop3364" offset="0" style="stop-color:#bfffbf;stop-opacity:1"/><stop id="stop3366" offset="1" style="stop-color:#bfffbf;stop-opacity:0"/></linearGradient><linearGradient id="linearGradient3355"><stop id="stop3357" offset="0" style="stop-color:#e0ffe0;stop-opacity:1"/><stop id="stop3359" offset="1" style="stop-color:#bfffbf;stop-opacity:0"/></linearGradient><linearGradient id="linearGradient3349"><stop id="stop3351" offset="0" style="stop-color:#0d0;stop-opacity:1"/><stop id="stop3353" offset="1" style="stop-color:#000e00;stop-opacity:1"/></linearGradient><linearGradient id="linearGradient3342"><stop id="stop3344" offset="0" style="stop-color:#0f0;stop-opacity:1"/><stop id="stop3346" offset="1" style="stop-color:#004d00;stop-opacity:1"/></linearGradient><linearGradient id="linearGradient3710"><stop id="stop3712" offset="0" style="stop-color:#fff;stop-opacity:1"/><stop id="stop3714" offset="1" style="stop-color:#fff;stop-opacity:0"/></linearGradient><linearGradient id="linearGradient3669"><stop id="stop3671" offset="0" style="stop-color:#fff;stop-opacity:1"/><stop id="stop3673" offset="1" style="stop-color:#fff;stop-opacity:0"/></linearGradient><linearGradient id="linearGradient3511"><stop id="stop3513" offset="0" style="stop-color:#002a0d;stop-opacity:1"/><stop id="stop3515" offset="1" style="stop-color:#002a0d;stop-opacity:0"/></linearGradient><radialGradient id="radialGradient2854" cx="538.773" cy="651.104" r="126.023" gradientTransform="translate(-484,-674)" gradientUnits="userSpaceOnUse"><stop id="stop2856" offset="0" style="stop-color:#cbcbcb;stop-opacity:1"/><stop id="stop2858" offset=".539" style="stop-color:#282828;stop-opacity:1"/><stop id="stop2860" offset="1" style="stop-color:#9d9d9d;stop-opacity:1"/></radialGradient><linearGradient id="linearGradient2862" x1="538.773" x2="538.773" y1="677.877" y2="789.122" gradientTransform="translate(-484,-674)" gradientUnits="userSpaceOnUse"><stop id="stop2864" offset=".006" style="stop-color:#4d4d4d;stop-opacity:1"/><stop id="stop2866" offset=".135" style="stop-color:#676767;stop-opacity:1"/><stop id="stop2868" offset=".483" style="stop-color:#b2b2b2;stop-opacity:1"/><stop id="stop2870" offset=".63" style="stop-color:#aaa;stop-opacity:1"/><stop id="stop2872" offset=".853" style="stop-color:#a1a1a1;stop-opacity:1"/><stop id="stop2874" offset="1" style="stop-color:#9d9d9d;stop-opacity:1"/></linearGradient><radialGradient id="radialGradient2876" cx="538.773" cy="792.996" r="121.547" gradientTransform="translate(-484,-674)" gradientUnits="userSpaceOnUse"><stop id="stop2878" offset="0" style="stop-color:#d9d9d9;stop-opacity:1"/><stop id="stop2880" offset=".049" style="stop-color:#c7c7c7;stop-opacity:1"/><stop id="stop2882" offset=".105" style="stop-color:#b9b9b9;stop-opacity:1"/><stop id="stop2884" offset=".143" style="stop-color:#aeaeae;stop-opacity:1"/><stop id="stop2886" offset=".216" style="stop-color:#a9a9a9;stop-opacity:1"/><stop id="stop2888" offset=".27" style="stop-color:#a6a6a6;stop-opacity:1"/><stop id="stop2890" offset=".399" style="stop-color:#676767;stop-opacity:1"/><stop id="stop2892" offset=".4" style="stop-color:#676767;stop-opacity:1"/><stop id="stop2894" offset=".448" style="stop-color:#545454;stop-opacity:1"/><stop id="stop2896" offset=".496" style="stop-color:#414141;stop-opacity:1"/><stop id="stop2898" offset=".54" style="stop-color:#353535;stop-opacity:1"/><stop id="stop2900" offset=".571" style="stop-color:#313131;stop-opacity:1"/><stop id="stop2902" offset=".595" style="stop-color:#3e3e3e;stop-opacity:1"/><stop id="stop2904" offset=".646" style="stop-color:#5f5f5f;stop-opacity:1"/><stop id="stop2906" offset=".693" style="stop-color:#707070;stop-opacity:1"/><stop id="stop2908" offset=".736" style="stop-color:#7b7b7b;stop-opacity:1"/><stop id="stop2910" offset=".77" style="stop-color:#7f7f7f;stop-opacity:1"/><stop id="stop2912" offset="1" style="stop-color:#313131;stop-opacity:1"/></radialGradient><linearGradient id="linearGradient2914" x1="538.773" x2="538.773" y1="793" y2="674" gradientTransform="translate(-484,-674)" gradientUnits="userSpaceOnUse"><stop id="stop2916" offset="0" style="stop-color:#262626;stop-opacity:1"/><stop id="stop2918" offset=".112" style="stop-color:#313131;stop-opacity:1"/><stop id="stop2920" offset=".375" style="stop-color:#4d4d4d;stop-opacity:1"/><stop id="stop2922" offset=".423" style="stop-color:#505050;stop-opacity:1"/><stop id="stop2924" offset=".437" style="stop-color:#575757;stop-opacity:1"/><stop id="stop2926" offset=".449" style="stop-color:#646464;stop-opacity:1"/><stop id="stop2928" offset=".461" style="stop-color:#757575;stop-opacity:1"/><stop id="stop2930" offset=".471" style="stop-color:#8a8a8a;stop-opacity:1"/><stop id="stop2932" offset=".481" style="stop-color:#a3a3a3;stop-opacity:1"/><stop id="stop2934" offset=".491" style="stop-color:silver;stop-opacity:1"/><stop id="stop2936" offset=".494" style="stop-color:#dfdfdf;stop-opacity:1"/><stop id="stop2938" offset=".517" style="stop-color:#afafaf;stop-opacity:1"/><stop id="stop2940" offset=".533" style="stop-color:#949494;stop-opacity:1"/><stop id="stop2942" offset=".555" style="stop-color:#7c7c7c;stop-opacity:1"/><stop id="stop2944" offset=".585" style="stop-color:#656565;stop-opacity:1"/><stop id="stop2946" offset=".609" style="stop-color:#525252;stop-opacity:1"/><stop id="stop2948" offset=".642" style="stop-color:#434343;stop-opacity:1"/><stop id="stop2951" offset=".693" style="stop-color:#393939;stop-opacity:1"/><stop id="stop2953" offset=".74" style="stop-color:#333;stop-opacity:1"/><stop id="stop2955" offset=".899" style="stop-color:#313131;stop-opacity:1"/><stop id="stop2957" offset="1" style="stop-color:#a6a8a4;stop-opacity:1"/></linearGradient><radialGradient id="path2295_1_" cx="265.393" cy="-6078.353" r="253.019" fx="369.524" fy="-6078.353" gradientTransform="matrix(0.183616,0,0,-1.462967e-2,-0.962917,-7.25873)" gradientUnits="userSpaceOnUse"><stop id="stop8" offset="0" style="stop-color:#000;stop-opacity:1"/><stop id="stop10" offset="1" style="stop-color:#fff;stop-opacity:1"/></radialGradient><filter id="filter3681" width="1.245" height="1.158" x="-.122" y="-.079"><feGaussianBlur id="feGaussianBlur3683" stdDeviation=".322"/></filter><filter id="filter3722" width="1.904" height="1.598" x="-.452" y="-.299"><feGaussianBlur id="feGaussianBlur3724" stdDeviation="1.348"/></filter><filter id="filter3435"><feGaussianBlur id="feGaussianBlur3437" stdDeviation=".395"/></filter><filter id="filter3467"><feGaussianBlur id="feGaussianBlur3469" stdDeviation=".435"/></filter><linearGradient id="linearGradient4009" x1="71.626" x2="46.226" y1="123.739" y2="28.943" gradientTransform="translate(-28,0)" gradientUnits="userSpaceOnUse" xlink:href="#linearGradient3342"/><radialGradient id="radialGradient4011" cx="71.775" cy="16.087" r="3.156" fx="71.775" fy="16.087" gradientTransform="matrix(0.9650814,0.2619502,-0.9201984,3.3902106,-6.690938,-57.693239)" gradientUnits="userSpaceOnUse" xlink:href="#linearGradient3669"/><linearGradient id="linearGradient4013" x1="96.373" x2="96.373" y1="120.428" y2="46.09" gradientTransform="translate(-24,0)" gradientUnits="userSpaceOnUse" xlink:href="#linearGradient3511"/><radialGradient id="radialGradient4017" cx="11.578" cy="64.531" r="3.578" fx="11.578" fy="64.531" gradientTransform="matrix(6.5079869,0,0,1.510917,-63.772161,-32.970115)" gradientUnits="userSpaceOnUse" xlink:href="#linearGradient3710"/><radialGradient id="radialGradient4019" cx="53.63" cy="79.056" r="50" fx="57.059" fy="91.805" gradientTransform="matrix(1.4429896,7.9739349e-8,-7.654978e-8,1.3852701,-54.365246,-31.441692)" gradientUnits="userSpaceOnUse" xlink:href="#linearGradient3349"/><linearGradient id="linearGradient4021" x1="91.785" x2="91.993" y1="112.5" y2="44.287" gradientTransform="translate(-24,0)" gradientUnits="userSpaceOnUse" xlink:href="#linearGradient3355"/><linearGradient id="linearGradient4023" x1="62" x2="87.011" y1="12.9" y2="69.693" gradientTransform="translate(-44,0)" gradientUnits="userSpaceOnUse" xlink:href="#linearGradient3362"/><linearGradient id="linearGradient4025" x1="103.749" x2="72.5" y1="84.079" y2="37.75" gradientTransform="translate(-44,0)" gradientUnits="userSpaceOnUse" xlink:href="#linearGradient3409"/><linearGradient id="linearGradient4027" x1="93.469" x2="97.777" y1="10.426" y2="55.545" gradientTransform="translate(-44,0)" gradientUnits="userSpaceOnUse" xlink:href="#linearGradient3409"/><linearGradient id="linearGradient4029" x1="71.626" x2="46.226" y1="123.739" y2="28.943" gradientTransform="translate(-28,0)" gradientUnits="userSpaceOnUse" xlink:href="#linearGradient3342"/><radialGradient id="radialGradient4031" cx="71.775" cy="16.087" r="3.156" fx="71.775" fy="16.087" gradientTransform="matrix(0.9650814,0.2619502,-0.9201984,3.3902106,-6.690938,-57.693239)" gradientUnits="userSpaceOnUse" xlink:href="#linearGradient3669"/><linearGradient id="linearGradient4033" x1="96.373" x2="96.373" y1="120.428" y2="46.09" gradientTransform="translate(-24,0)" gradientUnits="userSpaceOnUse" xlink:href="#linearGradient3511"/><radialGradient id="radialGradient4039" cx="53.63" cy="79.056" r="50" fx="57.059" fy="91.805" gradientTransform="matrix(1.4429896,7.9739349e-8,-7.654978e-8,1.3852701,-54.365246,-31.441692)" gradientUnits="userSpaceOnUse" xlink:href="#linearGradient3349"/><linearGradient id="linearGradient4041" x1="91.785" x2="91.993" y1="112.5" y2="44.287" gradientTransform="translate(-24,0)" gradientUnits="userSpaceOnUse" xlink:href="#linearGradient3355"/><linearGradient id="linearGradient4043" x1="62" x2="87.011" y1="12.9" y2="69.693" gradientTransform="translate(-44,0)" gradientUnits="userSpaceOnUse" xlink:href="#linearGradient3362"/><linearGradient id="linearGradient4045" x1="103.749" x2="72.5" y1="84.079" y2="37.75" gradientTransform="translate(-44,0)" gradientUnits="userSpaceOnUse" xlink:href="#linearGradient3409"/><linearGradient id="linearGradient4047" x1="93.469" x2="97.777" y1="10.426" y2="55.545" gradientTransform="translate(-44,0)" gradientUnits="userSpaceOnUse" xlink:href="#linearGradient3409"/><linearGradient id="linearGradient4068" x1="93.469" x2="97.777" y1="10.426" y2="55.545" gradientTransform="translate(-36,0)" gradientUnits="userSpaceOnUse" xlink:href="#linearGradient3409"/><linearGradient id="linearGradient4071" x1="103.749" x2="72.5" y1="84.079" y2="37.75" gradientTransform="translate(-36,0)" gradientUnits="userSpaceOnUse" xlink:href="#linearGradient3409"/><linearGradient id="linearGradient4074" x1="62" x2="87.011" y1="12.9" y2="69.693" gradientTransform="translate(-36,0)" gradientUnits="userSpaceOnUse" xlink:href="#linearGradient3362"/><linearGradient id="linearGradient4077" x1="91.785" x2="91.993" y1="112.5" y2="44.287" gradientTransform="translate(-16,0)" gradientUnits="userSpaceOnUse" xlink:href="#linearGradient3355"/><radialGradient id="radialGradient4080" cx="53.63" cy="79.056" r="50" fx="57.059" fy="91.805" gradientTransform="matrix(1.4429896,7.9739349e-8,-7.654978e-8,1.3852701,-46.365246,-31.441692)" gradientUnits="userSpaceOnUse" xlink:href="#linearGradient3349"/><linearGradient id="linearGradient4085" x1="96.373" x2="96.373" y1="120.428" y2="46.09" gradientTransform="translate(-16,0)" gradientUnits="userSpaceOnUse" xlink:href="#linearGradient3511"/><linearGradient id="linearGradient4091" x1="71.626" x2="46.226" y1="123.739" y2="28.943" gradientTransform="translate(-20,0)" gradientUnits="userSpaceOnUse" xlink:href="#linearGradient3342"/><linearGradient id="linearGradient4095" x1="93.469" x2="97.777" y1="10.426" y2="55.545" gradientTransform="translate(-4,0)" gradientUnits="userSpaceOnUse" xlink:href="#linearGradient3409"/><linearGradient id="linearGradient4098" x1="103.749" x2="72.5" y1="84.079" y2="37.75" gradientTransform="translate(-4,0)" gradientUnits="userSpaceOnUse" xlink:href="#linearGradient3409"/><linearGradient id="linearGradient4101" x1="62" x2="87.011" y1="12.9" y2="69.693" gradientTransform="translate(-4,0)" gradientUnits="userSpaceOnUse" xlink:href="#linearGradient3362"/><linearGradient id="linearGradient4104" x1="91.785" x2="91.993" y1="112.5" y2="44.287" gradientTransform="translate(36,0)" gradientUnits="userSpaceOnUse" xlink:href="#linearGradient3355"/><radialGradient id="radialGradient4107" cx="53.63" cy="79.056" r="50" fx="57.059" fy="91.805" gradientTransform="matrix(1.4429896,7.9739349e-8,-7.654978e-8,1.3852701,5.634754,-31.441692)" gradientUnits="userSpaceOnUse" xlink:href="#linearGradient3349"/><linearGradient id="linearGradient4112" x1="96.373" x2="96.373" y1="120.428" y2="46.09" gradientTransform="translate(36,0)" gradientUnits="userSpaceOnUse" xlink:href="#linearGradient3511"/><linearGradient id="linearGradient4118" x1="71.626" x2="46.226" y1="123.739" y2="28.943" gradientTransform="translate(12,0)" gradientUnits="userSpaceOnUse" xlink:href="#linearGradient3342"/><linearGradient id="linearGradient4129" x1="71.626" x2="46.226" y1="123.739" y2="28.943" gradientTransform="translate(32,0)" gradientUnits="userSpaceOnUse" xlink:href="#linearGradient3342"/><radialGradient id="radialGradient4145" cx="47.935" cy="77.573" r="50" fx="48.231" fy="84.389" gradientTransform="matrix(1.4429896,7.9739349e-8,-7.654978e-8,1.3852701,5.634754,-31.441692)" gradientUnits="userSpaceOnUse" xlink:href="#linearGradient3349"/><linearGradient id="linearGradient4162" x1="35.63" x2="46.759" y1="11.48" y2="70.828" gradientTransform="matrix(0.988811,0,0,0.9872502,-4.2657949e-2,0.2039966)" gradientUnits="userSpaceOnUse" xlink:href="#linearGradient4150"/><linearGradient id="linearGradient4164" x1="35.63" x2="46.759" y1="11.48" y2="70.828" gradientTransform="translate(20,0)" gradientUnits="userSpaceOnUse" xlink:href="#linearGradient4150"/><linearGradient id="linearGradient4179" x1="35.63" x2="46.759" y1="11.48" y2="70.828" gradientTransform="matrix(0.9955244,0,0,0.9872502,0.3938517,0.8203689)" gradientUnits="userSpaceOnUse" xlink:href="#linearGradient4150"/><linearGradient id="linearGradient4181" x1="35.63" x2="46.759" y1="11.48" y2="70.828" gradientTransform="translate(20,0)" gradientUnits="userSpaceOnUse" xlink:href="#linearGradient4150"/><linearGradient id="linearGradient2331" x1="71.626" x2="46.226" y1="123.739" y2="28.943" gradientTransform="translate(12,0)" gradientUnits="userSpaceOnUse" xlink:href="#linearGradient4630"/><radialGradient id="radialGradient2335" cx="47.935" cy="77.573" r="50" fx="48.231" fy="84.389" gradientTransform="matrix(1.4429896,7.9739349e-8,-7.654978e-8,1.3852701,-14.365246,-31.441692)" gradientUnits="userSpaceOnUse" xlink:href="#linearGradient4624"/><linearGradient id="linearGradient2337" x1="91.785" x2="91.993" y1="112.5" y2="44.287" gradientTransform="translate(16,0)" gradientUnits="userSpaceOnUse" xlink:href="#linearGradient3355"/><radialGradient id="radialGradient2339" cx="71.775" cy="16.087" r="3.156" fx="71.775" fy="16.087" gradientTransform="matrix(0.9650814,0.2619502,-0.9201984,3.3902106,33.309062,-57.693239)" gradientUnits="userSpaceOnUse" xlink:href="#linearGradient3669"/><radialGradient id="radialGradient2343" cx="71.775" cy="16.087" r="3.156" fx="71.775" fy="16.087" gradientTransform="matrix(0.9650814,0.2619502,-0.9201984,3.3902106,1.309062,-57.693239)" gradientUnits="userSpaceOnUse" xlink:href="#linearGradient3669"/><radialGradient id="radialGradient2347" cx="11.578" cy="64.531" r="3.578" fx="11.578" fy="64.531" gradientTransform="matrix(6.5079869,0,0,1.510917,-63.772161,-32.970115)" gradientUnits="userSpaceOnUse" xlink:href="#linearGradient3710"/><linearGradient id="linearGradient2349" x1="35.63" x2="46.759" y1="11.48" y2="70.828" gradientUnits="userSpaceOnUse" xlink:href="#linearGradient4618"/><linearGradient id="linearGradient2351" x1="117.16" x2="88.276" y1="85.01" y2="25.995" gradientUnits="userSpaceOnUse" xlink:href="#linearGradient4167"/><linearGradient id="linearGradient2353" x1="25.151" x2="23.063" y1="36.751" y2="56.204" gradientTransform="translate(20,0)" gradientUnits="userSpaceOnUse" xlink:href="#linearGradient4167"/></defs><g id="layer1"><g id="g3936" transform="translate(20,0)"><g id="g2316" transform="matrix(0,-1,1,0,-17.99577,107.99577)"><path id="path3987" d="M 55.875,12 C 55.009497,12.02693 54.176101,12.33398 53.5,12.875 L -6.5,60.875 C -7.449856,61.63413 -8,62.78406 -8,64 C -8,65.21594 -7.449856,66.36587 -6.5,67.125 L 53.5,115.125 C 54.700963,116.08613 56.332437,116.26025 57.71875,115.59375 C 59.105067,114.92725 60.000642,113.53821 60,112 L 60,94.71875 L 85.5,115.125 C 86.70096,116.08613 88.33244,116.26025 89.71875,115.59375 C 91.10507,114.92725 92.00064,113.53821 92,112 L 92,88.3125 L 92,83.875 L 92,83.1875 L 92,78.0625 L 92,49.9375 L 92,45 L 92,44.8125 L 92,39.6875 L 92,16 C 92.00042,14.91715 91.55863,13.87882 90.78125,13.125 C 90.00387,12.37118 88.95732,11.96627 87.875,12 C 87.0095,12.02693 86.1761,12.33398 85.5,12.875 L 60,33.28125 L 60,16 C 60.000417,14.91715 59.558627,13.87882 58.78125,13.125 C 58.003873,12.37118 56.957323,11.96627 55.875,12 z" style="opacity:.53694584000000001;fill:#d40000;fill-opacity:1;fill-rule:evenodd;stroke:#d40000;stroke-width:1;stroke-linecap:butt;stroke-linejoin:round;stroke-miterlimit:4;stroke-dasharray:none;stroke-opacity:1;filter:url(#filter3467)"/><path id="path3989" d="M 55.875,12 C 55.009497,12.02693 54.176101,12.33398 53.5,12.875 L -6.5,60.875 C -7.449856,61.63413 -8,62.78406 -8,64 C -8,65.21594 -7.449856,66.36587 -6.5,67.125 L 53.5,115.125 C 54.700963,116.08613 56.332437,116.26025 57.71875,115.59375 C 59.105067,114.92725 60.000642,113.53821 60,112 L 60,94.71875 L 85.5,115.125 C 86.70096,116.08613 88.33244,116.26025 89.71875,115.59375 C 91.10507,114.92725 92.00064,113.53821 92,112 L 92,88.3125 L 92,83.875 L 92,78.0625 L 92,49.9375 L 92,45 L 92,39.6875 L 92,16 C 92.00042,14.91715 91.55863,13.87882 90.78125,13.125 C 90.00387,12.37118 88.95732,11.96627 87.875,12 C 87.0095,12.02693 86.1761,12.33398 85.5,12.875 L 60,33.28125 L 60,16 C 60.000417,14.91715 59.558627,13.87882 58.78125,13.125 C 58.003873,12.37118 56.957323,11.96627 55.875,12 z M 52,24.3125 L 52,39.6875 L 46.59375,44 L 37,44 C 36.446,44 36,44.446 36,45 L 36,52.46875 L 25.5,60.875 C 24.550144,61.63413 24,62.78406 24,64 C 24,65.21594 24.550144,66.36587 25.5,67.125 L 36,75.53125 L 36,83.875 C 36,84.429 36.446,84.875 37,84.875 L 47.6875,84.875 L 52,88.3125 L 52,103.6875 L 2.40625,64 L 52,24.3125 z M 84,24.3125 L 84,44 L 69,44 C 68.446,44 68,44.446 68,45 L 68,83.875 C 68,84.429 68.446,84.875 69,84.875 L 84,84.875 L 84,103.6875 L 60,84.46875 L 60,83.875 L 60,78.0625 L 60,49.9375 L 60,45 L 60,43.53125 L 84,24.3125 z M 36,62.71875 L 36,65.28125 L 34.40625,64 L 36,62.71875 z" style="fill:url(#linearGradient2331);fill-opacity:1;fill-rule:evenodd;stroke:none;stroke-width:8;stroke-linecap:butt;stroke-linejoin:round;stroke-miterlimit:4;stroke-dasharray:none;stroke-opacity:1"/><path id="path3993" d="M 55.875,12 C 55.009497,12.02693 54.176101,12.33398 53.5,12.875 L -6.5,60.875 C -7.449856,61.63413 -8,62.78406 -8,64 C -8,65.21594 -7.449856,66.36587 -6.5,67.125 L 53.5,115.125 C 54.700963,116.08613 56.332437,116.26025 57.71875,115.59375 C 59.105067,114.92725 60.000642,113.53821 60,112 L 60,94.71875 L 85.5,115.125 C 86.70096,116.08613 88.33244,116.26025 89.71875,115.59375 C 91.10507,114.92725 92.00064,113.53821 92,112 L 92,88.3125 L 92,83.875 L 92,83.1875 L 92,78.0625 L 92,49.9375 L 92,45 L 92,44.8125 L 92,39.6875 L 92,16 C 92.00042,14.91715 91.55863,13.87882 90.78125,13.125 C 90.00387,12.37118 88.95732,11.96627 87.875,12 C 87.0095,12.02693 86.1761,12.33398 85.5,12.875 L 60,33.28125 L 60,16 C 60.000417,14.91715 59.558627,13.87882 58.78125,13.125 C 58.003873,12.37118 56.957323,11.96627 55.875,12 z M 52,24.3125 L 52,39.6875 L 46.59375,44 L 37,44 C 36.446,44 36,44.446 36,45 L 36,52.46875 L 25.5,60.875 C 24.550144,61.63413 24,62.78406 24,64 C 24,65.21594 24.550144,66.36587 25.5,67.125 L 36,75.53125 L 36,83.875 C 36,84.429 36.446,84.875 37,84.875 L 47.6875,84.875 L 52,88.3125 L 52,103.6875 L 2.40625,64 L 52,24.3125 z M 84,24.3125 L 84,44 L 69,44 C 68.446,44 68,44.446 68,45 L 68,83.875 C 68,84.429 68.446,84.875 69,84.875 L 84,84.875 L 84,103.6875 L 60,84.46875 L 60,83.875 L 60,83.1875 L 60,78.0625 L 60,49.9375 L 60,45 L 60,44.8125 L 60,43.53125 L 84,24.3125 z M 36,62.71875 L 36,65.28125 L 34.40625,64 L 36,62.71875 z" style="opacity:.53694584000000001;fill:red;fill-opacity:1;fill-rule:evenodd;stroke:none;stroke-width:8;stroke-linecap:butt;stroke-linejoin:round;stroke-miterlimit:4;stroke-dasharray:none;stroke-opacity:1"/><path id="path3999" d="M 56,16 L -4,64 L 56,112 L 56,86.40625 L 88,112 L 88,80 L 88,48 L 88,16 L 56,41.59375 L 56,16 z" style="fill:url(#radialGradient2335);fill-opacity:1;fill-rule:evenodd;stroke:none;stroke-width:1px;stroke-linecap:butt;stroke-linejoin:miter;stroke-opacity:1"/><path id="path4001" d="M 56,16 L -4,64 L 56,112 L 56,86.40625 L 88,112 L 88,80 L 88,48 L 88,16 L 56,41.59375 L 56,16 z" style="fill:none;fill-opacity:1;fill-rule:evenodd;stroke:url(#linearGradient2337);stroke-width:.5;stroke-linecap:butt;stroke-linejoin:miter;stroke-miterlimit:4;stroke-dasharray:none;stroke-opacity:1;filter:url(#filter3435)"/><path id="path3991" d="M 87.875,12 C 87.075959,12.024867 86.302054,12.283948 85.65625,12.75 L 86.625,21.78125 L 91.96875,15.625 C 91.880958,14.678789 91.469257,13.792159 90.78125,13.125 C 90.003873,12.37118 88.957323,11.966273 87.875,12 z" style="opacity:.85;fill:url(#radialGradient2339);fill-opacity:1;fill-rule:evenodd;stroke:none;stroke-width:8;stroke-linecap:butt;stroke-linejoin:round;stroke-miterlimit:4;stroke-dasharray:none;stroke-opacity:1;filter:url(#filter3681)"/><path id="path3995" d="M 71.875,12 C 71.075959,12.024867 70.302054,12.283948 69.65625,12.75 L 70.625,21.78125 L 75.96875,15.625 C 75.880958,14.678789 75.469257,13.792159 74.78125,13.125 C 74.003873,12.37118 72.957323,11.966273 71.875,12 z" transform="matrix(1,0,0,-1,16,127.7793)" style="opacity:.34999999999999998;fill:#ccc;fill-opacity:1;fill-rule:evenodd;stroke:none;stroke-width:8;stroke-linecap:butt;stroke-linejoin:round;stroke-miterlimit:4;stroke-dasharray:none;stroke-opacity:1;filter:url(#filter3681)"/><path id="path3651" d="M 55.875,12 C 55.075959,12.024867 54.302054,12.283948 53.65625,12.75 L 54.625,21.78125 L 59.96875,15.625 C 59.880958,14.678789 59.469257,13.792159 58.78125,13.125 C 58.003873,12.37118 56.957323,11.966273 55.875,12 z" style="opacity:.85;fill:url(#radialGradient2343);fill-opacity:1;fill-rule:evenodd;stroke:none;stroke-width:8;stroke-linecap:butt;stroke-linejoin:round;stroke-miterlimit:4;stroke-dasharray:none;stroke-opacity:1;filter:url(#filter3681)"/><path id="path3685" d="M 71.875,12 C 71.075959,12.024867 70.302054,12.283948 69.65625,12.75 L 70.625,21.78125 L 75.96875,15.625 C 75.880958,14.678789 75.469257,13.792159 74.78125,13.125 C 74.003873,12.37118 72.957323,11.966273 71.875,12 z" transform="matrix(1,0,0,-1,-16,127.7793)" style="opacity:.34999999999999998;fill:#ccc;fill-opacity:1;fill-rule:evenodd;stroke:none;stroke-width:8;stroke-linecap:butt;stroke-linejoin:round;stroke-miterlimit:4;stroke-dasharray:none;stroke-opacity:1;filter:url(#filter3681)"/><path id="path3705" d="M 11.6875,59.125 L 9.5,60.875 C 8.5501441,61.634129 8,62.784063 8,64 C 8.0000001,65.215937 8.5501441,66.365871 9.5,67.125 L 13.03125,69.9375 L 15.15625,64.3125 L 11.6875,59.125 z" transform="matrix(1,0,0,-1,-16,128.5625)" style="opacity:.5;fill:url(#radialGradient2347);fill-opacity:1;fill-rule:evenodd;stroke:none;stroke-width:8;stroke-linecap:butt;stroke-linejoin:round;stroke-miterlimit:4;stroke-dasharray:none;stroke-opacity:1;filter:url(#filter3722)"/><path id="path4143" d="M 56,16 L -3.8125,63.84375 C 4.238841,64.168797 12.513445,64.34375 20.90625,64.34375 C 44.837882,64.34375 67.533203,62.960664 88,60.5 L 88,48 L 88,16 L 56,41.59375 L 56,16 z" style="fill:url(#linearGradient2349);fill-opacity:1;fill-rule:evenodd;stroke:none;stroke-width:1px;stroke-linecap:butt;stroke-linejoin:miter;stroke-opacity:1"/><path id="path4158" d="M 76,16 L 75.34375,16.53125 L 75.34375,41.28125 L 76,40.75 L 76,16 z M 108,16 L 107.46875,16.8125 L 107.46875,47.59375 L 107.46875,59.9375 C 87.230955,62.366791 64.288861,63.718749 40.625,63.71875 C 32.585491,63.71875 24.663189,63.551875 16.9375,63.25 L 16.1875,63.84375 C 24.238841,64.168797 32.513445,64.34375 40.90625,64.34375 C 64.837882,64.34375 87.533203,62.960664 108,60.5 L 108,48 L 108,16 z" transform="translate(-20,0)" style="fill:url(#linearGradient2351);fill-opacity:1;fill-rule:evenodd;stroke:none;stroke-width:1px;stroke-linecap:butt;stroke-linejoin:miter;stroke-opacity:1"/><path id="path4175" d="M 76,16 L 16.1875,63.84375 C 16.321516,63.84916 16.45961,63.838423 16.59375,63.84375 L 76,16.75 L 76,16 z M 108,16 L 76.15625,41.46875 L 76.15625,41.875 L 108,16.625 L 108,16 z" transform="translate(-20,0)" style="fill:url(#linearGradient2353);fill-opacity:1;fill-rule:evenodd;stroke:none;stroke-width:1px;stroke-linecap:butt;stroke-linejoin:miter;stroke-opacity:1"/></g></g></g></svg>