<svg xmlns="http://www.w3.org/2000/svg" xmlns:svg="http://www.w3.org/2000/svg" xmlns:xlink="http://www.w3.org/1999/xlink" id="svg2995" width="32" height="32" version="1.1"><defs id="defs2997"><linearGradient id="linearGradient4055"><stop style="stop-color:#010101;stop-opacity:.63068181" id="stop4057" offset="0"/><stop id="stop4063" offset=".48" style="stop-color:#bebebe;stop-opacity:.75"/><stop style="stop-color:#000;stop-opacity:.21590909" id="stop4059" offset="1"/></linearGradient><linearGradient id="linearGradient3923"><stop style="stop-color:#9e844d;stop-opacity:1" id="stop3925" offset="0"/><stop id="stop3931" offset=".318" style="stop-color:#e0d5bf;stop-opacity:1"/><stop style="stop-color:#e0d5c0;stop-opacity:1" id="stop3933" offset=".677"/><stop style="stop-color:#9f854d;stop-opacity:1" id="stop3927" offset="1"/></linearGradient><linearGradient id="linearGradient3909"><stop style="stop-color:#404040;stop-opacity:1" id="stop3911" offset="0"/><stop id="stop3919" offset=".587" style="stop-color:#c1c1c1;stop-opacity:1"/><stop style="stop-color:#8c8c8c;stop-opacity:1" id="stop3913" offset="1"/></linearGradient><linearGradient id="linearGradient3917" x1="1.826" x2="28.839" y1="16.279" y2="19.315" gradientTransform="matrix(-1.0744398,0,0,1.0744398,33.020366,4.3607685)" gradientUnits="userSpaceOnUse" xlink:href="#linearGradient3909"/><linearGradient id="linearGradient4070" x1="-21.701" x2="-5.001" y1="17.533" y2="8.96" gradientUnits="userSpaceOnUse" xlink:href="#linearGradient4055"/><linearGradient id="linearGradient4072" x1="-18.575" x2="-.625" y1="23.07" y2="23.07" gradientTransform="translate(-3.6614328,0.08930324)" gradientUnits="userSpaceOnUse" xlink:href="#linearGradient3923"/><linearGradient id="linearGradient3917-1" x1="1.826" x2="28.839" y1="16.279" y2="19.315" gradientTransform="matrix(1.0744398,0,0,1.0744398,-1.4624362,4.3607685)" gradientUnits="userSpaceOnUse" xlink:href="#linearGradient3909-7"/><linearGradient id="linearGradient3909-7"><stop style="stop-color:#1c5013;stop-opacity:1" id="stop3911-0" offset="0"/><stop id="stop3919-4" offset=".587" style="stop-color:#9ad291;stop-opacity:1"/><stop style="stop-color:#3cad2a;stop-opacity:1" id="stop3913-8" offset="1"/></linearGradient><linearGradient id="linearGradient4090" x1="1.826" x2="28.839" y1="16.279" y2="19.315" gradientTransform="matrix(1.0744398,0,0,1.0744398,-1.7026377,21.955894)" gradientUnits="userSpaceOnUse" xlink:href="#linearGradient3909-7"/></defs><metadata id="metadata3000"/><g id="layer1"><g id="g4065" transform="matrix(1.1626354,0,0,1.1626354,31.165823,-4.1536974)"><path id="path3939" d="m -13.205287,4.4866597 c -4.586836,-2e-7 -8.3125,3.725664 -8.3125,8.3125003 l 0,4.46875 3.563,0 0,-4.46875 c 0,-2.614004 2.135499,-4.7187504 4.749502,-4.7187503 2.614003,10e-8 4.718498,2.1047473 4.718498,4.7187503 l 0,4.46875 3.563,0 0,-4.46875 c 0,-4.5868361 -3.6946622,-8.3125001 -8.2815,-8.3125003 z" style="color:#000;fill:#b3b3b3;fill-opacity:1;fill-rule:nonzero;stroke:#535353;stroke-width:.68599999;stroke-miterlimit:4;stroke-opacity:1;stroke-dasharray:none;marker:none;visibility:visible;display:inline;overflow:visible;enable-background:accumulate"/><path id="path4053" d="m -13.21875,4.125 c -4.786029,-2e-7 -8.6875,3.9014711 -8.6875,8.6875 l 0,4.46875 a 0.3678895,0.3678895 0 0 0 0.375,0.375 l 3.5625,0 a 0.3678895,0.3678895 0 0 0 0.375,-0.375 l 0,-4.46875 c 0,-2.413614 1.958456,-4.3437501 4.375,-4.34375 2.416544,10e-8 4.34375,1.927206 4.34375,4.34375 l 0,4.46875 a 0.3678895,0.3678895 0 0 0 0.375,0.375 l 3.5625,0 a 0.3678895,0.3678895 0 0 0 0.375,-0.375 l 0,-4.46875 c 0,-4.7843578 -3.8702193,-8.6874998 -8.65625,-8.6875 z" style="color:#000;fill:url(#linearGradient4070);fill-opacity:1;fill-rule:nonzero;stroke:none;stroke-width:.68599999;marker:none;visibility:visible;display:inline;overflow:visible;enable-background:accumulate"/><rect id="rect3921" width="18.664" height="14.646" x="-22.504" y="15.836" style="color:#000;fill:url(#linearGradient4072);fill-opacity:1;fill-rule:nonzero;stroke:none;stroke-width:.88582677;marker:none;visibility:visible;display:inline;overflow:visible;enable-background:accumulate"/></g><path style="color:#000;fill:url(#linearGradient3917);fill-opacity:1;fill-rule:nonzero;stroke:#535353;stroke-width:.952;stroke-opacity:1;marker:none;visibility:visible;display:inline;overflow:visible;enable-background:accumulate;stroke-miterlimit:4;stroke-dasharray:none" id="path3003-8" d="m 17.273108,17.75769 c 5.989125,-0.17191 11.128151,3.53401 13.49765,8.629095 l -5.002861,2.316761 c -1.509557,-3.105862 -4.745278,-5.237894 -8.494789,-5.237894 -1.510437,0 -3.068583,0.482726 -4.54842,1.490881 L 15.721599,28.814301 0.78717222,30.55024 6.1243942,16.47737 9.1991832,20.558045 C 12.261536,18.372698 14.161899,17.846993 17.273108,17.75769 z"/></g></svg>