<svg xmlns="http://www.w3.org/2000/svg" xmlns:svg="http://www.w3.org/2000/svg" xmlns:xlink="http://www.w3.org/1999/xlink" id="Layer_1" width="128" height="128" enable-background="new 0 0 128 128" overflow="visible" space="preserve" version="1.1" viewBox="0 0 128 128"><metadata id="metadata3"/><defs id="defs105"><marker id="Arrow1Mend" orient="auto" refX="0" refY="0" style="overflow:visible"><path id="path3357" d="M 0.0,0.0 L 5.0,-5.0 L -12.5,0.0 L 5.0,5.0 L 0.0,0.0 z" transform="scale(0.4) rotate(180) translate(10,0)" style="fill-rule:evenodd;stroke:#000;stroke-width:1pt;marker-start:none"/></marker><marker id="Arrow1Mstart" orient="auto" refX="0" refY="0" style="overflow:visible"><path id="path3354" d="M 0.0,0.0 L 5.0,-5.0 L -12.5,0.0 L 5.0,5.0 L 0.0,0.0 z" transform="scale(0.4) translate(10,0)" style="fill-rule:evenodd;stroke:#000;stroke-width:1pt;marker-start:none"/></marker><marker id="Arrow1Sstart" orient="auto" refX="0" refY="0" style="overflow:visible"><path id="path3360" d="M 0.0,0.0 L 5.0,-5.0 L -12.5,0.0 L 5.0,5.0 L 0.0,0.0 z" transform="scale(0.2) translate(6,0)" style="fill-rule:evenodd;stroke:#000;stroke-width:1pt;marker-start:none"/></marker><marker id="Arrow1Lend" orient="auto" refX="0" refY="0" style="overflow:visible"><path id="path3351" d="M 0.0,0.0 L 5.0,-5.0 L -12.5,0.0 L 5.0,5.0 L 0.0,0.0 z" transform="scale(0.8) rotate(180) translate(12.5,0)" style="fill-rule:evenodd;stroke:#000;stroke-width:1pt;marker-start:none"/></marker><marker id="Arrow1Lstart" orient="auto" refX="0" refY="0" style="overflow:visible"><path id="path3348" d="M 0.0,0.0 L 5.0,-5.0 L -12.5,0.0 L 5.0,5.0 L 0.0,0.0 z" transform="scale(0.8) translate(12.5,0)" style="fill-rule:evenodd;stroke:#000;stroke-width:1pt;marker-start:none"/></marker><linearGradient id="linearGradient6113"><stop id="stop6115" offset="0" style="stop-color:#000;stop-opacity:1"/><stop id="stop6117" offset="1" style="stop-color:#000;stop-opacity:0"/></linearGradient><radialGradient id="radialGradient2285" cx="49.012" cy="2.674" r="1.725" fx="49.012" fy="2.674" gradientTransform="matrix(1.042254,0,0,0.126014,21.59014,-82.61791)" gradientUnits="userSpaceOnUse" xlink:href="#linearGradient3207"/><linearGradient id="linearGradient2232"><stop id="stop2234" offset="0" style="stop-color:#b4942a;stop-opacity:1"/><stop id="stop2236" offset="1" style="stop-color:#e4dcc9;stop-opacity:1"/></linearGradient><linearGradient id="linearGradient2283" x1="49.153" x2="82.485" y1="75.31" y2="75.31" gradientTransform="matrix(0.789159,0,0,0.789159,21.06854,3.497228e-2)" gradientUnits="userSpaceOnUse" xlink:href="#linearGradient2232"/><linearGradient id="linearGradient3235"><stop id="stop3237" offset="0" style="stop-color:#fff;stop-opacity:1"/><stop id="stop3239" offset="1" style="stop-color:#fff;stop-opacity:0"/></linearGradient><linearGradient id="linearGradient2281" x1="48.499" x2="48.733" y1=".812" y2="2.366" gradientTransform="matrix(1.112439,1.035436,-1.031663,1.116507,65.57053,-49.14214)" gradientUnits="userSpaceOnUse" xlink:href="#linearGradient3235"/><linearGradient id="linearGradient3207"><stop id="stop3209" offset="0" style="stop-color:#fff;stop-opacity:1"/><stop id="stop3211" offset="1" style="stop-color:#252525;stop-opacity:0"/></linearGradient><radialGradient id="radialGradient2279" cx="49.012" cy="2.674" r="1.725" fx="49.012" fy="2.674" gradientTransform="matrix(1.519754,0,0,0.184942,14.80903,-77.11571)" gradientUnits="userSpaceOnUse" xlink:href="#linearGradient3207"/><linearGradient id="linearGradient3225"><stop id="stop3227" offset="0" style="stop-color:#fff;stop-opacity:1"/><stop id="stop3229" offset="1" style="stop-color:#aeaeae;stop-opacity:1"/></linearGradient><radialGradient id="radialGradient2277" cx="49.01" cy="8.495" r="3.975" fx="47.371" fy="6.77" gradientTransform="matrix(1.112439,1.035436,-0.388678,0.420644,60.1082,-43.23056)" gradientUnits="userSpaceOnUse" xlink:href="#linearGradient3225"/><linearGradient id="linearGradient3325"><stop id="stop3327" offset="0" style="stop-color:#fff;stop-opacity:1"/><stop id="stop3329" offset="1" style="stop-color:#fff;stop-opacity:0"/></linearGradient><linearGradient id="linearGradient3303"><stop id="stop3305" offset="0" style="stop-color:#fff;stop-opacity:.68345326"/><stop id="stop3307" offset="1" style="stop-color:#fff;stop-opacity:0"/></linearGradient><radialGradient id="radialGradient2273" cx="34.678" cy="7.462" r="47.595" fx="34.678" fy="7.462" gradientTransform="matrix(0.999914,-7.841646e-3,5.666079e-4,2.048306e-2,-1.242234e-3,7.581357)" gradientUnits="userSpaceOnUse" xlink:href="#linearGradient3303"/><linearGradient id="linearGradient2271" x1="11.326" x2="14.494" y1="57.384" y2="57.384" gradientTransform="matrix(0.856502,0.799536,-0.796622,0.859634,115.5123,-21.93479)" gradientUnits="userSpaceOnUse" xlink:href="#linearGradient3058"/><linearGradient id="linearGradient3058"><stop id="stop3060" offset="0" style="stop-color:#9a7600;stop-opacity:1"/><stop id="stop3066" offset=".093" style="stop-color:#e3ad00;stop-opacity:1"/><stop id="stop3070" offset=".504" style="stop-color:#ffcd2c;stop-opacity:1"/><stop id="stop3068" offset=".916" style="stop-color:#e3ad00;stop-opacity:1"/><stop id="stop3062" offset="1" style="stop-color:#b98d00;stop-opacity:1"/></linearGradient><radialGradient id="radialGradient2269" cx="36.676" cy="95.769" r="47.746" fx="16.217" fy="64.141" gradientTransform="matrix(5.267341e-2,5.051614e-2,-1.057794,1.116234,183.7751,-66.53858)" gradientUnits="userSpaceOnUse" xlink:href="#linearGradient3058"/><linearGradient id="linearGradient2598"><stop id="stop2600" offset="0" style="stop-color:#252525;stop-opacity:1"/><stop id="stop2606" offset=".5" style="stop-color:#252525;stop-opacity:1"/><stop id="stop2608" offset=".75" style="stop-color:#252525;stop-opacity:1"/><stop id="stop2602" offset="1" style="stop-color:#000;stop-opacity:1"/></linearGradient><radialGradient id="radialGradient2267" cx="15.727" cy="58.09" r="2.614" fx="15.727" fy="58.09" gradientTransform="matrix(1.54853,1.469114,-21.05168,22.68598,1272.946,-1291.402)" gradientUnits="userSpaceOnUse" xlink:href="#linearGradient2598"/><linearGradient id="linearGradient2257"><stop id="stop2259" offset="0" style="stop-color:#b4942a;stop-opacity:1"/><stop id="stop2261" offset="1" style="stop-color:#e4dcc9;stop-opacity:1"/></linearGradient><radialGradient id="radialGradient2265" cx="42.618" cy="120.642" r="3.407" fx="42.618" fy="120.642" gradientTransform="matrix(1.231616,1.291421,-11.70616,11.17834,1411.874,-1325.552)" gradientUnits="userSpaceOnUse" xlink:href="#linearGradient2257"/><linearGradient id="linearGradient3291"><stop id="stop3293" offset="0" style="stop-color:black;stop-opacity:1"/><stop id="stop3295" offset="1" style="stop-color:black;stop-opacity:0"/></linearGradient><linearGradient id="linearGradient18668" x1="28" x2="28" y1="57.5" y2="0" gradientUnits="userSpaceOnUse"><stop id="stop18670" offset="0" style="stop-color:#fffccf;stop-opacity:1"/><stop id="stop18672" offset="1" style="stop-color:white;stop-opacity:0"/></linearGradient><linearGradient id="linearGradient15967" x1="28" x2="28" y1="57.5" y2="0" gradientUnits="userSpaceOnUse"><stop id="stop15969" offset="0" style="stop-color:white;stop-opacity:1"/><stop id="stop15971" offset="1" style="stop-color:white;stop-opacity:0"/></linearGradient><linearGradient id="XMLID_2_" x1="28" x2="28" y1="57.5" y2="0" gradientUnits="userSpaceOnUse"><stop id="stop12" offset="0" style="stop-color:#ffea00"/><stop id="stop14" offset="1" style="stop-color:#fc0"/></linearGradient><linearGradient id="linearGradient2391" x1="94.344" x2="86.536" y1="102.345" y2="94.537" gradientUnits="userSpaceOnUse" xlink:href="#XMLID_9_"/><linearGradient id="linearGradient2393" x1="95" x2="86.587" y1="103" y2="94.587" gradientUnits="userSpaceOnUse" xlink:href="#XMLID_10_"/><linearGradient id="linearGradient2395" x1="95" x2="87.293" y1="103" y2="95.293" gradientUnits="userSpaceOnUse" xlink:href="#XMLID_11_"/><linearGradient id="linearGradient2397" x1="96" x2="88" y1="104" y2="96" gradientUnits="userSpaceOnUse" xlink:href="#XMLID_12_"/><radialGradient id="radialGradient2465" cx="102" cy="112.305" r="139.559" gradientUnits="userSpaceOnUse" xlink:href="#XMLID_7_"/><radialGradient id="radialGradient2467" cx="102" cy="112.305" r="139.559" gradientUnits="userSpaceOnUse" xlink:href="#XMLID_8_"/><linearGradient id="linearGradient12370" x1="94.344" x2="86.536" y1="102.345" y2="94.537" gradientUnits="userSpaceOnUse" xlink:href="#XMLID_9_"/><linearGradient id="linearGradient12372" x1="95" x2="86.587" y1="103" y2="94.587" gradientUnits="userSpaceOnUse" xlink:href="#XMLID_10_"/><linearGradient id="linearGradient12374" x1="95" x2="87.293" y1="103" y2="95.293" gradientUnits="userSpaceOnUse" xlink:href="#XMLID_11_"/><linearGradient id="linearGradient12376" x1="96" x2="88" y1="104" y2="96" gradientUnits="userSpaceOnUse" xlink:href="#XMLID_12_"/><linearGradient id="linearGradient12378" x1="28" x2="28" y1="57.5" y2="0" gradientUnits="userSpaceOnUse" xlink:href="#XMLID_2_"/><linearGradient id="linearGradient14180" x1="-74.821" x2="-18.122" y1="100.824" y2="100.824" gradientUnits="userSpaceOnUse" xlink:href="#linearGradient2309"/><linearGradient id="linearGradient14189" x1="-74.821" x2="-18.122" y1="100.824" y2="100.824" gradientUnits="userSpaceOnUse" xlink:href="#linearGradient2309"/><linearGradient id="linearGradient15973" x1="27.72" x2="27.72" y1="7.881" y2="30.441" gradientTransform="translate(1.470416e-5,0)" gradientUnits="userSpaceOnUse" xlink:href="#linearGradient15967"/><linearGradient id="linearGradient15977" x1="-74.821" x2="-18.122" y1="100.824" y2="100.824" gradientUnits="userSpaceOnUse" xlink:href="#linearGradient2309"/><radialGradient id="radialGradient15986" cx="26.954" cy="31.045" r="8.968" fx="26.954" fy="31.045" gradientTransform="matrix(0.754978,-2.959381e-2,0,0.905772,7.650275,10.87807)" gradientUnits="userSpaceOnUse" xlink:href="#linearGradient15967"/><linearGradient id="linearGradient18657" x1="28" x2="28" y1="57.5" y2="0" gradientUnits="userSpaceOnUse" xlink:href="#XMLID_2_"/><linearGradient id="linearGradient18649" x1="28" x2="28" y1="57.5" y2="0" gradientUnits="userSpaceOnUse"><stop id="stop18651" offset="0" style="stop-color:#ffea00"/><stop id="stop18653" offset="1" style="stop-color:#fc0"/></linearGradient><linearGradient id="linearGradient18674" x1="-39.531" x2="-39.531" y1="78" y2="51.188" gradientUnits="userSpaceOnUse" xlink:href="#linearGradient18668"/><linearGradient id="linearGradient18744" x1="28" x2="28" y1="57.5" y2="0" gradientUnits="userSpaceOnUse" xlink:href="#XMLID_2_"/><linearGradient id="linearGradient18746" x1="-39.531" x2="-39.531" y1="78" y2="51.188" gradientUnits="userSpaceOnUse" xlink:href="#linearGradient18668"/><radialGradient id="radialGradient6584" cx="102" cy="112.305" r="139.559" gradientTransform="matrix(0.9787234,0,0,0.9818182,9.3617021,1.1636364)" gradientUnits="userSpaceOnUse" xlink:href="#XMLID_8_"/><radialGradient id="radialGradient6587" cx="102" cy="112.305" r="139.559" gradientTransform="translate(8,0)" gradientUnits="userSpaceOnUse" xlink:href="#XMLID_7_"/><radialGradient id="radialGradient9520" cx="30.01" cy="34.75" r="20.781" fx="30.01" fy="34.75" gradientTransform="matrix(1,0,0,1.2916104,0,-15.57938)" gradientUnits="userSpaceOnUse" xlink:href="#linearGradient18668"/><radialGradient id="radialGradient2287" cx="102" cy="112.305" r="139.559" gradientTransform="translate(8,0)" gradientUnits="userSpaceOnUse" xlink:href="#XMLID_7_"/><radialGradient id="radialGradient2289" cx="102" cy="112.305" r="139.559" gradientTransform="matrix(0.9787234,0,0,0.9818182,9.3617021,1.1636364)" gradientUnits="userSpaceOnUse" xlink:href="#XMLID_8_"/><linearGradient id="linearGradient2291" x1="94.344" x2="86.536" y1="102.345" y2="94.537" gradientUnits="userSpaceOnUse" xlink:href="#XMLID_9_"/><linearGradient id="linearGradient2293" x1="95" x2="86.587" y1="103" y2="94.587" gradientUnits="userSpaceOnUse" xlink:href="#XMLID_10_"/><linearGradient id="linearGradient2295" x1="95" x2="87.293" y1="103" y2="95.293" gradientUnits="userSpaceOnUse" xlink:href="#XMLID_11_"/><linearGradient id="linearGradient2297" x1="96" x2="88" y1="104" y2="96" gradientUnits="userSpaceOnUse" xlink:href="#XMLID_12_"/><radialGradient id="radialGradient2272" cx="102" cy="112.305" r="139.559" gradientTransform="matrix(0.9787234,0,0,0.9818182,1.3617045,1.1636364)" gradientUnits="userSpaceOnUse" xlink:href="#XMLID_8_"/><radialGradient id="radialGradient2275" cx="102" cy="112.305" r="139.559" gradientTransform="translate(2.4e-6,0)" gradientUnits="userSpaceOnUse" xlink:href="#XMLID_7_"/><filter id="filter3241"><feGaussianBlur id="feGaussianBlur3243" stdDeviation="1.039"/></filter><radialGradient id="radialGradient4046" cx="102" cy="112.305" r="139.559" gradientTransform="translate(2.4000001e-6,0)" gradientUnits="userSpaceOnUse" xlink:href="#XMLID_7_"/><linearGradient id="linearGradient6119" x1="23.488" x2="1.658" y1="47.099" y2="29.124" gradientUnits="userSpaceOnUse" xlink:href="#linearGradient6113"/><linearGradient id="linearGradient3298" x1="8.239" x2="8.239" y1="-13.865" y2="-1.405" gradientTransform="translate(63.949686,0)" gradientUnits="userSpaceOnUse" xlink:href="#linearGradient3288"/><linearGradient id="linearGradient2207" x1="80.347" x2="73.463" y1="17.269" y2="107.955" gradientTransform="matrix(0.8333334,0,0,0.8888891,19.747863,31.098537)" gradientUnits="userSpaceOnUse" xlink:href="#linearGradient3323"/><linearGradient id="linearGradient2204" x1="20" x2="20" y1="78.165" y2="109.849" gradientTransform="matrix(0,3.3333334,2.5593082,-0.639827,-169.23171,69.650699)" gradientUnits="userSpaceOnUse" xlink:href="#linearGradient3314"/><linearGradient id="linearGradient3553" x1="113.157" x2="39.268" y1="25.786" y2="25.786" gradientTransform="translate(11.999999,0)" gradientUnits="userSpaceOnUse" xlink:href="#linearGradient2399"/><linearGradient id="linearGradient3551" x1="20" x2="20" y1="78.165" y2="109.849" gradientTransform="matrix(3.3333334,0,-0.639827,2.5593082,69.638116,-169.21913)" gradientUnits="userSpaceOnUse" xlink:href="#linearGradient3314"/><linearGradient id="linearGradient3549" x1="80.347" x2="73.463" y1="17.269" y2="107.955" gradientTransform="matrix(0.8333334,0,0,0.9162458,40.666665,32.068602)" gradientUnits="userSpaceOnUse" xlink:href="#linearGradient3323"/><linearGradient id="linearGradient3547" x1="102.311" x2="74.33" y1="-5.83" y2="32" gradientTransform="matrix(1.5714286,0,0,2,-77.455357,-24)" gradientUnits="userSpaceOnUse" xlink:href="#linearGradient3310"/><linearGradient id="linearGradient3545" x1="42.729" x2="124.092" y1="100" y2="28" gradientTransform="matrix(0.8333334,0,0,0.888889,-5.3333316,-16.888886)" gradientUnits="userSpaceOnUse" xlink:href="#linearGradient2431"/><linearGradient id="linearGradient3543" x1="399.775" x2="399.775" y1="1164.67" y2="549.061" gradientTransform="matrix(9.7165589e-2,0,0,0.1301193,-6.3061697,-71.503536)" gradientUnits="userSpaceOnUse" xlink:href="#linearGradient7422"/><linearGradient id="linearGradient3514" x1="113.157" x2="39.268" y1="25.786" y2="25.786" gradientTransform="translate(11.999999,0)" gradientUnits="userSpaceOnUse" xlink:href="#linearGradient2399"/><linearGradient id="linearGradient2534" x1="80.347" x2="73.463" y1="17.269" y2="107.955" gradientTransform="matrix(0.8333334,0,0,0.9162458,40.666665,32.068602)" gradientUnits="userSpaceOnUse" xlink:href="#linearGradient3323"/><linearGradient id="linearGradient2531" x1="20" x2="20" y1="78.165" y2="109.849" gradientTransform="matrix(3.3333334,0,-0.639827,2.5593082,69.638116,-169.21913)" gradientUnits="userSpaceOnUse" xlink:href="#linearGradient3314"/><linearGradient id="linearGradient3323"><stop id="stop3325" offset="0" style="stop-color:#c7cdd7;stop-opacity:1"/><stop id="stop3458" offset="1" style="stop-color:#fff;stop-opacity:1"/></linearGradient><linearGradient id="linearGradient3314"><stop id="stop3316" offset="0" style="stop-color:#fff;stop-opacity:1"/><stop id="stop3318" offset="1" style="stop-color:#fff;stop-opacity:0"/></linearGradient><linearGradient id="linearGradient3310"><stop id="stop3312" offset="0" style="stop-color:#fff;stop-opacity:1"/><stop id="stop3314" offset="1" style="stop-color:#fff;stop-opacity:0"/></linearGradient><linearGradient id="linearGradient7422"><stop id="stop7424" offset="0" style="stop-color:#b4b4b6;stop-opacity:1"/><stop id="stop5348" offset=".5" style="stop-color:#9c9ca1;stop-opacity:1"/><stop id="stop7426" offset="1" style="stop-color:#cdcdd1;stop-opacity:1"/></linearGradient><linearGradient id="linearGradient2431"><stop id="stop2433" offset="0" style="stop-color:#fff;stop-opacity:1"/><stop id="stop2435" offset=".426" style="stop-color:#fff;stop-opacity:1"/><stop id="stop2437" offset=".589" style="stop-color:#f1f1f1;stop-opacity:1"/><stop id="stop2439" offset=".802" style="stop-color:#eaeaea;stop-opacity:1"/><stop id="stop2441" offset="1" style="stop-color:#dfdfdf;stop-opacity:1"/></linearGradient><linearGradient id="linearGradient2399"><stop id="stop2401" offset="0" style="stop-color:#0968ef;stop-opacity:1"/><stop id="stop2403" offset="1" style="stop-color:#aecffc;stop-opacity:1"/></linearGradient><linearGradient id="linearGradient3287" x1="399.775" x2="399.775" y1="1164.67" y2="549.061" gradientTransform="matrix(9.7165589e-2,0,0,0.1301193,-6.3061697,-71.503536)" gradientUnits="userSpaceOnUse" xlink:href="#linearGradient7422"/><linearGradient id="linearGradient3289" x1="42.729" x2="124.092" y1="100" y2="28" gradientTransform="matrix(0.8333334,0,0,0.888889,-5.3333316,-16.888886)" gradientUnits="userSpaceOnUse" xlink:href="#linearGradient2431"/><linearGradient id="linearGradient3292" x1="102.311" x2="74.33" y1="-5.83" y2="32" gradientTransform="matrix(1.5714286,0,0,2,-77.455357,-24)" gradientUnits="userSpaceOnUse" xlink:href="#linearGradient3310"/><linearGradient id="linearGradient3288"><stop id="stop3290" offset="0" style="stop-color:#618fd2;stop-opacity:1"/><stop id="stop3292" offset="1" style="stop-color:#a4c0e4;stop-opacity:1"/></linearGradient><linearGradient id="linearGradient3516" x1="100.029" x2="38.064" y1="20.118" y2="20.118" gradientTransform="translate(6,4)" gradientUnits="userSpaceOnUse" xlink:href="#linearGradient2399"/><linearGradient id="linearGradient3704" x1="100.029" x2="38.064" y1="20.118" y2="20.118" gradientTransform="matrix(-1,0,0,1,124,4)" gradientUnits="userSpaceOnUse" xlink:href="#linearGradient2399"/><filter id="filter3772"><feGaussianBlur id="feGaussianBlur3774" stdDeviation=".501"/></filter></defs><radialGradient id="XMLID_7_" cx="102" cy="112.305" r="139.559" gradientUnits="userSpaceOnUse"><stop id="stop16" offset="0" style="stop-color:#00537d"/><stop id="stop18" offset=".015" style="stop-color:#186389"/><stop id="stop20" offset=".056" style="stop-color:#558ca8"/><stop id="stop22" offset=".096" style="stop-color:#89afc3"/><stop id="stop24" offset=".136" style="stop-color:#b3ccd8"/><stop id="stop26" offset=".174" style="stop-color:#d4e2e9"/><stop id="stop28" offset=".21" style="stop-color:#ecf2f5"/><stop id="stop30" offset=".243" style="stop-color:#fafcfd"/><stop id="stop32" offset=".272" style="stop-color:#fff"/></radialGradient><radialGradient id="XMLID_8_" cx="102" cy="112.305" r="139.559" gradientUnits="userSpaceOnUse"><stop id="stop37" offset="0" style="stop-color:#535557"/><stop id="stop41" offset=".114" style="stop-color:#898a8c"/><stop id="stop47" offset=".203" style="stop-color:#ececec"/><stop id="stop49" offset=".236" style="stop-color:#fafafa"/><stop id="stop51" offset=".272" style="stop-color:#fff"/><stop id="stop53" offset=".531" style="stop-color:#fafafa"/><stop id="stop55" offset=".845" style="stop-color:#ebecec"/><stop id="stop57" offset="1" style="stop-color:#e1e2e3"/></radialGradient><linearGradient id="XMLID_9_" x1="94.344" x2="86.536" y1="102.345" y2="94.537" gradientUnits="userSpaceOnUse"><stop id="stop62" offset="0" style="stop-color:#fff"/><stop id="stop64" offset="1" style="stop-color:#555753"/></linearGradient><linearGradient id="XMLID_10_" x1="95" x2="86.587" y1="103" y2="94.587" gradientUnits="userSpaceOnUse"><stop id="stop69" offset="0" style="stop-color:#fff"/><stop id="stop71" offset="1" style="stop-color:#555753"/></linearGradient><linearGradient id="XMLID_11_" x1="95" x2="87.293" y1="103" y2="95.293" gradientUnits="userSpaceOnUse"><stop id="stop76" offset="0" style="stop-color:#fff"/><stop id="stop78" offset="1" style="stop-color:#393b38"/></linearGradient><linearGradient id="XMLID_12_" x1="96" x2="88" y1="104" y2="96" gradientUnits="userSpaceOnUse"><stop id="stop83" offset="0" style="stop-color:#888a85"/><stop id="stop85" offset=".007" style="stop-color:#8c8e89"/><stop id="stop87" offset=".067" style="stop-color:#abaca9"/><stop id="stop89" offset=".135" style="stop-color:#c5c6c4"/><stop id="stop91" offset=".211" style="stop-color:#dbdbda"/><stop id="stop93" offset=".301" style="stop-color:#ebebeb"/><stop id="stop95" offset=".412" style="stop-color:#f7f7f6"/><stop id="stop97" offset=".568" style="stop-color:#fdfdfd"/><stop id="stop99" offset="1" style="stop-color:#fff"/></linearGradient><path id="path3726" d="M 24.919999,10.931136 L 24.919999,119.06907 L 83.596,119.06897 C 84.126,119.06897 84.635,118.85797 85.01,118.48297 L 116.494,86.717034 C 116.869,86.342034 117.08,85.833034 117.08,85.303034 L 117.08,10.931136 L 24.919999,10.931136 z" transform="matrix(1.0416667,0,0,1.0357143,-9.9583333,-3.3215342)" style="opacity:.89589041000000003;fill:#000;fill-opacity:1;filter:url(#filter3772)"/><path id="path6594" d="M 23,9.9655172 L 23.040816,121 L 84.172,121 C 84.702,121 85.211,120.789 85.586,120.414 L 118.414,87.586 C 118.789,87.211 119,86.702 119,86.172 L 119,9.9655172 L 23,9.9655172 z" transform="matrix(1.0416667,0,0,1.0357143,-9.9583333,-3.3215342)" style="opacity:.30684932;fill:#000;fill-opacity:1;filter:url(#filter3241)"/><path id="path34" d="M 16.000002,8 L 16.000002,120 L 77.172002,120 C 77.702002,120 78.211002,119.789 78.586002,119.414 L 111.414,86.586 C 111.789,86.211 112,85.702 112,85.172 L 112,8 L 16.000002,8 z" style="fill:url(#radialGradient2275)"/><path id="path59" d="M 18.978725,10 C 18.439449,10 18.000002,10.440836 18.000002,10.981818 L 18.000002,117.01818 C 18.000002,117.56015 18.439449,118 18.978725,118 L 76.891747,118 C 77.149151,118 77.401662,117.89593 77.583704,117.71233 L 109.71323,85.4812 C 109.89626,85.2976 110,85.045273 110,84.787055 L 110,10.981818 C 110,10.440836 109.56153,10 109.02128,10 L 18.978725,10 z" style="fill:url(#radialGradient2272);fill-opacity:1"/><g id="g1973" transform="translate(2.4e-6,0)"><path id="path66" d="M 111.414,86.586 C 111.664,86.336 93.035,93 88,93 C 86.346,93 85,94.346 85,96 C 85,101.035 78.336,119.664 78.586,119.414 L 111.414,86.586 z" style="opacity:.1;fill:url(#linearGradient2291)"/><path id="path73" d="M 111.414,86.586 C 111.789,86.211 97.444,94 88,94 C 86.897,94 86,94.897 86,96 C 86,105.444 78.211,119.789 78.586,119.414 L 111.414,86.586 z" style="opacity:.1;fill:url(#linearGradient2293)"/><path id="path80" d="M 111.414,86.586 C 111.653,86.347 97.807,95 88,95 C 87.447,95 87,95.447 87,96 C 87,105.807 78.347,119.653 78.586,119.414 L 111.414,86.586 z" style="opacity:.1;fill:url(#linearGradient2295)"/><path id="path101" d="M 78.586,119.414 C 78.586,119.414 90.5,109.5 96,104 C 101.5,98.5 111.414,86.586 111.414,86.586 C 111.414,86.586 98.25,96 88,96 C 88,106.25 78.586,119.414 78.586,119.414 z" style="fill:url(#linearGradient2297)"/></g><path id="path3341" d="M 100,28 L 100,28 z" style="fill:none;fill-rule:evenodd;stroke:#000;stroke-width:1px;stroke-linecap:butt;stroke-linejoin:miter;stroke-opacity:1"/><g style="font-size:40px;font-style:normal;font-variant:normal;font-weight:400;font-stretch:normal;text-align:start;line-height:125%;letter-spacing:0;word-spacing:0;writing-mode:lr-tb;text-anchor:start;fill:#000;fill-opacity:1;stroke:none;font-family:Sans;-inkscape-font-specification:Sans" id="text3188"><path id="path3207" d="m 31.871094,22.082031 0,10.957031 4.960937,0 c 1.835923,1.5e-5 3.255192,-0.475244 4.257813,-1.425781 1.002586,-0.950503 1.503887,-2.304669 1.503906,-4.0625 -1.9e-5,-1.744769 -0.50132,-3.092424 -1.503906,-4.042969 -1.002621,-0.950495 -2.42189,-1.425755 -4.257813,-1.425781 l -4.960937,0 m -3.945313,-3.242187 8.90625,0 c 3.268213,2.9e-5 5.735659,0.742216 7.402344,2.226562 1.679666,1.47138 2.519508,3.632836 2.519531,6.484375 -2.3e-5,2.877622 -0.839865,5.052099 -2.519531,6.523438 -1.666685,1.471366 -4.134131,2.207043 -7.402344,2.207031 l -4.960937,0 0,11.71875 -3.945313,0 0,-29.160156"/><path id="path3209" d="m 69.546875,19.796875 0,3.847656 C 68.049459,22.92841 66.6367,22.394557 65.308594,22.042969 c -1.328141,-0.351536 -2.610692,-0.527318 -3.847657,-0.527344 -2.148448,2.6e-5 -3.808603,0.416693 -4.980468,1.25 -1.158862,0.833358 -1.738288,2.018252 -1.738282,3.554687 -6e-6,1.289083 0.384108,2.265645 1.152344,2.929688 0.781242,0.65106 2.252594,1.178403 4.414063,1.582031 l 2.382812,0.488281 c 2.942691,0.559912 5.110658,1.549495 6.503906,2.96875 1.406228,1.406263 2.109352,3.294282 2.109375,5.664063 -2.3e-5,2.825526 -0.950543,4.967451 -2.851562,6.425781 -1.888039,1.458334 -4.661474,2.1875 -8.320313,2.1875 -1.380218,0 -2.851571,-0.15625 -4.414062,-0.46875 -1.549485,-0.3125 -3.157557,-0.774739 -4.824219,-1.386719 l 0,-4.0625 c 1.601558,0.898442 3.170567,1.575525 4.707031,2.03125 1.53645,0.455733 3.046865,0.683597 4.53125,0.683594 2.25259,3e-6 3.99087,-0.442705 5.214844,-1.328125 1.22394,-0.885412 1.835919,-2.148431 1.835938,-3.789062 -1.9e-5,-1.432283 -0.442727,-2.552073 -1.328125,-3.359375 -0.872413,-0.80728 -2.311214,-1.412748 -4.316407,-1.816407 l -2.402343,-0.46875 C 56.194002,34.015639 54.065098,33.097671 52.75,31.847656 c -1.315107,-1.249982 -1.972659,-2.988262 -1.972656,-5.214844 -3e-6,-2.578101 0.904944,-4.609349 2.714843,-6.09375 1.82291,-1.484346 4.329418,-2.226532 7.519532,-2.226562 1.367173,3e-5 2.760401,0.123727 4.179687,0.371094 1.419253,0.247425 2.871074,0.618518 4.355469,1.113281"/></g></svg>